<svg xmlns="http://www.w3.org/2000/svg" width="960" height="620">
<rect width="100%" height="100%" fill="#111827"/>
<text x="40" y="40" fill="#e5e7eb" font-size="24" font-family="Segoe UI, Arial">Watch Intent vs Negative/Confusion by Video</text>
<line x1="90.0" y1="70" x2="90.0" y2="540" stroke="#374151"/>
<line x1="90" y1="540.0" x2="890" y2="540.0" stroke="#374151"/>
<text x="90.0" y="575" fill="#9ca3af" font-size="12" text-anchor="middle" font-family="Segoe UI, Arial">0</text>
<text x="55" y="544.0" fill="#9ca3af" font-size="12" text-anchor="middle" font-family="Segoe UI, Arial">0</text>
<line x1="290.0" y1="70" x2="290.0" y2="540" stroke="#374151"/>
<line x1="90" y1="422.5" x2="890" y2="422.5" stroke="#374151"/>
<text x="290.0" y="575" fill="#9ca3af" font-size="12" text-anchor="middle" font-family="Segoe UI, Arial">0.25</text>
<text x="55" y="426.5" fill="#9ca3af" font-size="12" text-anchor="middle" font-family="Segoe UI, Arial">0.25</text>
<line x1="490.0" y1="70" x2="490.0" y2="540" stroke="#374151"/>
<line x1="90" y1="305.0" x2="890" y2="305.0" stroke="#374151"/>
<text x="490.0" y="575" fill="#9ca3af" font-size="12" text-anchor="middle" font-family="Segoe UI, Arial">0.5</text>
<text x="55" y="309.0" fill="#9ca3af" font-size="12" text-anchor="middle" font-family="Segoe UI, Arial">0.5</text>
<line x1="690.0" y1="70" x2="690.0" y2="540" stroke="#374151"/>
<line x1="90" y1="187.5" x2="890" y2="187.5" stroke="#374151"/>
<text x="690.0" y="575" fill="#9ca3af" font-size="12" text-anchor="middle" font-family="Segoe UI, Arial">0.75</text>
<text x="55" y="191.5" fill="#9ca3af" font-size="12" text-anchor="middle" font-family="Segoe UI, Arial">0.75</text>
<line x1="890.0" y1="70" x2="890.0" y2="540" stroke="#374151"/>
<line x1="90" y1="70.0" x2="890" y2="70.0" stroke="#374151"/>
<text x="890.0" y="575" fill="#9ca3af" font-size="12" text-anchor="middle" font-family="Segoe UI, Arial">1</text>
<text x="55" y="74.0" fill="#9ca3af" font-size="12" text-anchor="middle" font-family="Segoe UI, Arial">1</text>
<text x="480.0" y="602" fill="#d1d5db" font-size="14" text-anchor="middle" font-family="Segoe UI, Arial">Negative or Confusion Rate</text>
<text x="20" y="310.0" fill="#d1d5db" font-size="14" text-anchor="middle" transform="rotate(-90 20 310.0)" font-family="Segoe UI, Arial">High Intent Rate</text>
<line x1="490.0" y1="70" x2="490.0" y2="540" stroke="#6b7280" stroke-dasharray="4 4"/>
<line x1="90" y1="305.0" x2="890" y2="305.0" stroke="#6b7280" stroke-dasharray="4 4"/>
<circle cx="432.9" cy="204.3" r="6.6" fill="#10b981" fill-opacity="0.7" stroke="#111827" stroke-width="1.5"/>
<circle cx="490.0" cy="305.0" r="6.4" fill="#10b981" fill-opacity="0.7" stroke="#111827" stroke-width="1.5"/>
<circle cx="775.7" cy="271.4" r="6.6" fill="#10b981" fill-opacity="0.7" stroke="#111827" stroke-width="1.5"/>
<circle cx="591.1" cy="338.6" r="13.5" fill="#10b981" fill-opacity="0.7" stroke="#111827" stroke-width="1.5"/>
<circle cx="590.0" cy="363.8" r="8.0" fill="#10b981" fill-opacity="0.7" stroke="#111827" stroke-width="1.5"/>
<circle cx="623.3" cy="383.3" r="10.9" fill="#10b981" fill-opacity="0.7" stroke="#111827" stroke-width="1.5"/>
<circle cx="623.3" cy="383.3" r="7.5" fill="#10b981" fill-opacity="0.7" stroke="#111827" stroke-width="1.5"/>
<circle cx="547.1" cy="405.7" r="6.6" fill="#10b981" fill-opacity="0.7" stroke="#111827" stroke-width="1.5"/>
<circle cx="410.0" cy="446.0" r="6.2" fill="#10b981" fill-opacity="0.7" stroke="#111827" stroke-width="1.5"/>
<circle cx="356.7" cy="500.8" r="7.5" fill="#f59e0b" fill-opacity="0.7" stroke="#111827" stroke-width="1.5"/>
<circle cx="356.7" cy="529.6" r="10.7" fill="#f59e0b" fill-opacity="0.7" stroke="#111827" stroke-width="1.5"/>
<circle cx="530.4" cy="481.9" r="13.4" fill="#f59e0b" fill-opacity="0.7" stroke="#111827" stroke-width="1.5"/>
<circle cx="490.0" cy="497.3" r="8.7" fill="#f59e0b" fill-opacity="0.7" stroke="#111827" stroke-width="1.5"/>
<circle cx="707.3" cy="484.9" r="16.7" fill="#f59e0b" fill-opacity="0.7" stroke="#111827" stroke-width="1.5"/>
<circle cx="643.8" cy="503.8" r="7.6" fill="#f59e0b" fill-opacity="0.7" stroke="#111827" stroke-width="1.5"/>
<circle cx="730.0" cy="493.0" r="7.2" fill="#f59e0b" fill-opacity="0.7" stroke="#111827" stroke-width="1.5"/>
<circle cx="785.7" cy="526.4" r="12.3" fill="#f59e0b" fill-opacity="0.7" stroke="#111827" stroke-width="1.5"/>
<circle cx="790.0" cy="540.0" r="6.8" fill="#f59e0b" fill-opacity="0.7" stroke="#111827" stroke-width="1.5"/>
<circle cx="890.0" cy="540.0" r="6.6" fill="#f59e0b" fill-opacity="0.7" stroke="#111827" stroke-width="1.5"/>
<circle cx="890.0" cy="540.0" r="6.2" fill="#f59e0b" fill-opacity="0.7" stroke="#111827" stroke-width="1.5"/>
<text x="440.9" y="196.3" fill="#e5e7eb" font-size="11" font-family="Consolas, Menlo, monospace">DXDougNoQU5</text>
<text x="498.0" y="297.0" fill="#e5e7eb" font-size="11" font-family="Consolas, Menlo, monospace">DW9ebHtPnBL</text>
<text x="783.7" y="263.4" fill="#e5e7eb" font-size="11" font-family="Consolas, Menlo, monospace">DW44MSXDd5n</text>
<text x="798.0" y="532.0" fill="#e5e7eb" font-size="11" font-family="Consolas, Menlo, monospace">DW9ZM2xki_o</text>
<text x="898.0" y="532.0" fill="#e5e7eb" font-size="11" font-family="Consolas, Menlo, monospace">DW3hkdljRnT</text>
<text x="898.0" y="532.0" fill="#e5e7eb" font-size="11" font-family="Consolas, Menlo, monospace">DW6w4h1j08o</text>
</svg>