<svg xmlns="http://www.w3.org/2000/svg" width="1400" height="600">
<rect width="100%" height="100%" fill="#0f172a"/>
<text x="40" y="40" fill="#e2e8f0" font-size="26" font-family="Segoe UI, Arial">Winner Score by Video (min 5 labeled rows)</text>
<line x1="360.0" y1="70" x2="360.0" y2="540" stroke="#334155" stroke-width="1"/>
<text x="360.0" y="580" fill="#94a3b8" font-size="12" text-anchor="middle" font-family="Segoe UI, Arial">-0.5</text>
<line x1="520.0" y1="70" x2="520.0" y2="540" stroke="#334155" stroke-width="1"/>
<text x="520.0" y="580" fill="#94a3b8" font-size="12" text-anchor="middle" font-family="Segoe UI, Arial">-0.25</text>
<line x1="680.0" y1="70" x2="680.0" y2="540" stroke="#334155" stroke-width="1"/>
<text x="680.0" y="580" fill="#94a3b8" font-size="12" text-anchor="middle" font-family="Segoe UI, Arial">0</text>
<line x1="840.0" y1="70" x2="840.0" y2="540" stroke="#334155" stroke-width="1"/>
<text x="840.0" y="580" fill="#94a3b8" font-size="12" text-anchor="middle" font-family="Segoe UI, Arial">0.25</text>
<line x1="1000.0" y1="70" x2="1000.0" y2="540" stroke="#334155" stroke-width="1"/>
<text x="1000.0" y="580" fill="#94a3b8" font-size="12" text-anchor="middle" font-family="Segoe UI, Arial">0.5</text>
<line x1="1160.0" y1="70" x2="1160.0" y2="540" stroke="#334155" stroke-width="1"/>
<text x="1160.0" y="580" fill="#94a3b8" font-size="12" text-anchor="middle" font-family="Segoe UI, Arial">0.75</text>
<line x1="1320.0" y1="70" x2="1320.0" y2="540" stroke="#334155" stroke-width="1"/>
<text x="1320.0" y="580" fill="#94a3b8" font-size="12" text-anchor="middle" font-family="Segoe UI, Arial">1</text>
<text x="350" y="86.8" fill="#cbd5e1" font-size="11" text-anchor="end" font-family="Consolas, Menlo, monospace"> 1. reel/DXDougNoQU5/</text>
<rect x="680.0" y="73.8" width="320.0" height="16" fill="#22c55e" rx="3"/>
<text x="1006.0" y="86.8" fill="#e2e8f0" font-size="11" text-anchor="start" font-family="Consolas, Menlo, monospace">0.500</text>
<text x="350" y="110.2" fill="#cbd5e1" font-size="11" text-anchor="end" font-family="Consolas, Menlo, monospace"> 2. reel/DW9ebHtPnBL/</text>
<rect x="680.0" y="97.2" width="160.0" height="16" fill="#22c55e" rx="3"/>
<text x="846.0" y="110.2" fill="#e2e8f0" font-size="11" text-anchor="start" font-family="Consolas, Menlo, monospace">0.250</text>
<text x="350" y="133.8" fill="#cbd5e1" font-size="11" text-anchor="end" font-family="Consolas, Menlo, monospace"> 3. p/DW44MSXDd5n/</text>
<rect x="680.0" y="120.8" width="91.4" height="16" fill="#22c55e" rx="3"/>
<text x="777.4" y="133.8" fill="#e2e8f0" font-size="11" text-anchor="start" font-family="Consolas, Menlo, monospace">0.143</text>
<text x="350" y="157.2" fill="#cbd5e1" font-size="11" text-anchor="end" font-family="Consolas, Menlo, monospace"> 4. reel/DXACv8kmL-m/</text>
<rect x="680.0" y="144.2" width="73.8" height="16" fill="#22c55e" rx="3"/>
<text x="759.8" y="157.2" fill="#e2e8f0" font-size="11" text-anchor="start" font-family="Consolas, Menlo, monospace">0.115</text>
<text x="350" y="180.8" fill="#cbd5e1" font-size="11" text-anchor="end" font-family="Consolas, Menlo, monospace"> 5. reel/DW4VNdsDuPA/</text>
<rect x="680.0" y="167.8" width="40.0" height="16" fill="#22c55e" rx="3"/>
<text x="726.0" y="180.8" fill="#e2e8f0" font-size="11" text-anchor="start" font-family="Consolas, Menlo, monospace">0.062</text>
<text x="350" y="204.2" fill="#cbd5e1" font-size="11" text-anchor="end" font-family="Consolas, Menlo, monospace"> 6. reel/DW28Wv1kjmN/</text>
<rect x="680.0" y="191.2" width="1.0" height="16" fill="#22c55e" rx="3"/>
<text x="686.0" y="204.2" fill="#e2e8f0" font-size="11" text-anchor="start" font-family="Consolas, Menlo, monospace">0.000</text>
<text x="350" y="227.8" fill="#cbd5e1" font-size="11" text-anchor="end" font-family="Consolas, Menlo, monospace"> 7. reel/DW40azaiJZ1/</text>
<rect x="680.0" y="214.8" width="1.0" height="16" fill="#22c55e" rx="3"/>
<text x="686.0" y="227.8" fill="#e2e8f0" font-size="11" text-anchor="start" font-family="Consolas, Menlo, monospace">0.000</text>
<text x="350" y="251.2" fill="#cbd5e1" font-size="11" text-anchor="end" font-family="Consolas, Menlo, monospace"> 8. reel/DW3elyYjcp2/</text>
<rect x="680.0" y="238.2" width="1.0" height="16" fill="#22c55e" rx="3"/>
<text x="686.0" y="251.2" fill="#e2e8f0" font-size="11" text-anchor="start" font-family="Consolas, Menlo, monospace">0.000</text>
<text x="350" y="274.8" fill="#cbd5e1" font-size="11" text-anchor="end" font-family="Consolas, Menlo, monospace"> 9. reel/DXAK2BrkttL/</text>
<rect x="680.0" y="261.8" width="1.0" height="16" fill="#22c55e" rx="3"/>
<text x="686.0" y="274.8" fill="#e2e8f0" font-size="11" text-anchor="start" font-family="Consolas, Menlo, monospace">0.000</text>
<text x="350" y="298.2" fill="#cbd5e1" font-size="11" text-anchor="end" font-family="Consolas, Menlo, monospace">10. reel/DW3PN7dCL-0/</text>
<rect x="626.7" y="285.2" width="53.3" height="16" fill="#ef4444" rx="3"/>
<text x="620.7" y="298.2" fill="#e2e8f0" font-size="11" text-anchor="end" font-family="Consolas, Menlo, monospace">-0.083</text>
<text x="350" y="321.8" fill="#cbd5e1" font-size="11" text-anchor="end" font-family="Consolas, Menlo, monospace">11. reel/DW9SgHhuO6i/</text>
<rect x="587.6" y="308.8" width="92.4" height="16" fill="#ef4444" rx="3"/>
<text x="581.6" y="321.8" fill="#e2e8f0" font-size="11" text-anchor="end" font-family="Consolas, Menlo, monospace">-0.144</text>
<text x="350" y="345.2" fill="#cbd5e1" font-size="11" text-anchor="end" font-family="Consolas, Menlo, monospace">12. reel/DW_x3ZrO2Wz/</text>
<rect x="582.9" y="332.2" width="97.1" height="16" fill="#ef4444" rx="3"/>
<text x="576.9" y="345.2" fill="#e2e8f0" font-size="11" text-anchor="end" font-family="Consolas, Menlo, monospace">-0.152</text>
<text x="350" y="368.8" fill="#cbd5e1" font-size="11" text-anchor="end" font-family="Consolas, Menlo, monospace">13. reel/DW4F2bDCLLd/</text>
<rect x="578.2" y="355.8" width="101.8" height="16" fill="#ef4444" rx="3"/>
<text x="572.2" y="368.8" fill="#e2e8f0" font-size="11" text-anchor="end" font-family="Consolas, Menlo, monospace">-0.159</text>
<text x="350" y="392.2" fill="#cbd5e1" font-size="11" text-anchor="end" font-family="Consolas, Menlo, monospace">14. reel/DW20px2kiNY/</text>
<rect x="508.1" y="379.2" width="171.9" height="16" fill="#ef4444" rx="3"/>
<text x="502.1" y="392.2" fill="#e2e8f0" font-size="11" text-anchor="end" font-family="Consolas, Menlo, monospace">-0.269</text>
<text x="350" y="415.8" fill="#cbd5e1" font-size="11" text-anchor="end" font-family="Consolas, Menlo, monospace">15. reel/DXAkYV4DpiT/</text>
<rect x="507.7" y="402.8" width="172.3" height="16" fill="#ef4444" rx="3"/>
<text x="501.7" y="415.8" fill="#e2e8f0" font-size="11" text-anchor="end" font-family="Consolas, Menlo, monospace">-0.269</text>
<text x="350" y="439.2" fill="#cbd5e1" font-size="11" text-anchor="end" font-family="Consolas, Menlo, monospace">16. reel/DXCSL_Xjuxm/</text>
<rect x="488.0" y="426.2" width="192.0" height="16" fill="#ef4444" rx="3"/>
<text x="482.0" y="439.2" fill="#e2e8f0" font-size="11" text-anchor="end" font-family="Consolas, Menlo, monospace">-0.300</text>
<text x="350" y="462.8" fill="#cbd5e1" font-size="11" text-anchor="end" font-family="Consolas, Menlo, monospace">17. reel/DW34A7uCOwb/</text>
<rect x="420.3" y="449.8" width="259.7" height="16" fill="#ef4444" rx="3"/>
<text x="414.3" y="462.8" fill="#e2e8f0" font-size="11" text-anchor="end" font-family="Consolas, Menlo, monospace">-0.406</text>
<text x="350" y="486.2" fill="#cbd5e1" font-size="11" text-anchor="end" font-family="Consolas, Menlo, monospace">18. reel/DW9ZM2xki_o/</text>
<rect x="400.0" y="473.2" width="280.0" height="16" fill="#ef4444" rx="3"/>
<text x="394.0" y="486.2" fill="#e2e8f0" font-size="11" text-anchor="end" font-family="Consolas, Menlo, monospace">-0.438</text>
<text x="350" y="509.8" fill="#cbd5e1" font-size="11" text-anchor="end" font-family="Consolas, Menlo, monospace">19. reel/DW3hkdljRnT/</text>
<rect x="360.0" y="496.8" width="320.0" height="16" fill="#ef4444" rx="3"/>
<text x="354.0" y="509.8" fill="#e2e8f0" font-size="11" text-anchor="end" font-family="Consolas, Menlo, monospace">-0.500</text>
<text x="350" y="533.2" fill="#cbd5e1" font-size="11" text-anchor="end" font-family="Consolas, Menlo, monospace">20. reel/DW6w4h1j08o/</text>
<rect x="360.0" y="520.2" width="320.0" height="16" fill="#ef4444" rx="3"/>
<text x="354.0" y="533.2" fill="#e2e8f0" font-size="11" text-anchor="end" font-family="Consolas, Menlo, monospace">-0.500</text>
</svg>