<?xml version="1.0" encoding="utf-8" standalone="no"?>
<!DOCTYPE svg PUBLIC "-//W3C//DTD SVG 1.1//EN"
  "http://www.w3.org/Graphics/SVG/1.1/DTD/svg11.dtd">
<svg xmlns:xlink="http://www.w3.org/1999/xlink" width="576pt" height="504pt" viewBox="0 0 576 504" xmlns="http://www.w3.org/2000/svg" version="1.1">
 <metadata>
  <rdf:RDF xmlns:dc="http://purl.org/dc/elements/1.1/" xmlns:cc="http://creativecommons.org/ns#" xmlns:rdf="http://www.w3.org/1999/02/22-rdf-syntax-ns#">
   <cc:Work>
    <dc:type rdf:resource="http://purl.org/dc/dcmitype/StillImage"/>
    <dc:date>2026-04-15T14:25:32.378928</dc:date>
    <dc:format>image/svg+xml</dc:format>
    <dc:creator>
     <cc:Agent>
      <dc:title>Matplotlib v3.10.8, https://matplotlib.org/</dc:title>
     </cc:Agent>
    </dc:creator>
   </cc:Work>
  </rdf:RDF>
 </metadata>
 <defs>
  <style type="text/css">*{stroke-linejoin: round; stroke-linecap: butt}</style>
 </defs>
 <g id="figure_1">
  <g id="patch_1">
   <path d="M 0 504 
L 576 504 
L 576 0 
L 0 0 
z
" style="fill: #ffffff"/>
  </g>
  <g id="axes_1">
   <g id="patch_2">
    <path d="M 47.72 462.04 
L 565.2 462.04 
L 565.2 26.88 
L 47.72 26.88 
z
" style="fill: #ffffff"/>
   </g>
   <g id="PathCollection_1">
    <path d="M 136.964545 395.339764 
C 139.336594 395.339764 141.611809 394.397339 143.289101 392.720047 
C 144.966392 391.042755 145.908817 388.76754 145.908817 386.395492 
C 145.908817 384.023443 144.966392 381.748228 143.289101 380.070936 
C 141.611809 378.393645 139.336594 377.45122 136.964545 377.45122 
C 134.592497 377.45122 132.317282 378.393645 130.63999 380.070936 
C 128.962698 381.748228 128.020274 384.023443 128.020274 386.395492 
C 128.020274 388.76754 128.962698 391.042755 130.63999 392.720047 
C 132.317282 394.397339 134.592497 395.339764 136.964545 395.339764 
z
" clip-path="url(#pddb599ef63)" style="fill: #2a9d8f; fill-opacity: 0.55; stroke: #333333; stroke-opacity: 0.55; stroke-width: 0.5"/>
    <path d="M 541.678182 309.841373 
C 542.314117 309.841373 542.924091 309.588714 543.373764 309.13904 
C 543.823438 308.689366 544.076098 308.079392 544.076098 307.443457 
C 544.076098 306.807523 543.823438 306.197549 543.373764 305.747875 
C 542.924091 305.298201 542.314117 305.045542 541.678182 305.045542 
C 541.042247 305.045542 540.432273 305.298201 539.982599 305.747875 
C 539.532926 306.197549 539.280266 306.807523 539.280266 307.443457 
C 539.280266 308.079392 539.532926 308.689366 539.982599 309.13904 
C 540.432273 309.588714 541.042247 309.841373 541.678182 309.841373 
z
" clip-path="url(#pddb599ef63)" style="fill: #2a9d8f; fill-opacity: 0.55; stroke: #333333; stroke-opacity: 0.55; stroke-width: 0.5"/>
    <path d="M 71.241818 384.046136 
C 71.877753 384.046136 72.487727 383.793476 72.937401 383.343802 
C 73.387074 382.894129 73.639734 382.284155 73.639734 381.64822 
C 73.639734 381.012285 73.387074 380.402311 72.937401 379.952637 
C 72.487727 379.502964 71.877753 379.250304 71.241818 379.250304 
C 70.605883 379.250304 69.995909 379.502964 69.546236 379.952637 
C 69.096562 380.402311 68.843902 381.012285 68.843902 381.64822 
C 68.843902 382.284155 69.096562 382.894129 69.546236 383.343802 
C 69.995909 383.793476 70.605883 384.046136 71.241818 384.046136 
z
" clip-path="url(#pddb599ef63)" style="fill: #2a9d8f; fill-opacity: 0.55; stroke: #333333; stroke-opacity: 0.55; stroke-width: 0.5"/>
    <path d="M 71.241818 384.046136 
C 71.877753 384.046136 72.487727 383.793476 72.937401 383.343802 
C 73.387074 382.894129 73.639734 382.284155 73.639734 381.64822 
C 73.639734 381.012285 73.387074 380.402311 72.937401 379.952637 
C 72.487727 379.502964 71.877753 379.250304 71.241818 379.250304 
C 70.605883 379.250304 69.995909 379.502964 69.546236 379.952637 
C 69.096562 380.402311 68.843902 381.012285 68.843902 381.64822 
C 68.843902 382.284155 69.096562 382.894129 69.546236 383.343802 
C 69.995909 383.793476 70.605883 384.046136 71.241818 384.046136 
z
" clip-path="url(#pddb599ef63)" style="fill: #2a9d8f; fill-opacity: 0.55; stroke: #333333; stroke-opacity: 0.55; stroke-width: 0.5"/>
    <path d="M 71.241818 400.876111 
C 71.955899 400.876111 72.64083 400.592404 73.145761 400.087472 
C 73.650693 399.58254 73.934401 398.89761 73.934401 398.183529 
C 73.934401 397.469447 73.650693 396.784517 73.145761 396.279585 
C 72.64083 395.774654 71.955899 395.490946 71.241818 395.490946 
C 70.527737 395.490946 69.842807 395.774654 69.337875 396.279585 
C 68.832943 396.784517 68.549236 397.469447 68.549236 398.183529 
C 68.549236 398.89761 68.832943 399.58254 69.337875 400.087472 
C 69.842807 400.592404 70.527737 400.876111 71.241818 400.876111 
z
" clip-path="url(#pddb599ef63)" style="fill: #2a9d8f; fill-opacity: 0.55; stroke: #333333; stroke-opacity: 0.55; stroke-width: 0.5"/>
    <path d="M 280.954414 279.154889 
C 283.129241 279.154889 285.215286 278.290821 286.753121 276.752986 
C 288.290956 275.215151 289.155024 273.129106 289.155024 270.954279 
C 289.155024 268.779452 288.290956 266.693407 286.753121 265.155572 
C 285.215286 263.617737 283.129241 262.753669 280.954414 262.753669 
C 278.779587 262.753669 276.693542 263.617737 275.155707 265.155572 
C 273.617872 266.693407 272.753804 268.779452 272.753804 270.954279 
C 272.753804 273.129106 273.617872 275.215151 275.155707 276.752986 
C 276.693542 278.290821 278.779587 279.154889 280.954414 279.154889 
z
" clip-path="url(#pddb599ef63)" style="fill: #2a9d8f; fill-opacity: 0.55; stroke: #333333; stroke-opacity: 0.55; stroke-width: 0.5"/>
    <path d="M 71.241818 384.046136 
C 71.877753 384.046136 72.487727 383.793476 72.937401 383.343802 
C 73.387074 382.894129 73.639734 382.284155 73.639734 381.64822 
C 73.639734 381.012285 73.387074 380.402311 72.937401 379.952637 
C 72.487727 379.502964 71.877753 379.250304 71.241818 379.250304 
C 70.605883 379.250304 69.995909 379.502964 69.546236 379.952637 
C 69.096562 380.402311 68.843902 381.012285 68.843902 381.64822 
C 68.843902 382.284155 69.096562 382.894129 69.546236 383.343802 
C 69.995909 383.793476 70.605883 384.046136 71.241818 384.046136 
z
" clip-path="url(#pddb599ef63)" style="fill: #2a9d8f; fill-opacity: 0.55; stroke: #333333; stroke-opacity: 0.55; stroke-width: 0.5"/>
    <path d="M 71.241818 393.771244 
C 71.917956 393.771244 72.566492 393.502612 73.044594 393.02451 
C 73.522696 392.546408 73.791328 391.897872 73.791328 391.221734 
C 73.791328 390.545597 73.522696 389.89706 73.044594 389.418959 
C 72.566492 388.940857 71.917956 388.672225 71.241818 388.672225 
C 70.56568 388.672225 69.917144 388.940857 69.439043 389.418959 
C 68.960941 389.89706 68.692308 390.545597 68.692308 391.221734 
C 68.692308 391.897872 68.960941 392.546408 69.439043 393.02451 
C 69.917144 393.502612 70.56568 393.771244 71.241818 393.771244 
z
" clip-path="url(#pddb599ef63)" style="fill: #2a9d8f; fill-opacity: 0.55; stroke: #333333; stroke-opacity: 0.55; stroke-width: 0.5"/>
    <path d="M 71.241818 416.944429 
C 72.090882 416.944429 72.905285 416.607092 73.505664 416.006713 
C 74.106044 415.406334 74.44338 414.591931 74.44338 413.742867 
C 74.44338 412.893803 74.106044 412.0794 73.505664 411.479021 
C 72.905285 410.878642 72.090882 410.541305 71.241818 410.541305 
C 70.392754 410.541305 69.578351 410.878642 68.977972 411.479021 
C 68.377593 412.0794 68.040256 412.893803 68.040256 413.742867 
C 68.040256 414.591931 68.377593 415.406334 68.977972 416.006713 
C 69.578351 416.607092 70.392754 416.944429 71.241818 416.944429 
z
" clip-path="url(#pddb599ef63)" style="fill: #2a9d8f; fill-opacity: 0.55; stroke: #333333; stroke-opacity: 0.55; stroke-width: 0.5"/>
    <path d="M 71.241818 419.372093 
C 72.121397 419.372093 72.96507 419.022632 73.587026 418.400676 
C 74.208982 417.77872 74.558443 416.935047 74.558443 416.055468 
C 74.558443 415.175889 74.208982 414.332217 73.587026 413.71026 
C 72.96507 413.088304 72.121397 412.738843 71.241818 412.738843 
C 70.362239 412.738843 69.518567 413.088304 68.89661 413.71026 
C 68.274654 414.332217 67.925193 415.175889 67.925193 416.055468 
C 67.925193 416.935047 68.274654 417.77872 68.89661 418.400676 
C 69.518567 419.022632 70.362239 419.372093 71.241818 419.372093 
z
" clip-path="url(#pddb599ef63)" style="fill: #2a9d8f; fill-opacity: 0.55; stroke: #333333; stroke-opacity: 0.55; stroke-width: 0.5"/>
    <path d="M 541.678182 309.841373 
C 542.314117 309.841373 542.924091 309.588714 543.373764 309.13904 
C 543.823438 308.689366 544.076098 308.079392 544.076098 307.443457 
C 544.076098 306.807523 543.823438 306.197549 543.373764 305.747875 
C 542.924091 305.298201 542.314117 305.045542 541.678182 305.045542 
C 541.042247 305.045542 540.432273 305.298201 539.982599 305.747875 
C 539.532926 306.197549 539.280266 306.807523 539.280266 307.443457 
C 539.280266 308.079392 539.532926 308.689366 539.982599 309.13904 
C 540.432273 309.588714 541.042247 309.841373 541.678182 309.841373 
z
" clip-path="url(#pddb599ef63)" style="fill: #2a9d8f; fill-opacity: 0.55; stroke: #333333; stroke-opacity: 0.55; stroke-width: 0.5"/>
    <path d="M 306.46 331.286982 
C 307.136138 331.286982 307.784674 331.018349 308.262776 330.540248 
C 308.740877 330.062146 309.00951 329.41361 309.00951 328.737472 
C 309.00951 328.061334 308.740877 327.412798 308.262776 326.934696 
C 307.784674 326.456595 307.136138 326.187962 306.46 326.187962 
C 305.783862 326.187962 305.135326 326.456595 304.657224 326.934696 
C 304.179123 327.412798 303.91049 328.061334 303.91049 328.737472 
C 303.91049 329.41361 304.179123 330.062146 304.657224 330.540248 
C 305.135326 331.018349 305.783862 331.286982 306.46 331.286982 
z
" clip-path="url(#pddb599ef63)" style="fill: #2a9d8f; fill-opacity: 0.55; stroke: #333333; stroke-opacity: 0.55; stroke-width: 0.5"/>
    <path d="M 71.241818 384.046136 
C 71.877753 384.046136 72.487727 383.793476 72.937401 383.343802 
C 73.387074 382.894129 73.639734 382.284155 73.639734 381.64822 
C 73.639734 381.012285 73.387074 380.402311 72.937401 379.952637 
C 72.487727 379.502964 71.877753 379.250304 71.241818 379.250304 
C 70.605883 379.250304 69.995909 379.502964 69.546236 379.952637 
C 69.096562 380.402311 68.843902 381.012285 68.843902 381.64822 
C 68.843902 382.284155 69.096562 382.894129 69.546236 383.343802 
C 69.995909 383.793476 70.605883 384.046136 71.241818 384.046136 
z
" clip-path="url(#pddb599ef63)" style="fill: #2a9d8f; fill-opacity: 0.55; stroke: #333333; stroke-opacity: 0.55; stroke-width: 0.5"/>
    <path d="M 541.678182 238.992526 
C 542.392263 238.992526 543.077193 238.708819 543.582125 238.203887 
C 544.087057 237.698956 544.370764 237.014025 544.370764 236.299944 
C 544.370764 235.585863 544.087057 234.900932 543.582125 234.396001 
C 543.077193 233.891069 542.392263 233.607361 541.678182 233.607361 
C 540.964101 233.607361 540.27917 233.891069 539.774239 234.396001 
C 539.269307 234.900932 538.985599 235.585863 538.985599 236.299944 
C 538.985599 237.014025 539.269307 237.698956 539.774239 238.203887 
C 540.27917 238.708819 540.964101 238.992526 541.678182 238.992526 
z
" clip-path="url(#pddb599ef63)" style="fill: #2a9d8f; fill-opacity: 0.55; stroke: #333333; stroke-opacity: 0.55; stroke-width: 0.5"/>
    <path d="M 71.241818 384.046136 
C 71.877753 384.046136 72.487727 383.793476 72.937401 383.343802 
C 73.387074 382.894129 73.639734 382.284155 73.639734 381.64822 
C 73.639734 381.012285 73.387074 380.402311 72.937401 379.952637 
C 72.487727 379.502964 71.877753 379.250304 71.241818 379.250304 
C 70.605883 379.250304 69.995909 379.502964 69.546236 379.952637 
C 69.096562 380.402311 68.843902 381.012285 68.843902 381.64822 
C 68.843902 382.284155 69.096562 382.894129 69.546236 383.343802 
C 69.995909 383.793476 70.605883 384.046136 71.241818 384.046136 
z
" clip-path="url(#pddb599ef63)" style="fill: #2a9d8f; fill-opacity: 0.55; stroke: #333333; stroke-opacity: 0.55; stroke-width: 0.5"/>
    <path d="M 71.241818 384.046136 
C 71.877753 384.046136 72.487727 383.793476 72.937401 383.343802 
C 73.387074 382.894129 73.639734 382.284155 73.639734 381.64822 
C 73.639734 381.012285 73.387074 380.402311 72.937401 379.952637 
C 72.487727 379.502964 71.877753 379.250304 71.241818 379.250304 
C 70.605883 379.250304 69.995909 379.502964 69.546236 379.952637 
C 69.096562 380.402311 68.843902 381.012285 68.843902 381.64822 
C 68.843902 382.284155 69.096562 382.894129 69.546236 383.343802 
C 69.995909 383.793476 70.605883 384.046136 71.241818 384.046136 
z
" clip-path="url(#pddb599ef63)" style="fill: #2a9d8f; fill-opacity: 0.55; stroke: #333333; stroke-opacity: 0.55; stroke-width: 0.5"/>
    <path d="M 71.241818 384.046136 
C 71.877753 384.046136 72.487727 383.793476 72.937401 383.343802 
C 73.387074 382.894129 73.639734 382.284155 73.639734 381.64822 
C 73.639734 381.012285 73.387074 380.402311 72.937401 379.952637 
C 72.487727 379.502964 71.877753 379.250304 71.241818 379.250304 
C 70.605883 379.250304 69.995909 379.502964 69.546236 379.952637 
C 69.096562 380.402311 68.843902 381.012285 68.843902 381.64822 
C 68.843902 382.284155 69.096562 382.894129 69.546236 383.343802 
C 69.995909 383.793476 70.605883 384.046136 71.241818 384.046136 
z
" clip-path="url(#pddb599ef63)" style="fill: #2a9d8f; fill-opacity: 0.55; stroke: #333333; stroke-opacity: 0.55; stroke-width: 0.5"/>
    <path d="M 71.241818 384.046136 
C 71.877753 384.046136 72.487727 383.793476 72.937401 383.343802 
C 73.387074 382.894129 73.639734 382.284155 73.639734 381.64822 
C 73.639734 381.012285 73.387074 380.402311 72.937401 379.952637 
C 72.487727 379.502964 71.877753 379.250304 71.241818 379.250304 
C 70.605883 379.250304 69.995909 379.502964 69.546236 379.952637 
C 69.096562 380.402311 68.843902 381.012285 68.843902 381.64822 
C 68.843902 382.284155 69.096562 382.894129 69.546236 383.343802 
C 69.995909 383.793476 70.605883 384.046136 71.241818 384.046136 
z
" clip-path="url(#pddb599ef63)" style="fill: #2a9d8f; fill-opacity: 0.55; stroke: #333333; stroke-opacity: 0.55; stroke-width: 0.5"/>
    <path d="M 228.053939 346.914916 
C 228.768021 346.914916 229.452951 346.631209 229.957883 346.126277 
C 230.462814 345.621345 230.746522 344.936415 230.746522 344.222334 
C 230.746522 343.508253 230.462814 342.823322 229.957883 342.31839 
C 229.452951 341.813459 228.768021 341.529751 228.053939 341.529751 
C 227.339858 341.529751 226.654928 341.813459 226.149996 342.31839 
C 225.645064 342.823322 225.361357 343.508253 225.361357 344.222334 
C 225.361357 344.936415 225.645064 345.621345 226.149996 346.126277 
C 226.654928 346.631209 227.339858 346.914916 228.053939 346.914916 
z
" clip-path="url(#pddb599ef63)" style="fill: #2a9d8f; fill-opacity: 0.55; stroke: #333333; stroke-opacity: 0.55; stroke-width: 0.5"/>
    <path d="M 71.241818 393.771244 
C 71.917956 393.771244 72.566492 393.502612 73.044594 393.02451 
C 73.522696 392.546408 73.791328 391.897872 73.791328 391.221734 
C 73.791328 390.545597 73.522696 389.89706 73.044594 389.418959 
C 72.566492 388.940857 71.917956 388.672225 71.241818 388.672225 
C 70.56568 388.672225 69.917144 388.940857 69.439043 389.418959 
C 68.960941 389.89706 68.692308 390.545597 68.692308 391.221734 
C 68.692308 391.897872 68.960941 392.546408 69.439043 393.02451 
C 69.917144 393.502612 70.56568 393.771244 71.241818 393.771244 
z
" clip-path="url(#pddb599ef63)" style="fill: #2a9d8f; fill-opacity: 0.55; stroke: #333333; stroke-opacity: 0.55; stroke-width: 0.5"/>
    <path d="M 129.385638 400.642962 
C 131.632051 400.642962 133.786759 399.750453 135.375213 398.161999 
C 136.963666 396.573546 137.856176 394.418838 137.856176 392.172425 
C 137.856176 389.926012 136.963666 387.771305 135.375213 386.182851 
C 133.786759 384.594397 131.632051 383.701888 129.385638 383.701888 
C 127.139226 383.701888 124.984518 384.594397 123.396064 386.182851 
C 121.80761 387.771305 120.915101 389.926012 120.915101 392.172425 
C 120.915101 394.418838 121.80761 396.573546 123.396064 398.161999 
C 124.984518 399.750453 127.139226 400.642962 129.385638 400.642962 
z
" clip-path="url(#pddb599ef63)" style="fill: #2a9d8f; fill-opacity: 0.55; stroke: #333333; stroke-opacity: 0.55; stroke-width: 0.5"/>
    <path d="M 228.053939 321.535638 
C 229.752068 321.535638 231.380874 320.860964 232.581632 319.660206 
C 233.78239 318.459448 234.457064 316.830642 234.457064 315.132514 
C 234.457064 313.434385 233.78239 311.805579 232.581632 310.604821 
C 231.380874 309.404063 229.752068 308.72939 228.053939 308.72939 
C 226.355811 308.72939 224.727005 309.404063 223.526247 310.604821 
C 222.325489 311.805579 221.650815 313.434385 221.650815 315.132514 
C 221.650815 316.830642 222.325489 318.459448 223.526247 319.660206 
C 224.727005 320.860964 226.355811 321.535638 228.053939 321.535638 
z
" clip-path="url(#pddb599ef63)" style="fill: #2a9d8f; fill-opacity: 0.55; stroke: #333333; stroke-opacity: 0.55; stroke-width: 0.5"/>
    <path d="M 384.866061 292.953721 
C 385.580142 292.953721 386.265072 292.670014 386.770004 292.165082 
C 387.274936 291.66015 387.558643 290.97522 387.558643 290.261139 
C 387.558643 289.547058 387.274936 288.862127 386.770004 288.357196 
C 386.265072 287.852264 385.580142 287.568556 384.866061 287.568556 
C 384.151979 287.568556 383.467049 287.852264 382.962117 288.357196 
C 382.457186 288.862127 382.173478 289.547058 382.173478 290.261139 
C 382.173478 290.97522 382.457186 291.66015 382.962117 292.165082 
C 383.467049 292.670014 384.151979 292.953721 384.866061 292.953721 
z
" clip-path="url(#pddb599ef63)" style="fill: #2a9d8f; fill-opacity: 0.55; stroke: #333333; stroke-opacity: 0.55; stroke-width: 0.5"/>
    <path d="M 71.241818 384.046136 
C 71.877753 384.046136 72.487727 383.793476 72.937401 383.343802 
C 73.387074 382.894129 73.639734 382.284155 73.639734 381.64822 
C 73.639734 381.012285 73.387074 380.402311 72.937401 379.952637 
C 72.487727 379.502964 71.877753 379.250304 71.241818 379.250304 
C 70.605883 379.250304 69.995909 379.502964 69.546236 379.952637 
C 69.096562 380.402311 68.843902 381.012285 68.843902 381.64822 
C 68.843902 382.284155 69.096562 382.894129 69.546236 383.343802 
C 69.995909 383.793476 70.605883 384.046136 71.241818 384.046136 
z
" clip-path="url(#pddb599ef63)" style="fill: #2a9d8f; fill-opacity: 0.55; stroke: #333333; stroke-opacity: 0.55; stroke-width: 0.5"/>
    <path d="M 81.69596 433.915402 
C 83.346836 433.915402 84.930318 433.259502 86.097664 432.092157 
C 87.265009 430.924811 87.920909 429.341329 87.920909 427.690453 
C 87.920909 426.039577 87.265009 424.456094 86.097664 423.288748 
C 84.930318 422.121403 83.346836 421.465503 81.69596 421.465503 
C 80.045084 421.465503 78.461601 422.121403 77.294255 423.288748 
C 76.12691 424.456094 75.47101 426.039577 75.47101 427.690453 
C 75.47101 429.341329 76.12691 430.924811 77.294255 432.092157 
C 78.461601 433.259502 80.045084 433.915402 81.69596 433.915402 
z
" clip-path="url(#pddb599ef63)" style="fill: #2a9d8f; fill-opacity: 0.55; stroke: #333333; stroke-opacity: 0.55; stroke-width: 0.5"/>
    <path d="M 228.053939 329.32108 
C 229.046239 329.32108 229.998029 328.926835 230.699691 328.225174 
C 231.401352 327.523512 231.795597 326.571722 231.795597 325.579423 
C 231.795597 324.587123 231.401352 323.635333 230.699691 322.933671 
C 229.998029 322.23201 229.046239 321.837765 228.053939 321.837765 
C 227.06164 321.837765 226.10985 322.23201 225.408188 322.933671 
C 224.706527 323.635333 224.312282 324.587123 224.312282 325.579423 
C 224.312282 326.571722 224.706527 327.523512 225.408188 328.225174 
C 226.10985 328.926835 227.06164 329.32108 228.053939 329.32108 
z
" clip-path="url(#pddb599ef63)" style="fill: #2a9d8f; fill-opacity: 0.55; stroke: #333333; stroke-opacity: 0.55; stroke-width: 0.5"/>
    <path d="M 71.241818 384.046136 
C 71.877753 384.046136 72.487727 383.793476 72.937401 383.343802 
C 73.387074 382.894129 73.639734 382.284155 73.639734 381.64822 
C 73.639734 381.012285 73.387074 380.402311 72.937401 379.952637 
C 72.487727 379.502964 71.877753 379.250304 71.241818 379.250304 
C 70.605883 379.250304 69.995909 379.502964 69.546236 379.952637 
C 69.096562 380.402311 68.843902 381.012285 68.843902 381.64822 
C 68.843902 382.284155 69.096562 382.894129 69.546236 383.343802 
C 69.995909 383.793476 70.605883 384.046136 71.241818 384.046136 
z
" clip-path="url(#pddb599ef63)" style="fill: #2a9d8f; fill-opacity: 0.55; stroke: #333333; stroke-opacity: 0.55; stroke-width: 0.5"/>
    <path d="M 424.069091 263.849924 
C 424.819199 263.849924 425.538685 263.551903 426.069091 263.021497 
C 426.599497 262.49109 426.897518 261.771604 426.897518 261.021497 
C 426.897518 260.271389 426.599497 259.551903 426.069091 259.021497 
C 425.538685 258.49109 424.819199 258.193069 424.069091 258.193069 
C 423.318983 258.193069 422.599497 258.49109 422.069091 259.021497 
C 421.538685 259.551903 421.240664 260.271389 421.240664 261.021497 
C 421.240664 261.771604 421.538685 262.49109 422.069091 263.021497 
C 422.599497 263.551903 423.318983 263.849924 424.069091 263.849924 
z
" clip-path="url(#pddb599ef63)" style="fill: #2a9d8f; fill-opacity: 0.55; stroke: #333333; stroke-opacity: 0.55; stroke-width: 0.5"/>
    <path d="M 541.678182 309.841373 
C 542.314117 309.841373 542.924091 309.588714 543.373764 309.13904 
C 543.823438 308.689366 544.076098 308.079392 544.076098 307.443457 
C 544.076098 306.807523 543.823438 306.197549 543.373764 305.747875 
C 542.924091 305.298201 542.314117 305.045542 541.678182 305.045542 
C 541.042247 305.045542 540.432273 305.298201 539.982599 305.747875 
C 539.532926 306.197549 539.280266 306.807523 539.280266 307.443457 
C 539.280266 308.079392 539.532926 308.689366 539.982599 309.13904 
C 540.432273 309.588714 541.042247 309.841373 541.678182 309.841373 
z
" clip-path="url(#pddb599ef63)" style="fill: #2a9d8f; fill-opacity: 0.55; stroke: #333333; stroke-opacity: 0.55; stroke-width: 0.5"/>
    <path d="M 306.46 331.286982 
C 307.136138 331.286982 307.784674 331.018349 308.262776 330.540248 
C 308.740877 330.062146 309.00951 329.41361 309.00951 328.737472 
C 309.00951 328.061334 308.740877 327.412798 308.262776 326.934696 
C 307.784674 326.456595 307.136138 326.187962 306.46 326.187962 
C 305.783862 326.187962 305.135326 326.456595 304.657224 326.934696 
C 304.179123 327.412798 303.91049 328.061334 303.91049 328.737472 
C 303.91049 329.41361 304.179123 330.062146 304.657224 330.540248 
C 305.135326 331.018349 305.783862 331.286982 306.46 331.286982 
z
" clip-path="url(#pddb599ef63)" style="fill: #2a9d8f; fill-opacity: 0.55; stroke: #333333; stroke-opacity: 0.55; stroke-width: 0.5"/>
    <path d="M 71.241818 384.046136 
C 71.877753 384.046136 72.487727 383.793476 72.937401 383.343802 
C 73.387074 382.894129 73.639734 382.284155 73.639734 381.64822 
C 73.639734 381.012285 73.387074 380.402311 72.937401 379.952637 
C 72.487727 379.502964 71.877753 379.250304 71.241818 379.250304 
C 70.605883 379.250304 69.995909 379.502964 69.546236 379.952637 
C 69.096562 380.402311 68.843902 381.012285 68.843902 381.64822 
C 68.843902 382.284155 69.096562 382.894129 69.546236 383.343802 
C 69.995909 383.793476 70.605883 384.046136 71.241818 384.046136 
z
" clip-path="url(#pddb599ef63)" style="fill: #2a9d8f; fill-opacity: 0.55; stroke: #333333; stroke-opacity: 0.55; stroke-width: 0.5"/>
    <path d="M 71.241818 384.046136 
C 71.877753 384.046136 72.487727 383.793476 72.937401 383.343802 
C 73.387074 382.894129 73.639734 382.284155 73.639734 381.64822 
C 73.639734 381.012285 73.387074 380.402311 72.937401 379.952637 
C 72.487727 379.502964 71.877753 379.250304 71.241818 379.250304 
C 70.605883 379.250304 69.995909 379.502964 69.546236 379.952637 
C 69.096562 380.402311 68.843902 381.012285 68.843902 381.64822 
C 68.843902 382.284155 69.096562 382.894129 69.546236 383.343802 
C 69.995909 383.793476 70.605883 384.046136 71.241818 384.046136 
z
" clip-path="url(#pddb599ef63)" style="fill: #2a9d8f; fill-opacity: 0.55; stroke: #333333; stroke-opacity: 0.55; stroke-width: 0.5"/>
    <path d="M 228.053939 346.914916 
C 228.768021 346.914916 229.452951 346.631209 229.957883 346.126277 
C 230.462814 345.621345 230.746522 344.936415 230.746522 344.222334 
C 230.746522 343.508253 230.462814 342.823322 229.957883 342.31839 
C 229.452951 341.813459 228.768021 341.529751 228.053939 341.529751 
C 227.339858 341.529751 226.654928 341.813459 226.149996 342.31839 
C 225.645064 342.823322 225.361357 343.508253 225.361357 344.222334 
C 225.361357 344.936415 225.645064 345.621345 226.149996 346.126277 
C 226.654928 346.631209 227.339858 346.914916 228.053939 346.914916 
z
" clip-path="url(#pddb599ef63)" style="fill: #2a9d8f; fill-opacity: 0.55; stroke: #333333; stroke-opacity: 0.55; stroke-width: 0.5"/>
    <path d="M 541.678182 309.841373 
C 542.314117 309.841373 542.924091 309.588714 543.373764 309.13904 
C 543.823438 308.689366 544.076098 308.079392 544.076098 307.443457 
C 544.076098 306.807523 543.823438 306.197549 543.373764 305.747875 
C 542.924091 305.298201 542.314117 305.045542 541.678182 305.045542 
C 541.042247 305.045542 540.432273 305.298201 539.982599 305.747875 
C 539.532926 306.197549 539.280266 306.807523 539.280266 307.443457 
C 539.280266 308.079392 539.532926 308.689366 539.982599 309.13904 
C 540.432273 309.588714 541.042247 309.841373 541.678182 309.841373 
z
" clip-path="url(#pddb599ef63)" style="fill: #2a9d8f; fill-opacity: 0.55; stroke: #333333; stroke-opacity: 0.55; stroke-width: 0.5"/>
    <path d="M 541.678182 309.841373 
C 542.314117 309.841373 542.924091 309.588714 543.373764 309.13904 
C 543.823438 308.689366 544.076098 308.079392 544.076098 307.443457 
C 544.076098 306.807523 543.823438 306.197549 543.373764 305.747875 
C 542.924091 305.298201 542.314117 305.045542 541.678182 305.045542 
C 541.042247 305.045542 540.432273 305.298201 539.982599 305.747875 
C 539.532926 306.197549 539.280266 306.807523 539.280266 307.443457 
C 539.280266 308.079392 539.532926 308.689366 539.982599 309.13904 
C 540.432273 309.588714 541.042247 309.841373 541.678182 309.841373 
z
" clip-path="url(#pddb599ef63)" style="fill: #2a9d8f; fill-opacity: 0.55; stroke: #333333; stroke-opacity: 0.55; stroke-width: 0.5"/>
    <path d="M 71.241818 384.046136 
C 71.877753 384.046136 72.487727 383.793476 72.937401 383.343802 
C 73.387074 382.894129 73.639734 382.284155 73.639734 381.64822 
C 73.639734 381.012285 73.387074 380.402311 72.937401 379.952637 
C 72.487727 379.502964 71.877753 379.250304 71.241818 379.250304 
C 70.605883 379.250304 69.995909 379.502964 69.546236 379.952637 
C 69.096562 380.402311 68.843902 381.012285 68.843902 381.64822 
C 68.843902 382.284155 69.096562 382.894129 69.546236 383.343802 
C 69.995909 383.793476 70.605883 384.046136 71.241818 384.046136 
z
" clip-path="url(#pddb599ef63)" style="fill: #2a9d8f; fill-opacity: 0.55; stroke: #333333; stroke-opacity: 0.55; stroke-width: 0.5"/>
    <path d="M 71.241818 400.876111 
C 71.955899 400.876111 72.64083 400.592404 73.145761 400.087472 
C 73.650693 399.58254 73.934401 398.89761 73.934401 398.183529 
C 73.934401 397.469447 73.650693 396.784517 73.145761 396.279585 
C 72.64083 395.774654 71.955899 395.490946 71.241818 395.490946 
C 70.527737 395.490946 69.842807 395.774654 69.337875 396.279585 
C 68.832943 396.784517 68.549236 397.469447 68.549236 398.183529 
C 68.549236 398.89761 68.832943 399.58254 69.337875 400.087472 
C 69.842807 400.592404 70.527737 400.876111 71.241818 400.876111 
z
" clip-path="url(#pddb599ef63)" style="fill: #2a9d8f; fill-opacity: 0.55; stroke: #333333; stroke-opacity: 0.55; stroke-width: 0.5"/>
    <path d="M 340.062597 277.294541 
C 340.911662 277.294541 341.726065 276.957205 342.326444 276.356826 
C 342.926823 275.756447 343.26416 274.942044 343.26416 274.092979 
C 343.26416 273.243915 342.926823 272.429512 342.326444 271.829133 
C 341.726065 271.228754 340.911662 270.891417 340.062597 270.891417 
C 339.213533 270.891417 338.39913 271.228754 337.798751 271.829133 
C 337.198372 272.429512 336.861035 273.243915 336.861035 274.092979 
C 336.861035 274.942044 337.198372 275.756447 337.798751 276.356826 
C 338.39913 276.957205 339.213533 277.294541 340.062597 277.294541 
z
" clip-path="url(#pddb599ef63)" style="fill: #2a9d8f; fill-opacity: 0.55; stroke: #333333; stroke-opacity: 0.55; stroke-width: 0.5"/>
    <path d="M 118.285455 395.643874 
C 119.223089 395.643874 120.122447 395.271348 120.785455 394.608341 
C 121.448462 393.945333 121.820988 393.045975 121.820988 392.108341 
C 121.820988 391.170706 121.448462 390.271348 120.785455 389.608341 
C 120.122447 388.945333 119.223089 388.572807 118.285455 388.572807 
C 117.34782 388.572807 116.448462 388.945333 115.785455 389.608341 
C 115.122447 390.271348 114.749921 391.170706 114.749921 392.108341 
C 114.749921 393.045975 115.122447 393.945333 115.785455 394.608341 
C 116.448462 395.271348 117.34782 395.643874 118.285455 395.643874 
z
" clip-path="url(#pddb599ef63)" style="fill: #2a9d8f; fill-opacity: 0.55; stroke: #333333; stroke-opacity: 0.55; stroke-width: 0.5"/>
    <path d="M 71.241818 384.046136 
C 71.877753 384.046136 72.487727 383.793476 72.937401 383.343802 
C 73.387074 382.894129 73.639734 382.284155 73.639734 381.64822 
C 73.639734 381.012285 73.387074 380.402311 72.937401 379.952637 
C 72.487727 379.502964 71.877753 379.250304 71.241818 379.250304 
C 70.605883 379.250304 69.995909 379.502964 69.546236 379.952637 
C 69.096562 380.402311 68.843902 381.012285 68.843902 381.64822 
C 68.843902 382.284155 69.096562 382.894129 69.546236 383.343802 
C 69.995909 383.793476 70.605883 384.046136 71.241818 384.046136 
z
" clip-path="url(#pddb599ef63)" style="fill: #2a9d8f; fill-opacity: 0.55; stroke: #333333; stroke-opacity: 0.55; stroke-width: 0.5"/>
    <path d="M 71.241818 384.046136 
C 71.877753 384.046136 72.487727 383.793476 72.937401 383.343802 
C 73.387074 382.894129 73.639734 382.284155 73.639734 381.64822 
C 73.639734 381.012285 73.387074 380.402311 72.937401 379.952637 
C 72.487727 379.502964 71.877753 379.250304 71.241818 379.250304 
C 70.605883 379.250304 69.995909 379.502964 69.546236 379.952637 
C 69.096562 380.402311 68.843902 381.012285 68.843902 381.64822 
C 68.843902 382.284155 69.096562 382.894129 69.546236 383.343802 
C 69.995909 383.793476 70.605883 384.046136 71.241818 384.046136 
z
" clip-path="url(#pddb599ef63)" style="fill: #2a9d8f; fill-opacity: 0.55; stroke: #333333; stroke-opacity: 0.55; stroke-width: 0.5"/>
    <path d="M 71.241818 393.771244 
C 71.917956 393.771244 72.566492 393.502612 73.044594 393.02451 
C 73.522696 392.546408 73.791328 391.897872 73.791328 391.221734 
C 73.791328 390.545597 73.522696 389.89706 73.044594 389.418959 
C 72.566492 388.940857 71.917956 388.672225 71.241818 388.672225 
C 70.56568 388.672225 69.917144 388.940857 69.439043 389.418959 
C 68.960941 389.89706 68.692308 390.545597 68.692308 391.221734 
C 68.692308 391.897872 68.960941 392.546408 69.439043 393.02451 
C 69.917144 393.502612 70.56568 393.771244 71.241818 393.771244 
z
" clip-path="url(#pddb599ef63)" style="fill: #2a9d8f; fill-opacity: 0.55; stroke: #333333; stroke-opacity: 0.55; stroke-width: 0.5"/>
    <path d="M 71.241818 400.876111 
C 71.955899 400.876111 72.64083 400.592404 73.145761 400.087472 
C 73.650693 399.58254 73.934401 398.89761 73.934401 398.183529 
C 73.934401 397.469447 73.650693 396.784517 73.145761 396.279585 
C 72.64083 395.774654 71.955899 395.490946 71.241818 395.490946 
C 70.527737 395.490946 69.842807 395.774654 69.337875 396.279585 
C 68.832943 396.784517 68.549236 397.469447 68.549236 398.183529 
C 68.549236 398.89761 68.832943 399.58254 69.337875 400.087472 
C 69.842807 400.592404 70.527737 400.876111 71.241818 400.876111 
z
" clip-path="url(#pddb599ef63)" style="fill: #2a9d8f; fill-opacity: 0.55; stroke: #333333; stroke-opacity: 0.55; stroke-width: 0.5"/>
    <path d="M 71.241818 400.876111 
C 71.955899 400.876111 72.64083 400.592404 73.145761 400.087472 
C 73.650693 399.58254 73.934401 398.89761 73.934401 398.183529 
C 73.934401 397.469447 73.650693 396.784517 73.145761 396.279585 
C 72.64083 395.774654 71.955899 395.490946 71.241818 395.490946 
C 70.527737 395.490946 69.842807 395.774654 69.337875 396.279585 
C 68.832943 396.784517 68.549236 397.469447 68.549236 398.183529 
C 68.549236 398.89761 68.832943 399.58254 69.337875 400.087472 
C 69.842807 400.592404 70.527737 400.876111 71.241818 400.876111 
z
" clip-path="url(#pddb599ef63)" style="fill: #2a9d8f; fill-opacity: 0.55; stroke: #333333; stroke-opacity: 0.55; stroke-width: 0.5"/>
    <path d="M 71.241818 393.771244 
C 71.917956 393.771244 72.566492 393.502612 73.044594 393.02451 
C 73.522696 392.546408 73.791328 391.897872 73.791328 391.221734 
C 73.791328 390.545597 73.522696 389.89706 73.044594 389.418959 
C 72.566492 388.940857 71.917956 388.672225 71.241818 388.672225 
C 70.56568 388.672225 69.917144 388.940857 69.439043 389.418959 
C 68.960941 389.89706 68.692308 390.545597 68.692308 391.221734 
C 68.692308 391.897872 68.960941 392.546408 69.439043 393.02451 
C 69.917144 393.502612 70.56568 393.771244 71.241818 393.771244 
z
" clip-path="url(#pddb599ef63)" style="fill: #2a9d8f; fill-opacity: 0.55; stroke: #333333; stroke-opacity: 0.55; stroke-width: 0.5"/>
    <path d="M 541.678182 309.841373 
C 542.314117 309.841373 542.924091 309.588714 543.373764 309.13904 
C 543.823438 308.689366 544.076098 308.079392 544.076098 307.443457 
C 544.076098 306.807523 543.823438 306.197549 543.373764 305.747875 
C 542.924091 305.298201 542.314117 305.045542 541.678182 305.045542 
C 541.042247 305.045542 540.432273 305.298201 539.982599 305.747875 
C 539.532926 306.197549 539.280266 306.807523 539.280266 307.443457 
C 539.280266 308.079392 539.532926 308.689366 539.982599 309.13904 
C 540.432273 309.588714 541.042247 309.841373 541.678182 309.841373 
z
" clip-path="url(#pddb599ef63)" style="fill: #2a9d8f; fill-opacity: 0.55; stroke: #333333; stroke-opacity: 0.55; stroke-width: 0.5"/>
    <path d="M 71.241818 384.046136 
C 71.877753 384.046136 72.487727 383.793476 72.937401 383.343802 
C 73.387074 382.894129 73.639734 382.284155 73.639734 381.64822 
C 73.639734 381.012285 73.387074 380.402311 72.937401 379.952637 
C 72.487727 379.502964 71.877753 379.250304 71.241818 379.250304 
C 70.605883 379.250304 69.995909 379.502964 69.546236 379.952637 
C 69.096562 380.402311 68.843902 381.012285 68.843902 381.64822 
C 68.843902 382.284155 69.096562 382.894129 69.546236 383.343802 
C 69.995909 383.793476 70.605883 384.046136 71.241818 384.046136 
z
" clip-path="url(#pddb599ef63)" style="fill: #2a9d8f; fill-opacity: 0.55; stroke: #333333; stroke-opacity: 0.55; stroke-width: 0.5"/>
    <path d="M 541.678182 309.841373 
C 542.314117 309.841373 542.924091 309.588714 543.373764 309.13904 
C 543.823438 308.689366 544.076098 308.079392 544.076098 307.443457 
C 544.076098 306.807523 543.823438 306.197549 543.373764 305.747875 
C 542.924091 305.298201 542.314117 305.045542 541.678182 305.045542 
C 541.042247 305.045542 540.432273 305.298201 539.982599 305.747875 
C 539.532926 306.197549 539.280266 306.807523 539.280266 307.443457 
C 539.280266 308.079392 539.532926 308.689366 539.982599 309.13904 
C 540.432273 309.588714 541.042247 309.841373 541.678182 309.841373 
z
" clip-path="url(#pddb599ef63)" style="fill: #2a9d8f; fill-opacity: 0.55; stroke: #333333; stroke-opacity: 0.55; stroke-width: 0.5"/>
    <path d="M 188.850909 358.818301 
C 189.601017 358.818301 190.320503 358.520281 190.850909 357.989874 
C 191.381315 357.459468 191.679336 356.739982 191.679336 355.989874 
C 191.679336 355.239767 191.381315 354.520281 190.850909 353.989874 
C 190.320503 353.459468 189.601017 353.161447 188.850909 353.161447 
C 188.100801 353.161447 187.381315 353.459468 186.850909 353.989874 
C 186.320503 354.520281 186.022482 355.239767 186.022482 355.989874 
C 186.022482 356.739982 186.320503 357.459468 186.850909 357.989874 
C 187.381315 358.520281 188.100801 358.818301 188.850909 358.818301 
z
" clip-path="url(#pddb599ef63)" style="fill: #2a9d8f; fill-opacity: 0.55; stroke: #333333; stroke-opacity: 0.55; stroke-width: 0.5"/>
    <path d="M 71.241818 393.771244 
C 71.917956 393.771244 72.566492 393.502612 73.044594 393.02451 
C 73.522696 392.546408 73.791328 391.897872 73.791328 391.221734 
C 73.791328 390.545597 73.522696 389.89706 73.044594 389.418959 
C 72.566492 388.940857 71.917956 388.672225 71.241818 388.672225 
C 70.56568 388.672225 69.917144 388.940857 69.439043 389.418959 
C 68.960941 389.89706 68.692308 390.545597 68.692308 391.221734 
C 68.692308 391.897872 68.960941 392.546408 69.439043 393.02451 
C 69.917144 393.502612 70.56568 393.771244 71.241818 393.771244 
z
" clip-path="url(#pddb599ef63)" style="fill: #2a9d8f; fill-opacity: 0.55; stroke: #333333; stroke-opacity: 0.55; stroke-width: 0.5"/>
    <path d="M 306.46 331.286982 
C 307.136138 331.286982 307.784674 331.018349 308.262776 330.540248 
C 308.740877 330.062146 309.00951 329.41361 309.00951 328.737472 
C 309.00951 328.061334 308.740877 327.412798 308.262776 326.934696 
C 307.784674 326.456595 307.136138 326.187962 306.46 326.187962 
C 305.783862 326.187962 305.135326 326.456595 304.657224 326.934696 
C 304.179123 327.412798 303.91049 328.061334 303.91049 328.737472 
C 303.91049 329.41361 304.179123 330.062146 304.657224 330.540248 
C 305.135326 331.018349 305.783862 331.286982 306.46 331.286982 
z
" clip-path="url(#pddb599ef63)" style="fill: #2a9d8f; fill-opacity: 0.55; stroke: #333333; stroke-opacity: 0.55; stroke-width: 0.5"/>
    <path d="M 71.241818 406.30249 
C 71.991926 406.30249 72.711412 406.004469 73.241818 405.474063 
C 73.772224 404.943657 74.070245 404.224171 74.070245 403.474063 
C 74.070245 402.723956 73.772224 402.004469 73.241818 401.474063 
C 72.711412 400.943657 71.991926 400.645636 71.241818 400.645636 
C 70.491711 400.645636 69.772224 400.943657 69.241818 401.474063 
C 68.711412 402.004469 68.413391 402.723956 68.413391 403.474063 
C 68.413391 404.224171 68.711412 404.943657 69.241818 405.474063 
C 69.772224 406.004469 70.491711 406.30249 71.241818 406.30249 
z
" clip-path="url(#pddb599ef63)" style="fill: #2a9d8f; fill-opacity: 0.55; stroke: #333333; stroke-opacity: 0.55; stroke-width: 0.5"/>
    <path d="M 71.241818 384.046136 
C 71.877753 384.046136 72.487727 383.793476 72.937401 383.343802 
C 73.387074 382.894129 73.639734 382.284155 73.639734 381.64822 
C 73.639734 381.012285 73.387074 380.402311 72.937401 379.952637 
C 72.487727 379.502964 71.877753 379.250304 71.241818 379.250304 
C 70.605883 379.250304 69.995909 379.502964 69.546236 379.952637 
C 69.096562 380.402311 68.843902 381.012285 68.843902 381.64822 
C 68.843902 382.284155 69.096562 382.894129 69.546236 383.343802 
C 69.995909 383.793476 70.605883 384.046136 71.241818 384.046136 
z
" clip-path="url(#pddb599ef63)" style="fill: #2a9d8f; fill-opacity: 0.55; stroke: #333333; stroke-opacity: 0.55; stroke-width: 0.5"/>
    <path d="M 71.241818 384.046136 
C 71.877753 384.046136 72.487727 383.793476 72.937401 383.343802 
C 73.387074 382.894129 73.639734 382.284155 73.639734 381.64822 
C 73.639734 381.012285 73.387074 380.402311 72.937401 379.952637 
C 72.487727 379.502964 71.877753 379.250304 71.241818 379.250304 
C 70.605883 379.250304 69.995909 379.502964 69.546236 379.952637 
C 69.096562 380.402311 68.843902 381.012285 68.843902 381.64822 
C 68.843902 382.284155 69.096562 382.894129 69.546236 383.343802 
C 69.995909 383.793476 70.605883 384.046136 71.241818 384.046136 
z
" clip-path="url(#pddb599ef63)" style="fill: #2a9d8f; fill-opacity: 0.55; stroke: #333333; stroke-opacity: 0.55; stroke-width: 0.5"/>
    <path d="M 541.678182 309.841373 
C 542.314117 309.841373 542.924091 309.588714 543.373764 309.13904 
C 543.823438 308.689366 544.076098 308.079392 544.076098 307.443457 
C 544.076098 306.807523 543.823438 306.197549 543.373764 305.747875 
C 542.924091 305.298201 542.314117 305.045542 541.678182 305.045542 
C 541.042247 305.045542 540.432273 305.298201 539.982599 305.747875 
C 539.532926 306.197549 539.280266 306.807523 539.280266 307.443457 
C 539.280266 308.079392 539.532926 308.689366 539.982599 309.13904 
C 540.432273 309.588714 541.042247 309.841373 541.678182 309.841373 
z
" clip-path="url(#pddb599ef63)" style="fill: #2a9d8f; fill-opacity: 0.55; stroke: #333333; stroke-opacity: 0.55; stroke-width: 0.5"/>
    <path d="M 205.652208 347.119485 
C 206.501272 347.119485 207.315675 346.782149 207.916054 346.181769 
C 208.516433 345.58139 208.85377 344.766987 208.85377 343.917923 
C 208.85377 343.068859 208.516433 342.254456 207.916054 341.654077 
C 207.315675 341.053698 206.501272 340.716361 205.652208 340.716361 
C 204.803144 340.716361 203.988741 341.053698 203.388362 341.654077 
C 202.787982 342.254456 202.450646 343.068859 202.450646 343.917923 
C 202.450646 344.766987 202.787982 345.58139 203.388362 346.181769 
C 203.988741 346.782149 204.803144 347.119485 205.652208 347.119485 
z
" clip-path="url(#pddb599ef63)" style="fill: #2a9d8f; fill-opacity: 0.55; stroke: #333333; stroke-opacity: 0.55; stroke-width: 0.5"/>
    <path d="M 71.241818 384.046136 
C 71.877753 384.046136 72.487727 383.793476 72.937401 383.343802 
C 73.387074 382.894129 73.639734 382.284155 73.639734 381.64822 
C 73.639734 381.012285 73.387074 380.402311 72.937401 379.952637 
C 72.487727 379.502964 71.877753 379.250304 71.241818 379.250304 
C 70.605883 379.250304 69.995909 379.502964 69.546236 379.952637 
C 69.096562 380.402311 68.843902 381.012285 68.843902 381.64822 
C 68.843902 382.284155 69.096562 382.894129 69.546236 383.343802 
C 69.995909 383.793476 70.605883 384.046136 71.241818 384.046136 
z
" clip-path="url(#pddb599ef63)" style="fill: #2a9d8f; fill-opacity: 0.55; stroke: #333333; stroke-opacity: 0.55; stroke-width: 0.5"/>
    <path d="M 107.429231 404.63008 
C 108.447763 404.63008 109.424715 404.225413 110.144926 403.505202 
C 110.865137 402.784991 111.269804 401.808039 111.269804 400.789507 
C 111.269804 399.770975 110.865137 398.794022 110.144926 398.073812 
C 109.424715 397.353601 108.447763 396.948934 107.429231 396.948934 
C 106.410699 396.948934 105.433746 397.353601 104.713536 398.073812 
C 103.993325 398.794022 103.588658 399.770975 103.588658 400.789507 
C 103.588658 401.808039 103.993325 402.784991 104.713536 403.505202 
C 105.433746 404.225413 106.410699 404.63008 107.429231 404.63008 
z
" clip-path="url(#pddb599ef63)" style="fill: #2a9d8f; fill-opacity: 0.55; stroke: #333333; stroke-opacity: 0.55; stroke-width: 0.5"/>
    <path d="M 71.241818 384.046136 
C 71.877753 384.046136 72.487727 383.793476 72.937401 383.343802 
C 73.387074 382.894129 73.639734 382.284155 73.639734 381.64822 
C 73.639734 381.012285 73.387074 380.402311 72.937401 379.952637 
C 72.487727 379.502964 71.877753 379.250304 71.241818 379.250304 
C 70.605883 379.250304 69.995909 379.502964 69.546236 379.952637 
C 69.096562 380.402311 68.843902 381.012285 68.843902 381.64822 
C 68.843902 382.284155 69.096562 382.894129 69.546236 383.343802 
C 69.995909 383.793476 70.605883 384.046136 71.241818 384.046136 
z
" clip-path="url(#pddb599ef63)" style="fill: #2a9d8f; fill-opacity: 0.55; stroke: #333333; stroke-opacity: 0.55; stroke-width: 0.5"/>
    <path d="M 71.241818 384.046136 
C 71.877753 384.046136 72.487727 383.793476 72.937401 383.343802 
C 73.387074 382.894129 73.639734 382.284155 73.639734 381.64822 
C 73.639734 381.012285 73.387074 380.402311 72.937401 379.952637 
C 72.487727 379.502964 71.877753 379.250304 71.241818 379.250304 
C 70.605883 379.250304 69.995909 379.502964 69.546236 379.952637 
C 69.096562 380.402311 68.843902 381.012285 68.843902 381.64822 
C 68.843902 382.284155 69.096562 382.894129 69.546236 383.343802 
C 69.995909 383.793476 70.605883 384.046136 71.241818 384.046136 
z
" clip-path="url(#pddb599ef63)" style="fill: #2a9d8f; fill-opacity: 0.55; stroke: #333333; stroke-opacity: 0.55; stroke-width: 0.5"/>
    <path d="M 71.241818 384.046136 
C 71.877753 384.046136 72.487727 383.793476 72.937401 383.343802 
C 73.387074 382.894129 73.639734 382.284155 73.639734 381.64822 
C 73.639734 381.012285 73.387074 380.402311 72.937401 379.952637 
C 72.487727 379.502964 71.877753 379.250304 71.241818 379.250304 
C 70.605883 379.250304 69.995909 379.502964 69.546236 379.952637 
C 69.096562 380.402311 68.843902 381.012285 68.843902 381.64822 
C 68.843902 382.284155 69.096562 382.894129 69.546236 383.343802 
C 69.995909 383.793476 70.605883 384.046136 71.241818 384.046136 
z
" clip-path="url(#pddb599ef63)" style="fill: #2a9d8f; fill-opacity: 0.55; stroke: #333333; stroke-opacity: 0.55; stroke-width: 0.5"/>
    <path d="M 247.655455 313.74293 
C 248.748915 313.74293 249.797737 313.308494 250.57093 312.5353 
C 251.344124 311.762107 251.77856 310.713285 251.77856 309.619824 
C 251.77856 308.526364 251.344124 307.477542 250.57093 306.704348 
C 249.797737 305.931155 248.748915 305.496719 247.655455 305.496719 
C 246.561994 305.496719 245.513172 305.931155 244.739979 306.704348 
C 243.966785 307.477542 243.532349 308.526364 243.532349 309.619824 
C 243.532349 310.713285 243.966785 311.762107 244.739979 312.5353 
C 245.513172 313.308494 246.561994 313.74293 247.655455 313.74293 
z
" clip-path="url(#pddb599ef63)" style="fill: #2a9d8f; fill-opacity: 0.55; stroke: #333333; stroke-opacity: 0.55; stroke-width: 0.5"/>
    <path d="M 541.678182 309.841373 
C 542.314117 309.841373 542.924091 309.588714 543.373764 309.13904 
C 543.823438 308.689366 544.076098 308.079392 544.076098 307.443457 
C 544.076098 306.807523 543.823438 306.197549 543.373764 305.747875 
C 542.924091 305.298201 542.314117 305.045542 541.678182 305.045542 
C 541.042247 305.045542 540.432273 305.298201 539.982599 305.747875 
C 539.532926 306.197549 539.280266 306.807523 539.280266 307.443457 
C 539.280266 308.079392 539.532926 308.689366 539.982599 309.13904 
C 540.432273 309.588714 541.042247 309.841373 541.678182 309.841373 
z
" clip-path="url(#pddb599ef63)" style="fill: #2a9d8f; fill-opacity: 0.55; stroke: #333333; stroke-opacity: 0.55; stroke-width: 0.5"/>
    <path d="M 71.241818 384.046136 
C 71.877753 384.046136 72.487727 383.793476 72.937401 383.343802 
C 73.387074 382.894129 73.639734 382.284155 73.639734 381.64822 
C 73.639734 381.012285 73.387074 380.402311 72.937401 379.952637 
C 72.487727 379.502964 71.877753 379.250304 71.241818 379.250304 
C 70.605883 379.250304 69.995909 379.502964 69.546236 379.952637 
C 69.096562 380.402311 68.843902 381.012285 68.843902 381.64822 
C 68.843902 382.284155 69.096562 382.894129 69.546236 383.343802 
C 69.995909 383.793476 70.605883 384.046136 71.241818 384.046136 
z
" clip-path="url(#pddb599ef63)" style="fill: #2a9d8f; fill-opacity: 0.55; stroke: #333333; stroke-opacity: 0.55; stroke-width: 0.5"/>
    <path d="M 71.241818 393.771244 
C 71.917956 393.771244 72.566492 393.502612 73.044594 393.02451 
C 73.522696 392.546408 73.791328 391.897872 73.791328 391.221734 
C 73.791328 390.545597 73.522696 389.89706 73.044594 389.418959 
C 72.566492 388.940857 71.917956 388.672225 71.241818 388.672225 
C 70.56568 388.672225 69.917144 388.940857 69.439043 389.418959 
C 68.960941 389.89706 68.692308 390.545597 68.692308 391.221734 
C 68.692308 391.897872 68.960941 392.546408 69.439043 393.02451 
C 69.917144 393.502612 70.56568 393.771244 71.241818 393.771244 
z
" clip-path="url(#pddb599ef63)" style="fill: #2a9d8f; fill-opacity: 0.55; stroke: #333333; stroke-opacity: 0.55; stroke-width: 0.5"/>
    <path d="M 541.678182 309.841373 
C 542.314117 309.841373 542.924091 309.588714 543.373764 309.13904 
C 543.823438 308.689366 544.076098 308.079392 544.076098 307.443457 
C 544.076098 306.807523 543.823438 306.197549 543.373764 305.747875 
C 542.924091 305.298201 542.314117 305.045542 541.678182 305.045542 
C 541.042247 305.045542 540.432273 305.298201 539.982599 305.747875 
C 539.532926 306.197549 539.280266 306.807523 539.280266 307.443457 
C 539.280266 308.079392 539.532926 308.689366 539.982599 309.13904 
C 540.432273 309.588714 541.042247 309.841373 541.678182 309.841373 
z
" clip-path="url(#pddb599ef63)" style="fill: #2a9d8f; fill-opacity: 0.55; stroke: #333333; stroke-opacity: 0.55; stroke-width: 0.5"/>
    <path d="M 541.678182 309.841373 
C 542.314117 309.841373 542.924091 309.588714 543.373764 309.13904 
C 543.823438 308.689366 544.076098 308.079392 544.076098 307.443457 
C 544.076098 306.807523 543.823438 306.197549 543.373764 305.747875 
C 542.924091 305.298201 542.314117 305.045542 541.678182 305.045542 
C 541.042247 305.045542 540.432273 305.298201 539.982599 305.747875 
C 539.532926 306.197549 539.280266 306.807523 539.280266 307.443457 
C 539.280266 308.079392 539.532926 308.689366 539.982599 309.13904 
C 540.432273 309.588714 541.042247 309.841373 541.678182 309.841373 
z
" clip-path="url(#pddb599ef63)" style="fill: #2a9d8f; fill-opacity: 0.55; stroke: #333333; stroke-opacity: 0.55; stroke-width: 0.5"/>
    <path d="M 84.877655 434.597364 
C 86.875499 434.597364 88.791785 433.803612 90.204474 432.390923 
C 91.617163 430.978234 92.410914 429.061948 92.410914 427.064104 
C 92.410914 425.066261 91.617163 423.149974 90.204474 421.737285 
C 88.791785 420.324597 86.875499 419.530845 84.877655 419.530845 
C 82.879811 419.530845 80.963525 420.324597 79.550836 421.737285 
C 78.138147 423.149974 77.344395 425.066261 77.344395 427.064104 
C 77.344395 429.061948 78.138147 430.978234 79.550836 432.390923 
C 80.963525 433.803612 82.879811 434.597364 84.877655 434.597364 
z
" clip-path="url(#pddb599ef63)" style="fill: #2a9d8f; fill-opacity: 0.55; stroke: #333333; stroke-opacity: 0.55; stroke-width: 0.5"/>
    <path d="M 71.241818 400.876111 
C 71.955899 400.876111 72.64083 400.592404 73.145761 400.087472 
C 73.650693 399.58254 73.934401 398.89761 73.934401 398.183529 
C 73.934401 397.469447 73.650693 396.784517 73.145761 396.279585 
C 72.64083 395.774654 71.955899 395.490946 71.241818 395.490946 
C 70.527737 395.490946 69.842807 395.774654 69.337875 396.279585 
C 68.832943 396.784517 68.549236 397.469447 68.549236 398.183529 
C 68.549236 398.89761 68.832943 399.58254 69.337875 400.087472 
C 69.842807 400.592404 70.527737 400.876111 71.241818 400.876111 
z
" clip-path="url(#pddb599ef63)" style="fill: #2a9d8f; fill-opacity: 0.55; stroke: #333333; stroke-opacity: 0.55; stroke-width: 0.5"/>
    <path d="M 71.241818 384.046136 
C 71.877753 384.046136 72.487727 383.793476 72.937401 383.343802 
C 73.387074 382.894129 73.639734 382.284155 73.639734 381.64822 
C 73.639734 381.012285 73.387074 380.402311 72.937401 379.952637 
C 72.487727 379.502964 71.877753 379.250304 71.241818 379.250304 
C 70.605883 379.250304 69.995909 379.502964 69.546236 379.952637 
C 69.096562 380.402311 68.843902 381.012285 68.843902 381.64822 
C 68.843902 382.284155 69.096562 382.894129 69.546236 383.343802 
C 69.995909 383.793476 70.605883 384.046136 71.241818 384.046136 
z
" clip-path="url(#pddb599ef63)" style="fill: #2a9d8f; fill-opacity: 0.55; stroke: #333333; stroke-opacity: 0.55; stroke-width: 0.5"/>
    <path d="M 71.241818 384.046136 
C 71.877753 384.046136 72.487727 383.793476 72.937401 383.343802 
C 73.387074 382.894129 73.639734 382.284155 73.639734 381.64822 
C 73.639734 381.012285 73.387074 380.402311 72.937401 379.952637 
C 72.487727 379.502964 71.877753 379.250304 71.241818 379.250304 
C 70.605883 379.250304 69.995909 379.502964 69.546236 379.952637 
C 69.096562 380.402311 68.843902 381.012285 68.843902 381.64822 
C 68.843902 382.284155 69.096562 382.894129 69.546236 383.343802 
C 69.995909 383.793476 70.605883 384.046136 71.241818 384.046136 
z
" clip-path="url(#pddb599ef63)" style="fill: #2a9d8f; fill-opacity: 0.55; stroke: #333333; stroke-opacity: 0.55; stroke-width: 0.5"/>
    <path d="M 541.678182 309.841373 
C 542.314117 309.841373 542.924091 309.588714 543.373764 309.13904 
C 543.823438 308.689366 544.076098 308.079392 544.076098 307.443457 
C 544.076098 306.807523 543.823438 306.197549 543.373764 305.747875 
C 542.924091 305.298201 542.314117 305.045542 541.678182 305.045542 
C 541.042247 305.045542 540.432273 305.298201 539.982599 305.747875 
C 539.532926 306.197549 539.280266 306.807523 539.280266 307.443457 
C 539.280266 308.079392 539.532926 308.689366 539.982599 309.13904 
C 540.432273 309.588714 541.042247 309.841373 541.678182 309.841373 
z
" clip-path="url(#pddb599ef63)" style="fill: #2a9d8f; fill-opacity: 0.55; stroke: #333333; stroke-opacity: 0.55; stroke-width: 0.5"/>
    <path d="M 188.850909 358.818301 
C 189.601017 358.818301 190.320503 358.520281 190.850909 357.989874 
C 191.381315 357.459468 191.679336 356.739982 191.679336 355.989874 
C 191.679336 355.239767 191.381315 354.520281 190.850909 353.989874 
C 190.320503 353.459468 189.601017 353.161447 188.850909 353.161447 
C 188.100801 353.161447 187.381315 353.459468 186.850909 353.989874 
C 186.320503 354.520281 186.022482 355.239767 186.022482 355.989874 
C 186.022482 356.739982 186.320503 357.459468 186.850909 357.989874 
C 187.381315 358.520281 188.100801 358.818301 188.850909 358.818301 
z
" clip-path="url(#pddb599ef63)" style="fill: #2a9d8f; fill-opacity: 0.55; stroke: #333333; stroke-opacity: 0.55; stroke-width: 0.5"/>
    <path d="M 71.241818 393.771244 
C 71.917956 393.771244 72.566492 393.502612 73.044594 393.02451 
C 73.522696 392.546408 73.791328 391.897872 73.791328 391.221734 
C 73.791328 390.545597 73.522696 389.89706 73.044594 389.418959 
C 72.566492 388.940857 71.917956 388.672225 71.241818 388.672225 
C 70.56568 388.672225 69.917144 388.940857 69.439043 389.418959 
C 68.960941 389.89706 68.692308 390.545597 68.692308 391.221734 
C 68.692308 391.897872 68.960941 392.546408 69.439043 393.02451 
C 69.917144 393.502612 70.56568 393.771244 71.241818 393.771244 
z
" clip-path="url(#pddb599ef63)" style="fill: #2a9d8f; fill-opacity: 0.55; stroke: #333333; stroke-opacity: 0.55; stroke-width: 0.5"/>
    <path d="M 114.00876 404.576922 
C 115.238457 404.576922 116.417953 404.088358 117.28748 403.218832 
C 118.157006 402.349305 118.64557 401.169809 118.64557 399.940113 
C 118.64557 398.710417 118.157006 397.53092 117.28748 396.661393 
C 116.417953 395.791867 115.238457 395.303303 114.00876 395.303303 
C 112.779064 395.303303 111.599568 395.791867 110.730041 396.661393 
C 109.860515 397.53092 109.371951 398.710417 109.371951 399.940113 
C 109.371951 401.169809 109.860515 402.349305 110.730041 403.218832 
C 111.599568 404.088358 112.779064 404.576922 114.00876 404.576922 
z
" clip-path="url(#pddb599ef63)" style="fill: #2a9d8f; fill-opacity: 0.55; stroke: #333333; stroke-opacity: 0.55; stroke-width: 0.5"/>
    <path d="M 110.444848 401.991822 
C 111.437148 401.991822 112.388938 401.597577 113.0906 400.895916 
C 113.792261 400.194254 114.186506 399.242464 114.186506 398.250164 
C 114.186506 397.257865 113.792261 396.306075 113.0906 395.604413 
C 112.388938 394.902752 111.437148 394.508507 110.444848 394.508507 
C 109.452549 394.508507 108.500759 394.902752 107.799097 395.604413 
C 107.097436 396.306075 106.703191 397.257865 106.703191 398.250164 
C 106.703191 399.242464 107.097436 400.194254 107.799097 400.895916 
C 108.500759 401.597577 109.452549 401.991822 110.444848 401.991822 
z
" clip-path="url(#pddb599ef63)" style="fill: #2a9d8f; fill-opacity: 0.55; stroke: #333333; stroke-opacity: 0.55; stroke-width: 0.5"/>
    <path d="M 71.241818 384.046136 
C 71.877753 384.046136 72.487727 383.793476 72.937401 383.343802 
C 73.387074 382.894129 73.639734 382.284155 73.639734 381.64822 
C 73.639734 381.012285 73.387074 380.402311 72.937401 379.952637 
C 72.487727 379.502964 71.877753 379.250304 71.241818 379.250304 
C 70.605883 379.250304 69.995909 379.502964 69.546236 379.952637 
C 69.096562 380.402311 68.843902 381.012285 68.843902 381.64822 
C 68.843902 382.284155 69.096562 382.894129 69.546236 383.343802 
C 69.995909 383.793476 70.605883 384.046136 71.241818 384.046136 
z
" clip-path="url(#pddb599ef63)" style="fill: #2a9d8f; fill-opacity: 0.55; stroke: #333333; stroke-opacity: 0.55; stroke-width: 0.5"/>
    <path d="M 71.241818 406.30249 
C 71.991926 406.30249 72.711412 406.004469 73.241818 405.474063 
C 73.772224 404.943657 74.070245 404.224171 74.070245 403.474063 
C 74.070245 402.723956 73.772224 402.004469 73.241818 401.474063 
C 72.711412 400.943657 71.991926 400.645636 71.241818 400.645636 
C 70.491711 400.645636 69.772224 400.943657 69.241818 401.474063 
C 68.711412 402.004469 68.413391 402.723956 68.413391 403.474063 
C 68.413391 404.224171 68.711412 404.943657 69.241818 405.474063 
C 69.772224 406.004469 70.491711 406.30249 71.241818 406.30249 
z
" clip-path="url(#pddb599ef63)" style="fill: #2a9d8f; fill-opacity: 0.55; stroke: #333333; stroke-opacity: 0.55; stroke-width: 0.5"/>
   </g>
   <g id="matplotlib.axis_1">
    <g id="xtick_1">
     <g id="line2d_1">
      <path d="M 71.241818 462.04 
L 71.241818 26.88 
" clip-path="url(#pddb599ef63)" style="fill: none; stroke-dasharray: 0.8,1.32; stroke-dashoffset: 0; stroke: #b0b0b0; stroke-opacity: 0.5; stroke-width: 0.8"/>
     </g>
     <g id="line2d_2">
      <defs>
       <path id="mdf9f797a0a" d="M 0 0 
L 0 3.5 
" style="stroke: #000000; stroke-width: 0.8"/>
      </defs>
      <g>
       <use xlink:href="#mdf9f797a0a" x="71.241818" y="462.04" style="stroke: #000000; stroke-width: 0.8"/>
      </g>
     </g>
     <g id="text_1">
      <!-- 0.0 -->
      <g transform="translate(63.290256 476.638438) scale(0.1 -0.1)">
       <defs>
        <path id="DejaVuSans-30" d="M 2034 4250 
Q 1547 4250 1301 3770 
Q 1056 3291 1056 2328 
Q 1056 1369 1301 889 
Q 1547 409 2034 409 
Q 2525 409 2770 889 
Q 3016 1369 3016 2328 
Q 3016 3291 2770 3770 
Q 2525 4250 2034 4250 
z
M 2034 4750 
Q 2819 4750 3233 4129 
Q 3647 3509 3647 2328 
Q 3647 1150 3233 529 
Q 2819 -91 2034 -91 
Q 1250 -91 836 529 
Q 422 1150 422 2328 
Q 422 3509 836 4129 
Q 1250 4750 2034 4750 
z
" transform="scale(0.015625)"/>
        <path id="DejaVuSans-2e" d="M 684 794 
L 1344 794 
L 1344 0 
L 684 0 
L 684 794 
z
" transform="scale(0.015625)"/>
       </defs>
       <use xlink:href="#DejaVuSans-30"/>
       <use xlink:href="#DejaVuSans-2e" transform="translate(63.623047 0)"/>
       <use xlink:href="#DejaVuSans-30" transform="translate(95.410156 0)"/>
      </g>
     </g>
    </g>
    <g id="xtick_2">
     <g id="line2d_3">
      <path d="M 165.329091 462.04 
L 165.329091 26.88 
" clip-path="url(#pddb599ef63)" style="fill: none; stroke-dasharray: 0.8,1.32; stroke-dashoffset: 0; stroke: #b0b0b0; stroke-opacity: 0.5; stroke-width: 0.8"/>
     </g>
     <g id="line2d_4">
      <g>
       <use xlink:href="#mdf9f797a0a" x="165.329091" y="462.04" style="stroke: #000000; stroke-width: 0.8"/>
      </g>
     </g>
     <g id="text_2">
      <!-- 0.2 -->
      <g transform="translate(157.377528 476.638438) scale(0.1 -0.1)">
       <defs>
        <path id="DejaVuSans-32" d="M 1228 531 
L 3431 531 
L 3431 0 
L 469 0 
L 469 531 
Q 828 903 1448 1529 
Q 2069 2156 2228 2338 
Q 2531 2678 2651 2914 
Q 2772 3150 2772 3378 
Q 2772 3750 2511 3984 
Q 2250 4219 1831 4219 
Q 1534 4219 1204 4116 
Q 875 4013 500 3803 
L 500 4441 
Q 881 4594 1212 4672 
Q 1544 4750 1819 4750 
Q 2544 4750 2975 4387 
Q 3406 4025 3406 3419 
Q 3406 3131 3298 2873 
Q 3191 2616 2906 2266 
Q 2828 2175 2409 1742 
Q 1991 1309 1228 531 
z
" transform="scale(0.015625)"/>
       </defs>
       <use xlink:href="#DejaVuSans-30"/>
       <use xlink:href="#DejaVuSans-2e" transform="translate(63.623047 0)"/>
       <use xlink:href="#DejaVuSans-32" transform="translate(95.410156 0)"/>
      </g>
     </g>
    </g>
    <g id="xtick_3">
     <g id="line2d_5">
      <path d="M 259.416364 462.04 
L 259.416364 26.88 
" clip-path="url(#pddb599ef63)" style="fill: none; stroke-dasharray: 0.8,1.32; stroke-dashoffset: 0; stroke: #b0b0b0; stroke-opacity: 0.5; stroke-width: 0.8"/>
     </g>
     <g id="line2d_6">
      <g>
       <use xlink:href="#mdf9f797a0a" x="259.416364" y="462.04" style="stroke: #000000; stroke-width: 0.8"/>
      </g>
     </g>
     <g id="text_3">
      <!-- 0.4 -->
      <g transform="translate(251.464801 476.638438) scale(0.1 -0.1)">
       <defs>
        <path id="DejaVuSans-34" d="M 2419 4116 
L 825 1625 
L 2419 1625 
L 2419 4116 
z
M 2253 4666 
L 3047 4666 
L 3047 1625 
L 3713 1625 
L 3713 1100 
L 3047 1100 
L 3047 0 
L 2419 0 
L 2419 1100 
L 313 1100 
L 313 1709 
L 2253 4666 
z
" transform="scale(0.015625)"/>
       </defs>
       <use xlink:href="#DejaVuSans-30"/>
       <use xlink:href="#DejaVuSans-2e" transform="translate(63.623047 0)"/>
       <use xlink:href="#DejaVuSans-34" transform="translate(95.410156 0)"/>
      </g>
     </g>
    </g>
    <g id="xtick_4">
     <g id="line2d_7">
      <path d="M 353.503636 462.04 
L 353.503636 26.88 
" clip-path="url(#pddb599ef63)" style="fill: none; stroke-dasharray: 0.8,1.32; stroke-dashoffset: 0; stroke: #b0b0b0; stroke-opacity: 0.5; stroke-width: 0.8"/>
     </g>
     <g id="line2d_8">
      <g>
       <use xlink:href="#mdf9f797a0a" x="353.503636" y="462.04" style="stroke: #000000; stroke-width: 0.8"/>
      </g>
     </g>
     <g id="text_4">
      <!-- 0.6 -->
      <g transform="translate(345.552074 476.638438) scale(0.1 -0.1)">
       <defs>
        <path id="DejaVuSans-36" d="M 2113 2584 
Q 1688 2584 1439 2293 
Q 1191 2003 1191 1497 
Q 1191 994 1439 701 
Q 1688 409 2113 409 
Q 2538 409 2786 701 
Q 3034 994 3034 1497 
Q 3034 2003 2786 2293 
Q 2538 2584 2113 2584 
z
M 3366 4563 
L 3366 3988 
Q 3128 4100 2886 4159 
Q 2644 4219 2406 4219 
Q 1781 4219 1451 3797 
Q 1122 3375 1075 2522 
Q 1259 2794 1537 2939 
Q 1816 3084 2150 3084 
Q 2853 3084 3261 2657 
Q 3669 2231 3669 1497 
Q 3669 778 3244 343 
Q 2819 -91 2113 -91 
Q 1303 -91 875 529 
Q 447 1150 447 2328 
Q 447 3434 972 4092 
Q 1497 4750 2381 4750 
Q 2619 4750 2861 4703 
Q 3103 4656 3366 4563 
z
" transform="scale(0.015625)"/>
       </defs>
       <use xlink:href="#DejaVuSans-30"/>
       <use xlink:href="#DejaVuSans-2e" transform="translate(63.623047 0)"/>
       <use xlink:href="#DejaVuSans-36" transform="translate(95.410156 0)"/>
      </g>
     </g>
    </g>
    <g id="xtick_5">
     <g id="line2d_9">
      <path d="M 447.590909 462.04 
L 447.590909 26.88 
" clip-path="url(#pddb599ef63)" style="fill: none; stroke-dasharray: 0.8,1.32; stroke-dashoffset: 0; stroke: #b0b0b0; stroke-opacity: 0.5; stroke-width: 0.8"/>
     </g>
     <g id="line2d_10">
      <g>
       <use xlink:href="#mdf9f797a0a" x="447.590909" y="462.04" style="stroke: #000000; stroke-width: 0.8"/>
      </g>
     </g>
     <g id="text_5">
      <!-- 0.8 -->
      <g transform="translate(439.639347 476.638438) scale(0.1 -0.1)">
       <defs>
        <path id="DejaVuSans-38" d="M 2034 2216 
Q 1584 2216 1326 1975 
Q 1069 1734 1069 1313 
Q 1069 891 1326 650 
Q 1584 409 2034 409 
Q 2484 409 2743 651 
Q 3003 894 3003 1313 
Q 3003 1734 2745 1975 
Q 2488 2216 2034 2216 
z
M 1403 2484 
Q 997 2584 770 2862 
Q 544 3141 544 3541 
Q 544 4100 942 4425 
Q 1341 4750 2034 4750 
Q 2731 4750 3128 4425 
Q 3525 4100 3525 3541 
Q 3525 3141 3298 2862 
Q 3072 2584 2669 2484 
Q 3125 2378 3379 2068 
Q 3634 1759 3634 1313 
Q 3634 634 3220 271 
Q 2806 -91 2034 -91 
Q 1263 -91 848 271 
Q 434 634 434 1313 
Q 434 1759 690 2068 
Q 947 2378 1403 2484 
z
M 1172 3481 
Q 1172 3119 1398 2916 
Q 1625 2713 2034 2713 
Q 2441 2713 2670 2916 
Q 2900 3119 2900 3481 
Q 2900 3844 2670 4047 
Q 2441 4250 2034 4250 
Q 1625 4250 1398 4047 
Q 1172 3844 1172 3481 
z
" transform="scale(0.015625)"/>
       </defs>
       <use xlink:href="#DejaVuSans-30"/>
       <use xlink:href="#DejaVuSans-2e" transform="translate(63.623047 0)"/>
       <use xlink:href="#DejaVuSans-38" transform="translate(95.410156 0)"/>
      </g>
     </g>
    </g>
    <g id="xtick_6">
     <g id="line2d_11">
      <path d="M 541.678182 462.04 
L 541.678182 26.88 
" clip-path="url(#pddb599ef63)" style="fill: none; stroke-dasharray: 0.8,1.32; stroke-dashoffset: 0; stroke: #b0b0b0; stroke-opacity: 0.5; stroke-width: 0.8"/>
     </g>
     <g id="line2d_12">
      <g>
       <use xlink:href="#mdf9f797a0a" x="541.678182" y="462.04" style="stroke: #000000; stroke-width: 0.8"/>
      </g>
     </g>
     <g id="text_6">
      <!-- 1.0 -->
      <g transform="translate(533.726619 476.638438) scale(0.1 -0.1)">
       <defs>
        <path id="DejaVuSans-31" d="M 794 531 
L 1825 531 
L 1825 4091 
L 703 3866 
L 703 4441 
L 1819 4666 
L 2450 4666 
L 2450 531 
L 3481 531 
L 3481 0 
L 794 0 
L 794 531 
z
" transform="scale(0.015625)"/>
       </defs>
       <use xlink:href="#DejaVuSans-31"/>
       <use xlink:href="#DejaVuSans-2e" transform="translate(63.623047 0)"/>
       <use xlink:href="#DejaVuSans-30" transform="translate(95.410156 0)"/>
      </g>
     </g>
    </g>
    <g id="text_7">
     <!-- Raw per-video high-intent rate -->
     <g transform="translate(230.274844 490.316563) scale(0.1 -0.1)">
      <defs>
       <path id="DejaVuSans-52" d="M 2841 2188 
Q 3044 2119 3236 1894 
Q 3428 1669 3622 1275 
L 4263 0 
L 3584 0 
L 2988 1197 
Q 2756 1666 2539 1819 
Q 2322 1972 1947 1972 
L 1259 1972 
L 1259 0 
L 628 0 
L 628 4666 
L 2053 4666 
Q 2853 4666 3247 4331 
Q 3641 3997 3641 3322 
Q 3641 2881 3436 2590 
Q 3231 2300 2841 2188 
z
M 1259 4147 
L 1259 2491 
L 2053 2491 
Q 2509 2491 2742 2702 
Q 2975 2913 2975 3322 
Q 2975 3731 2742 3939 
Q 2509 4147 2053 4147 
L 1259 4147 
z
" transform="scale(0.015625)"/>
       <path id="DejaVuSans-61" d="M 2194 1759 
Q 1497 1759 1228 1600 
Q 959 1441 959 1056 
Q 959 750 1161 570 
Q 1363 391 1709 391 
Q 2188 391 2477 730 
Q 2766 1069 2766 1631 
L 2766 1759 
L 2194 1759 
z
M 3341 1997 
L 3341 0 
L 2766 0 
L 2766 531 
Q 2569 213 2275 61 
Q 1981 -91 1556 -91 
Q 1019 -91 701 211 
Q 384 513 384 1019 
Q 384 1609 779 1909 
Q 1175 2209 1959 2209 
L 2766 2209 
L 2766 2266 
Q 2766 2663 2505 2880 
Q 2244 3097 1772 3097 
Q 1472 3097 1187 3025 
Q 903 2953 641 2809 
L 641 3341 
Q 956 3463 1253 3523 
Q 1550 3584 1831 3584 
Q 2591 3584 2966 3190 
Q 3341 2797 3341 1997 
z
" transform="scale(0.015625)"/>
       <path id="DejaVuSans-77" d="M 269 3500 
L 844 3500 
L 1563 769 
L 2278 3500 
L 2956 3500 
L 3675 769 
L 4391 3500 
L 4966 3500 
L 4050 0 
L 3372 0 
L 2619 2869 
L 1863 0 
L 1184 0 
L 269 3500 
z
" transform="scale(0.015625)"/>
       <path id="DejaVuSans-20" transform="scale(0.015625)"/>
       <path id="DejaVuSans-70" d="M 1159 525 
L 1159 -1331 
L 581 -1331 
L 581 3500 
L 1159 3500 
L 1159 2969 
Q 1341 3281 1617 3432 
Q 1894 3584 2278 3584 
Q 2916 3584 3314 3078 
Q 3713 2572 3713 1747 
Q 3713 922 3314 415 
Q 2916 -91 2278 -91 
Q 1894 -91 1617 61 
Q 1341 213 1159 525 
z
M 3116 1747 
Q 3116 2381 2855 2742 
Q 2594 3103 2138 3103 
Q 1681 3103 1420 2742 
Q 1159 2381 1159 1747 
Q 1159 1113 1420 752 
Q 1681 391 2138 391 
Q 2594 391 2855 752 
Q 3116 1113 3116 1747 
z
" transform="scale(0.015625)"/>
       <path id="DejaVuSans-65" d="M 3597 1894 
L 3597 1613 
L 953 1613 
Q 991 1019 1311 708 
Q 1631 397 2203 397 
Q 2534 397 2845 478 
Q 3156 559 3463 722 
L 3463 178 
Q 3153 47 2828 -22 
Q 2503 -91 2169 -91 
Q 1331 -91 842 396 
Q 353 884 353 1716 
Q 353 2575 817 3079 
Q 1281 3584 2069 3584 
Q 2775 3584 3186 3129 
Q 3597 2675 3597 1894 
z
M 3022 2063 
Q 3016 2534 2758 2815 
Q 2500 3097 2075 3097 
Q 1594 3097 1305 2825 
Q 1016 2553 972 2059 
L 3022 2063 
z
" transform="scale(0.015625)"/>
       <path id="DejaVuSans-72" d="M 2631 2963 
Q 2534 3019 2420 3045 
Q 2306 3072 2169 3072 
Q 1681 3072 1420 2755 
Q 1159 2438 1159 1844 
L 1159 0 
L 581 0 
L 581 3500 
L 1159 3500 
L 1159 2956 
Q 1341 3275 1631 3429 
Q 1922 3584 2338 3584 
Q 2397 3584 2469 3576 
Q 2541 3569 2628 3553 
L 2631 2963 
z
" transform="scale(0.015625)"/>
       <path id="DejaVuSans-2d" d="M 313 2009 
L 1997 2009 
L 1997 1497 
L 313 1497 
L 313 2009 
z
" transform="scale(0.015625)"/>
       <path id="DejaVuSans-76" d="M 191 3500 
L 800 3500 
L 1894 563 
L 2988 3500 
L 3597 3500 
L 2284 0 
L 1503 0 
L 191 3500 
z
" transform="scale(0.015625)"/>
       <path id="DejaVuSans-69" d="M 603 3500 
L 1178 3500 
L 1178 0 
L 603 0 
L 603 3500 
z
M 603 4863 
L 1178 4863 
L 1178 4134 
L 603 4134 
L 603 4863 
z
" transform="scale(0.015625)"/>
       <path id="DejaVuSans-64" d="M 2906 2969 
L 2906 4863 
L 3481 4863 
L 3481 0 
L 2906 0 
L 2906 525 
Q 2725 213 2448 61 
Q 2172 -91 1784 -91 
Q 1150 -91 751 415 
Q 353 922 353 1747 
Q 353 2572 751 3078 
Q 1150 3584 1784 3584 
Q 2172 3584 2448 3432 
Q 2725 3281 2906 2969 
z
M 947 1747 
Q 947 1113 1208 752 
Q 1469 391 1925 391 
Q 2381 391 2643 752 
Q 2906 1113 2906 1747 
Q 2906 2381 2643 2742 
Q 2381 3103 1925 3103 
Q 1469 3103 1208 2742 
Q 947 2381 947 1747 
z
" transform="scale(0.015625)"/>
       <path id="DejaVuSans-6f" d="M 1959 3097 
Q 1497 3097 1228 2736 
Q 959 2375 959 1747 
Q 959 1119 1226 758 
Q 1494 397 1959 397 
Q 2419 397 2687 759 
Q 2956 1122 2956 1747 
Q 2956 2369 2687 2733 
Q 2419 3097 1959 3097 
z
M 1959 3584 
Q 2709 3584 3137 3096 
Q 3566 2609 3566 1747 
Q 3566 888 3137 398 
Q 2709 -91 1959 -91 
Q 1206 -91 779 398 
Q 353 888 353 1747 
Q 353 2609 779 3096 
Q 1206 3584 1959 3584 
z
" transform="scale(0.015625)"/>
       <path id="DejaVuSans-68" d="M 3513 2113 
L 3513 0 
L 2938 0 
L 2938 2094 
Q 2938 2591 2744 2837 
Q 2550 3084 2163 3084 
Q 1697 3084 1428 2787 
Q 1159 2491 1159 1978 
L 1159 0 
L 581 0 
L 581 4863 
L 1159 4863 
L 1159 2956 
Q 1366 3272 1645 3428 
Q 1925 3584 2291 3584 
Q 2894 3584 3203 3211 
Q 3513 2838 3513 2113 
z
" transform="scale(0.015625)"/>
       <path id="DejaVuSans-67" d="M 2906 1791 
Q 2906 2416 2648 2759 
Q 2391 3103 1925 3103 
Q 1463 3103 1205 2759 
Q 947 2416 947 1791 
Q 947 1169 1205 825 
Q 1463 481 1925 481 
Q 2391 481 2648 825 
Q 2906 1169 2906 1791 
z
M 3481 434 
Q 3481 -459 3084 -895 
Q 2688 -1331 1869 -1331 
Q 1566 -1331 1297 -1286 
Q 1028 -1241 775 -1147 
L 775 -588 
Q 1028 -725 1275 -790 
Q 1522 -856 1778 -856 
Q 2344 -856 2625 -561 
Q 2906 -266 2906 331 
L 2906 616 
Q 2728 306 2450 153 
Q 2172 0 1784 0 
Q 1141 0 747 490 
Q 353 981 353 1791 
Q 353 2603 747 3093 
Q 1141 3584 1784 3584 
Q 2172 3584 2450 3431 
Q 2728 3278 2906 2969 
L 2906 3500 
L 3481 3500 
L 3481 434 
z
" transform="scale(0.015625)"/>
       <path id="DejaVuSans-6e" d="M 3513 2113 
L 3513 0 
L 2938 0 
L 2938 2094 
Q 2938 2591 2744 2837 
Q 2550 3084 2163 3084 
Q 1697 3084 1428 2787 
Q 1159 2491 1159 1978 
L 1159 0 
L 581 0 
L 581 3500 
L 1159 3500 
L 1159 2956 
Q 1366 3272 1645 3428 
Q 1925 3584 2291 3584 
Q 2894 3584 3203 3211 
Q 3513 2838 3513 2113 
z
" transform="scale(0.015625)"/>
       <path id="DejaVuSans-74" d="M 1172 4494 
L 1172 3500 
L 2356 3500 
L 2356 3053 
L 1172 3053 
L 1172 1153 
Q 1172 725 1289 603 
Q 1406 481 1766 481 
L 2356 481 
L 2356 0 
L 1766 0 
Q 1100 0 847 248 
Q 594 497 594 1153 
L 594 3053 
L 172 3053 
L 172 3500 
L 594 3500 
L 594 4494 
L 1172 4494 
z
" transform="scale(0.015625)"/>
      </defs>
      <use xlink:href="#DejaVuSans-52"/>
      <use xlink:href="#DejaVuSans-61" transform="translate(67.232422 0)"/>
      <use xlink:href="#DejaVuSans-77" transform="translate(128.511719 0)"/>
      <use xlink:href="#DejaVuSans-20" transform="translate(210.298828 0)"/>
      <use xlink:href="#DejaVuSans-70" transform="translate(242.085938 0)"/>
      <use xlink:href="#DejaVuSans-65" transform="translate(305.5625 0)"/>
      <use xlink:href="#DejaVuSans-72" transform="translate(367.085938 0)"/>
      <use xlink:href="#DejaVuSans-2d" transform="translate(401.824219 0)"/>
      <use xlink:href="#DejaVuSans-76" transform="translate(435.283203 0)"/>
      <use xlink:href="#DejaVuSans-69" transform="translate(494.462891 0)"/>
      <use xlink:href="#DejaVuSans-64" transform="translate(522.246094 0)"/>
      <use xlink:href="#DejaVuSans-65" transform="translate(585.722656 0)"/>
      <use xlink:href="#DejaVuSans-6f" transform="translate(647.246094 0)"/>
      <use xlink:href="#DejaVuSans-20" transform="translate(708.427734 0)"/>
      <use xlink:href="#DejaVuSans-68" transform="translate(740.214844 0)"/>
      <use xlink:href="#DejaVuSans-69" transform="translate(803.59375 0)"/>
      <use xlink:href="#DejaVuSans-67" transform="translate(831.376953 0)"/>
      <use xlink:href="#DejaVuSans-68" transform="translate(894.853516 0)"/>
      <use xlink:href="#DejaVuSans-2d" transform="translate(958.232422 0)"/>
      <use xlink:href="#DejaVuSans-69" transform="translate(994.316406 0)"/>
      <use xlink:href="#DejaVuSans-6e" transform="translate(1022.099609 0)"/>
      <use xlink:href="#DejaVuSans-74" transform="translate(1085.478516 0)"/>
      <use xlink:href="#DejaVuSans-65" transform="translate(1124.6875 0)"/>
      <use xlink:href="#DejaVuSans-6e" transform="translate(1186.210938 0)"/>
      <use xlink:href="#DejaVuSans-74" transform="translate(1249.589844 0)"/>
      <use xlink:href="#DejaVuSans-20" transform="translate(1288.798828 0)"/>
      <use xlink:href="#DejaVuSans-72" transform="translate(1320.585938 0)"/>
      <use xlink:href="#DejaVuSans-61" transform="translate(1361.699219 0)"/>
      <use xlink:href="#DejaVuSans-74" transform="translate(1422.978516 0)"/>
      <use xlink:href="#DejaVuSans-65" transform="translate(1462.1875 0)"/>
     </g>
    </g>
   </g>
   <g id="matplotlib.axis_2">
    <g id="ytick_1">
     <g id="line2d_13">
      <path d="M 47.72 442.26 
L 565.2 442.26 
" clip-path="url(#pddb599ef63)" style="fill: none; stroke-dasharray: 0.8,1.32; stroke-dashoffset: 0; stroke: #b0b0b0; stroke-opacity: 0.5; stroke-width: 0.8"/>
     </g>
     <g id="line2d_14">
      <defs>
       <path id="m7007e36c53" d="M 0 0 
L -3.5 0 
" style="stroke: #000000; stroke-width: 0.8"/>
      </defs>
      <g>
       <use xlink:href="#m7007e36c53" x="47.72" y="442.26" style="stroke: #000000; stroke-width: 0.8"/>
      </g>
     </g>
     <g id="text_8">
      <!-- 0.0 -->
      <g transform="translate(24.816875 446.059219) scale(0.1 -0.1)">
       <use xlink:href="#DejaVuSans-30"/>
       <use xlink:href="#DejaVuSans-2e" transform="translate(63.623047 0)"/>
       <use xlink:href="#DejaVuSans-30" transform="translate(95.410156 0)"/>
      </g>
     </g>
    </g>
    <g id="ytick_2">
     <g id="line2d_15">
      <path d="M 47.72 363.14 
L 565.2 363.14 
" clip-path="url(#pddb599ef63)" style="fill: none; stroke-dasharray: 0.8,1.32; stroke-dashoffset: 0; stroke: #b0b0b0; stroke-opacity: 0.5; stroke-width: 0.8"/>
     </g>
     <g id="line2d_16">
      <g>
       <use xlink:href="#m7007e36c53" x="47.72" y="363.14" style="stroke: #000000; stroke-width: 0.8"/>
      </g>
     </g>
     <g id="text_9">
      <!-- 0.2 -->
      <g transform="translate(24.816875 366.939219) scale(0.1 -0.1)">
       <use xlink:href="#DejaVuSans-30"/>
       <use xlink:href="#DejaVuSans-2e" transform="translate(63.623047 0)"/>
       <use xlink:href="#DejaVuSans-32" transform="translate(95.410156 0)"/>
      </g>
     </g>
    </g>
    <g id="ytick_3">
     <g id="line2d_17">
      <path d="M 47.72 284.02 
L 565.2 284.02 
" clip-path="url(#pddb599ef63)" style="fill: none; stroke-dasharray: 0.8,1.32; stroke-dashoffset: 0; stroke: #b0b0b0; stroke-opacity: 0.5; stroke-width: 0.8"/>
     </g>
     <g id="line2d_18">
      <g>
       <use xlink:href="#m7007e36c53" x="47.72" y="284.02" style="stroke: #000000; stroke-width: 0.8"/>
      </g>
     </g>
     <g id="text_10">
      <!-- 0.4 -->
      <g transform="translate(24.816875 287.819219) scale(0.1 -0.1)">
       <use xlink:href="#DejaVuSans-30"/>
       <use xlink:href="#DejaVuSans-2e" transform="translate(63.623047 0)"/>
       <use xlink:href="#DejaVuSans-34" transform="translate(95.410156 0)"/>
      </g>
     </g>
    </g>
    <g id="ytick_4">
     <g id="line2d_19">
      <path d="M 47.72 204.9 
L 565.2 204.9 
" clip-path="url(#pddb599ef63)" style="fill: none; stroke-dasharray: 0.8,1.32; stroke-dashoffset: 0; stroke: #b0b0b0; stroke-opacity: 0.5; stroke-width: 0.8"/>
     </g>
     <g id="line2d_20">
      <g>
       <use xlink:href="#m7007e36c53" x="47.72" y="204.9" style="stroke: #000000; stroke-width: 0.8"/>
      </g>
     </g>
     <g id="text_11">
      <!-- 0.6 -->
      <g transform="translate(24.816875 208.699219) scale(0.1 -0.1)">
       <use xlink:href="#DejaVuSans-30"/>
       <use xlink:href="#DejaVuSans-2e" transform="translate(63.623047 0)"/>
       <use xlink:href="#DejaVuSans-36" transform="translate(95.410156 0)"/>
      </g>
     </g>
    </g>
    <g id="ytick_5">
     <g id="line2d_21">
      <path d="M 47.72 125.78 
L 565.2 125.78 
" clip-path="url(#pddb599ef63)" style="fill: none; stroke-dasharray: 0.8,1.32; stroke-dashoffset: 0; stroke: #b0b0b0; stroke-opacity: 0.5; stroke-width: 0.8"/>
     </g>
     <g id="line2d_22">
      <g>
       <use xlink:href="#m7007e36c53" x="47.72" y="125.78" style="stroke: #000000; stroke-width: 0.8"/>
      </g>
     </g>
     <g id="text_12">
      <!-- 0.8 -->
      <g transform="translate(24.816875 129.579219) scale(0.1 -0.1)">
       <use xlink:href="#DejaVuSans-30"/>
       <use xlink:href="#DejaVuSans-2e" transform="translate(63.623047 0)"/>
       <use xlink:href="#DejaVuSans-38" transform="translate(95.410156 0)"/>
      </g>
     </g>
    </g>
    <g id="ytick_6">
     <g id="line2d_23">
      <path d="M 47.72 46.66 
L 565.2 46.66 
" clip-path="url(#pddb599ef63)" style="fill: none; stroke-dasharray: 0.8,1.32; stroke-dashoffset: 0; stroke: #b0b0b0; stroke-opacity: 0.5; stroke-width: 0.8"/>
     </g>
     <g id="line2d_24">
      <g>
       <use xlink:href="#m7007e36c53" x="47.72" y="46.66" style="stroke: #000000; stroke-width: 0.8"/>
      </g>
     </g>
     <g id="text_13">
      <!-- 1.0 -->
      <g transform="translate(24.816875 50.459219) scale(0.1 -0.1)">
       <use xlink:href="#DejaVuSans-31"/>
       <use xlink:href="#DejaVuSans-2e" transform="translate(63.623047 0)"/>
       <use xlink:href="#DejaVuSans-30" transform="translate(95.410156 0)"/>
      </g>
     </g>
    </g>
    <g id="text_14">
     <!-- Shrunk rate (empirical Bayes) -->
     <g transform="translate(18.737188 319.208438) rotate(-90) scale(0.1 -0.1)">
      <defs>
       <path id="DejaVuSans-53" d="M 3425 4513 
L 3425 3897 
Q 3066 4069 2747 4153 
Q 2428 4238 2131 4238 
Q 1616 4238 1336 4038 
Q 1056 3838 1056 3469 
Q 1056 3159 1242 3001 
Q 1428 2844 1947 2747 
L 2328 2669 
Q 3034 2534 3370 2195 
Q 3706 1856 3706 1288 
Q 3706 609 3251 259 
Q 2797 -91 1919 -91 
Q 1588 -91 1214 -16 
Q 841 59 441 206 
L 441 856 
Q 825 641 1194 531 
Q 1563 422 1919 422 
Q 2459 422 2753 634 
Q 3047 847 3047 1241 
Q 3047 1584 2836 1778 
Q 2625 1972 2144 2069 
L 1759 2144 
Q 1053 2284 737 2584 
Q 422 2884 422 3419 
Q 422 4038 858 4394 
Q 1294 4750 2059 4750 
Q 2388 4750 2728 4690 
Q 3069 4631 3425 4513 
z
" transform="scale(0.015625)"/>
       <path id="DejaVuSans-75" d="M 544 1381 
L 544 3500 
L 1119 3500 
L 1119 1403 
Q 1119 906 1312 657 
Q 1506 409 1894 409 
Q 2359 409 2629 706 
Q 2900 1003 2900 1516 
L 2900 3500 
L 3475 3500 
L 3475 0 
L 2900 0 
L 2900 538 
Q 2691 219 2414 64 
Q 2138 -91 1772 -91 
Q 1169 -91 856 284 
Q 544 659 544 1381 
z
M 1991 3584 
L 1991 3584 
z
" transform="scale(0.015625)"/>
       <path id="DejaVuSans-6b" d="M 581 4863 
L 1159 4863 
L 1159 1991 
L 2875 3500 
L 3609 3500 
L 1753 1863 
L 3688 0 
L 2938 0 
L 1159 1709 
L 1159 0 
L 581 0 
L 581 4863 
z
" transform="scale(0.015625)"/>
       <path id="DejaVuSans-28" d="M 1984 4856 
Q 1566 4138 1362 3434 
Q 1159 2731 1159 2009 
Q 1159 1288 1364 580 
Q 1569 -128 1984 -844 
L 1484 -844 
Q 1016 -109 783 600 
Q 550 1309 550 2009 
Q 550 2706 781 3412 
Q 1013 4119 1484 4856 
L 1984 4856 
z
" transform="scale(0.015625)"/>
       <path id="DejaVuSans-6d" d="M 3328 2828 
Q 3544 3216 3844 3400 
Q 4144 3584 4550 3584 
Q 5097 3584 5394 3201 
Q 5691 2819 5691 2113 
L 5691 0 
L 5113 0 
L 5113 2094 
Q 5113 2597 4934 2840 
Q 4756 3084 4391 3084 
Q 3944 3084 3684 2787 
Q 3425 2491 3425 1978 
L 3425 0 
L 2847 0 
L 2847 2094 
Q 2847 2600 2669 2842 
Q 2491 3084 2119 3084 
Q 1678 3084 1418 2786 
Q 1159 2488 1159 1978 
L 1159 0 
L 581 0 
L 581 3500 
L 1159 3500 
L 1159 2956 
Q 1356 3278 1631 3431 
Q 1906 3584 2284 3584 
Q 2666 3584 2933 3390 
Q 3200 3197 3328 2828 
z
" transform="scale(0.015625)"/>
       <path id="DejaVuSans-63" d="M 3122 3366 
L 3122 2828 
Q 2878 2963 2633 3030 
Q 2388 3097 2138 3097 
Q 1578 3097 1268 2742 
Q 959 2388 959 1747 
Q 959 1106 1268 751 
Q 1578 397 2138 397 
Q 2388 397 2633 464 
Q 2878 531 3122 666 
L 3122 134 
Q 2881 22 2623 -34 
Q 2366 -91 2075 -91 
Q 1284 -91 818 406 
Q 353 903 353 1747 
Q 353 2603 823 3093 
Q 1294 3584 2113 3584 
Q 2378 3584 2631 3529 
Q 2884 3475 3122 3366 
z
" transform="scale(0.015625)"/>
       <path id="DejaVuSans-6c" d="M 603 4863 
L 1178 4863 
L 1178 0 
L 603 0 
L 603 4863 
z
" transform="scale(0.015625)"/>
       <path id="DejaVuSans-42" d="M 1259 2228 
L 1259 519 
L 2272 519 
Q 2781 519 3026 730 
Q 3272 941 3272 1375 
Q 3272 1813 3026 2020 
Q 2781 2228 2272 2228 
L 1259 2228 
z
M 1259 4147 
L 1259 2741 
L 2194 2741 
Q 2656 2741 2882 2914 
Q 3109 3088 3109 3444 
Q 3109 3797 2882 3972 
Q 2656 4147 2194 4147 
L 1259 4147 
z
M 628 4666 
L 2241 4666 
Q 2963 4666 3353 4366 
Q 3744 4066 3744 3513 
Q 3744 3084 3544 2831 
Q 3344 2578 2956 2516 
Q 3422 2416 3680 2098 
Q 3938 1781 3938 1306 
Q 3938 681 3513 340 
Q 3088 0 2303 0 
L 628 0 
L 628 4666 
z
" transform="scale(0.015625)"/>
       <path id="DejaVuSans-79" d="M 2059 -325 
Q 1816 -950 1584 -1140 
Q 1353 -1331 966 -1331 
L 506 -1331 
L 506 -850 
L 844 -850 
Q 1081 -850 1212 -737 
Q 1344 -625 1503 -206 
L 1606 56 
L 191 3500 
L 800 3500 
L 1894 763 
L 2988 3500 
L 3597 3500 
L 2059 -325 
z
" transform="scale(0.015625)"/>
       <path id="DejaVuSans-73" d="M 2834 3397 
L 2834 2853 
Q 2591 2978 2328 3040 
Q 2066 3103 1784 3103 
Q 1356 3103 1142 2972 
Q 928 2841 928 2578 
Q 928 2378 1081 2264 
Q 1234 2150 1697 2047 
L 1894 2003 
Q 2506 1872 2764 1633 
Q 3022 1394 3022 966 
Q 3022 478 2636 193 
Q 2250 -91 1575 -91 
Q 1294 -91 989 -36 
Q 684 19 347 128 
L 347 722 
Q 666 556 975 473 
Q 1284 391 1588 391 
Q 1994 391 2212 530 
Q 2431 669 2431 922 
Q 2431 1156 2273 1281 
Q 2116 1406 1581 1522 
L 1381 1569 
Q 847 1681 609 1914 
Q 372 2147 372 2553 
Q 372 3047 722 3315 
Q 1072 3584 1716 3584 
Q 2034 3584 2315 3537 
Q 2597 3491 2834 3397 
z
" transform="scale(0.015625)"/>
       <path id="DejaVuSans-29" d="M 513 4856 
L 1013 4856 
Q 1481 4119 1714 3412 
Q 1947 2706 1947 2009 
Q 1947 1309 1714 600 
Q 1481 -109 1013 -844 
L 513 -844 
Q 928 -128 1133 580 
Q 1338 1288 1338 2009 
Q 1338 2731 1133 3434 
Q 928 4138 513 4856 
z
" transform="scale(0.015625)"/>
      </defs>
      <use xlink:href="#DejaVuSans-53"/>
      <use xlink:href="#DejaVuSans-68" transform="translate(63.476562 0)"/>
      <use xlink:href="#DejaVuSans-72" transform="translate(126.855469 0)"/>
      <use xlink:href="#DejaVuSans-75" transform="translate(167.96875 0)"/>
      <use xlink:href="#DejaVuSans-6e" transform="translate(231.347656 0)"/>
      <use xlink:href="#DejaVuSans-6b" transform="translate(294.726562 0)"/>
      <use xlink:href="#DejaVuSans-20" transform="translate(352.636719 0)"/>
      <use xlink:href="#DejaVuSans-72" transform="translate(384.423828 0)"/>
      <use xlink:href="#DejaVuSans-61" transform="translate(425.537109 0)"/>
      <use xlink:href="#DejaVuSans-74" transform="translate(486.816406 0)"/>
      <use xlink:href="#DejaVuSans-65" transform="translate(526.025391 0)"/>
      <use xlink:href="#DejaVuSans-20" transform="translate(587.548828 0)"/>
      <use xlink:href="#DejaVuSans-28" transform="translate(619.335938 0)"/>
      <use xlink:href="#DejaVuSans-65" transform="translate(658.349609 0)"/>
      <use xlink:href="#DejaVuSans-6d" transform="translate(719.873047 0)"/>
      <use xlink:href="#DejaVuSans-70" transform="translate(817.285156 0)"/>
      <use xlink:href="#DejaVuSans-69" transform="translate(880.761719 0)"/>
      <use xlink:href="#DejaVuSans-72" transform="translate(908.544922 0)"/>
      <use xlink:href="#DejaVuSans-69" transform="translate(949.658203 0)"/>
      <use xlink:href="#DejaVuSans-63" transform="translate(977.441406 0)"/>
      <use xlink:href="#DejaVuSans-61" transform="translate(1032.421875 0)"/>
      <use xlink:href="#DejaVuSans-6c" transform="translate(1093.701172 0)"/>
      <use xlink:href="#DejaVuSans-20" transform="translate(1121.484375 0)"/>
      <use xlink:href="#DejaVuSans-42" transform="translate(1153.271484 0)"/>
      <use xlink:href="#DejaVuSans-61" transform="translate(1221.875 0)"/>
      <use xlink:href="#DejaVuSans-79" transform="translate(1283.154297 0)"/>
      <use xlink:href="#DejaVuSans-65" transform="translate(1342.333984 0)"/>
      <use xlink:href="#DejaVuSans-73" transform="translate(1403.857422 0)"/>
      <use xlink:href="#DejaVuSans-29" transform="translate(1455.957031 0)"/>
     </g>
    </g>
   </g>
   <g id="line2d_25">
    <path d="M 71.241818 442.26 
L 541.678182 46.66 
" clip-path="url(#pddb599ef63)" style="fill: none; stroke-dasharray: 0.8,1.32; stroke-dashoffset: 0; stroke: #888888; stroke-width: 0.8"/>
   </g>
   <g id="line2d_26">
    <path d="M 47.72 367.653978 
L 565.2 367.653978 
" clip-path="url(#pddb599ef63)" style="fill: none; stroke-dasharray: 2.96,1.28; stroke-dashoffset: 0; stroke: #e63946; stroke-width: 0.8"/>
   </g>
   <g id="patch_3">
    <path d="M 47.72 462.04 
L 47.72 26.88 
" style="fill: none; stroke: #000000; stroke-width: 0.8; stroke-linejoin: miter; stroke-linecap: square"/>
   </g>
   <g id="patch_4">
    <path d="M 565.2 462.04 
L 565.2 26.88 
" style="fill: none; stroke: #000000; stroke-width: 0.8; stroke-linejoin: miter; stroke-linecap: square"/>
   </g>
   <g id="patch_5">
    <path d="M 47.72 462.04 
L 565.2 462.04 
" style="fill: none; stroke: #000000; stroke-width: 0.8; stroke-linejoin: miter; stroke-linecap: square"/>
   </g>
   <g id="patch_6">
    <path d="M 47.72 26.88 
L 565.2 26.88 
" style="fill: none; stroke: #000000; stroke-width: 0.8; stroke-linejoin: miter; stroke-linecap: square"/>
   </g>
   <g id="text_15">
    <!-- How much shrinkage moves each video (bubble = n comments) -->
    <g transform="translate(113.57125 20.88) scale(0.12 -0.12)">
     <defs>
      <path id="DejaVuSans-48" d="M 628 4666 
L 1259 4666 
L 1259 2753 
L 3553 2753 
L 3553 4666 
L 4184 4666 
L 4184 0 
L 3553 0 
L 3553 2222 
L 1259 2222 
L 1259 0 
L 628 0 
L 628 4666 
z
" transform="scale(0.015625)"/>
      <path id="DejaVuSans-62" d="M 3116 1747 
Q 3116 2381 2855 2742 
Q 2594 3103 2138 3103 
Q 1681 3103 1420 2742 
Q 1159 2381 1159 1747 
Q 1159 1113 1420 752 
Q 1681 391 2138 391 
Q 2594 391 2855 752 
Q 3116 1113 3116 1747 
z
M 1159 2969 
Q 1341 3281 1617 3432 
Q 1894 3584 2278 3584 
Q 2916 3584 3314 3078 
Q 3713 2572 3713 1747 
Q 3713 922 3314 415 
Q 2916 -91 2278 -91 
Q 1894 -91 1617 61 
Q 1341 213 1159 525 
L 1159 0 
L 581 0 
L 581 4863 
L 1159 4863 
L 1159 2969 
z
" transform="scale(0.015625)"/>
      <path id="DejaVuSans-3d" d="M 678 2906 
L 4684 2906 
L 4684 2381 
L 678 2381 
L 678 2906 
z
M 678 1631 
L 4684 1631 
L 4684 1100 
L 678 1100 
L 678 1631 
z
" transform="scale(0.015625)"/>
     </defs>
     <use xlink:href="#DejaVuSans-48"/>
     <use xlink:href="#DejaVuSans-6f" transform="translate(75.195312 0)"/>
     <use xlink:href="#DejaVuSans-77" transform="translate(136.376953 0)"/>
     <use xlink:href="#DejaVuSans-20" transform="translate(218.164062 0)"/>
     <use xlink:href="#DejaVuSans-6d" transform="translate(249.951172 0)"/>
     <use xlink:href="#DejaVuSans-75" transform="translate(347.363281 0)"/>
     <use xlink:href="#DejaVuSans-63" transform="translate(410.742188 0)"/>
     <use xlink:href="#DejaVuSans-68" transform="translate(465.722656 0)"/>
     <use xlink:href="#DejaVuSans-20" transform="translate(529.101562 0)"/>
     <use xlink:href="#DejaVuSans-73" transform="translate(560.888672 0)"/>
     <use xlink:href="#DejaVuSans-68" transform="translate(612.988281 0)"/>
     <use xlink:href="#DejaVuSans-72" transform="translate(676.367188 0)"/>
     <use xlink:href="#DejaVuSans-69" transform="translate(717.480469 0)"/>
     <use xlink:href="#DejaVuSans-6e" transform="translate(745.263672 0)"/>
     <use xlink:href="#DejaVuSans-6b" transform="translate(808.642578 0)"/>
     <use xlink:href="#DejaVuSans-61" transform="translate(864.802734 0)"/>
     <use xlink:href="#DejaVuSans-67" transform="translate(926.082031 0)"/>
     <use xlink:href="#DejaVuSans-65" transform="translate(989.558594 0)"/>
     <use xlink:href="#DejaVuSans-20" transform="translate(1051.082031 0)"/>
     <use xlink:href="#DejaVuSans-6d" transform="translate(1082.869141 0)"/>
     <use xlink:href="#DejaVuSans-6f" transform="translate(1180.28125 0)"/>
     <use xlink:href="#DejaVuSans-76" transform="translate(1241.462891 0)"/>
     <use xlink:href="#DejaVuSans-65" transform="translate(1300.642578 0)"/>
     <use xlink:href="#DejaVuSans-73" transform="translate(1362.166016 0)"/>
     <use xlink:href="#DejaVuSans-20" transform="translate(1414.265625 0)"/>
     <use xlink:href="#DejaVuSans-65" transform="translate(1446.052734 0)"/>
     <use xlink:href="#DejaVuSans-61" transform="translate(1507.576172 0)"/>
     <use xlink:href="#DejaVuSans-63" transform="translate(1568.855469 0)"/>
     <use xlink:href="#DejaVuSans-68" transform="translate(1623.835938 0)"/>
     <use xlink:href="#DejaVuSans-20" transform="translate(1687.214844 0)"/>
     <use xlink:href="#DejaVuSans-76" transform="translate(1719.001953 0)"/>
     <use xlink:href="#DejaVuSans-69" transform="translate(1778.181641 0)"/>
     <use xlink:href="#DejaVuSans-64" transform="translate(1805.964844 0)"/>
     <use xlink:href="#DejaVuSans-65" transform="translate(1869.441406 0)"/>
     <use xlink:href="#DejaVuSans-6f" transform="translate(1930.964844 0)"/>
     <use xlink:href="#DejaVuSans-20" transform="translate(1992.146484 0)"/>
     <use xlink:href="#DejaVuSans-28" transform="translate(2023.933594 0)"/>
     <use xlink:href="#DejaVuSans-62" transform="translate(2062.947266 0)"/>
     <use xlink:href="#DejaVuSans-75" transform="translate(2126.423828 0)"/>
     <use xlink:href="#DejaVuSans-62" transform="translate(2189.802734 0)"/>
     <use xlink:href="#DejaVuSans-62" transform="translate(2253.279297 0)"/>
     <use xlink:href="#DejaVuSans-6c" transform="translate(2316.755859 0)"/>
     <use xlink:href="#DejaVuSans-65" transform="translate(2344.539062 0)"/>
     <use xlink:href="#DejaVuSans-20" transform="translate(2406.0625 0)"/>
     <use xlink:href="#DejaVuSans-3d" transform="translate(2437.849609 0)"/>
     <use xlink:href="#DejaVuSans-20" transform="translate(2521.638672 0)"/>
     <use xlink:href="#DejaVuSans-6e" transform="translate(2553.425781 0)"/>
     <use xlink:href="#DejaVuSans-20" transform="translate(2616.804688 0)"/>
     <use xlink:href="#DejaVuSans-63" transform="translate(2648.591797 0)"/>
     <use xlink:href="#DejaVuSans-6f" transform="translate(2703.572266 0)"/>
     <use xlink:href="#DejaVuSans-6d" transform="translate(2764.753906 0)"/>
     <use xlink:href="#DejaVuSans-6d" transform="translate(2862.166016 0)"/>
     <use xlink:href="#DejaVuSans-65" transform="translate(2959.578125 0)"/>
     <use xlink:href="#DejaVuSans-6e" transform="translate(3021.101562 0)"/>
     <use xlink:href="#DejaVuSans-74" transform="translate(3084.480469 0)"/>
     <use xlink:href="#DejaVuSans-73" transform="translate(3123.689453 0)"/>
     <use xlink:href="#DejaVuSans-29" transform="translate(3175.789062 0)"/>
    </g>
   </g>
   <g id="legend_1">
    <g id="patch_7">
     <path d="M 423.992187 457.04 
L 558.2 457.04 
Q 560.2 457.04 560.2 455.04 
L 560.2 426.68375 
Q 560.2 424.68375 558.2 424.68375 
L 423.992187 424.68375 
Q 421.992187 424.68375 421.992187 426.68375 
L 421.992187 455.04 
Q 421.992187 457.04 423.992187 457.04 
z
" style="fill: #ffffff; opacity: 0.8; stroke: #cccccc; stroke-linejoin: miter"/>
    </g>
    <g id="line2d_27">
     <path d="M 425.992187 432.782188 
L 435.992187 432.782188 
L 445.992187 432.782188 
" style="fill: none; stroke-dasharray: 0.8,1.32; stroke-dashoffset: 0; stroke: #888888; stroke-width: 0.8"/>
    </g>
    <g id="text_16">
     <!-- y = x (no shrinkage) -->
     <g transform="translate(453.992187 436.282188) scale(0.1 -0.1)">
      <defs>
       <path id="DejaVuSans-78" d="M 3513 3500 
L 2247 1797 
L 3578 0 
L 2900 0 
L 1881 1375 
L 863 0 
L 184 0 
L 1544 1831 
L 300 3500 
L 978 3500 
L 1906 2253 
L 2834 3500 
L 3513 3500 
z
" transform="scale(0.015625)"/>
      </defs>
      <use xlink:href="#DejaVuSans-79"/>
      <use xlink:href="#DejaVuSans-20" transform="translate(59.179688 0)"/>
      <use xlink:href="#DejaVuSans-3d" transform="translate(90.966797 0)"/>
      <use xlink:href="#DejaVuSans-20" transform="translate(174.755859 0)"/>
      <use xlink:href="#DejaVuSans-78" transform="translate(206.542969 0)"/>
      <use xlink:href="#DejaVuSans-20" transform="translate(265.722656 0)"/>
      <use xlink:href="#DejaVuSans-28" transform="translate(297.509766 0)"/>
      <use xlink:href="#DejaVuSans-6e" transform="translate(336.523438 0)"/>
      <use xlink:href="#DejaVuSans-6f" transform="translate(399.902344 0)"/>
      <use xlink:href="#DejaVuSans-20" transform="translate(461.083984 0)"/>
      <use xlink:href="#DejaVuSans-73" transform="translate(492.871094 0)"/>
      <use xlink:href="#DejaVuSans-68" transform="translate(544.970703 0)"/>
      <use xlink:href="#DejaVuSans-72" transform="translate(608.349609 0)"/>
      <use xlink:href="#DejaVuSans-69" transform="translate(649.462891 0)"/>
      <use xlink:href="#DejaVuSans-6e" transform="translate(677.246094 0)"/>
      <use xlink:href="#DejaVuSans-6b" transform="translate(740.625 0)"/>
      <use xlink:href="#DejaVuSans-61" transform="translate(796.785156 0)"/>
      <use xlink:href="#DejaVuSans-67" transform="translate(858.064453 0)"/>
      <use xlink:href="#DejaVuSans-65" transform="translate(921.541016 0)"/>
      <use xlink:href="#DejaVuSans-29" transform="translate(983.064453 0)"/>
     </g>
    </g>
    <g id="line2d_28">
     <path d="M 425.992187 447.460312 
L 435.992187 447.460312 
L 445.992187 447.460312 
" style="fill: none; stroke-dasharray: 2.96,1.28; stroke-dashoffset: 0; stroke: #e63946; stroke-width: 0.8"/>
    </g>
    <g id="text_17">
     <!-- Prior mean (0.19) -->
     <g transform="translate(453.992187 450.960312) scale(0.1 -0.1)">
      <defs>
       <path id="DejaVuSans-50" d="M 1259 4147 
L 1259 2394 
L 2053 2394 
Q 2494 2394 2734 2622 
Q 2975 2850 2975 3272 
Q 2975 3691 2734 3919 
Q 2494 4147 2053 4147 
L 1259 4147 
z
M 628 4666 
L 2053 4666 
Q 2838 4666 3239 4311 
Q 3641 3956 3641 3272 
Q 3641 2581 3239 2228 
Q 2838 1875 2053 1875 
L 1259 1875 
L 1259 0 
L 628 0 
L 628 4666 
z
" transform="scale(0.015625)"/>
       <path id="DejaVuSans-39" d="M 703 97 
L 703 672 
Q 941 559 1184 500 
Q 1428 441 1663 441 
Q 2288 441 2617 861 
Q 2947 1281 2994 2138 
Q 2813 1869 2534 1725 
Q 2256 1581 1919 1581 
Q 1219 1581 811 2004 
Q 403 2428 403 3163 
Q 403 3881 828 4315 
Q 1253 4750 1959 4750 
Q 2769 4750 3195 4129 
Q 3622 3509 3622 2328 
Q 3622 1225 3098 567 
Q 2575 -91 1691 -91 
Q 1453 -91 1209 -44 
Q 966 3 703 97 
z
M 1959 2075 
Q 2384 2075 2632 2365 
Q 2881 2656 2881 3163 
Q 2881 3666 2632 3958 
Q 2384 4250 1959 4250 
Q 1534 4250 1286 3958 
Q 1038 3666 1038 3163 
Q 1038 2656 1286 2365 
Q 1534 2075 1959 2075 
z
" transform="scale(0.015625)"/>
      </defs>
      <use xlink:href="#DejaVuSans-50"/>
      <use xlink:href="#DejaVuSans-72" transform="translate(58.552734 0)"/>
      <use xlink:href="#DejaVuSans-69" transform="translate(99.666016 0)"/>
      <use xlink:href="#DejaVuSans-6f" transform="translate(127.449219 0)"/>
      <use xlink:href="#DejaVuSans-72" transform="translate(188.630859 0)"/>
      <use xlink:href="#DejaVuSans-20" transform="translate(229.744141 0)"/>
      <use xlink:href="#DejaVuSans-6d" transform="translate(261.53125 0)"/>
      <use xlink:href="#DejaVuSans-65" transform="translate(358.943359 0)"/>
      <use xlink:href="#DejaVuSans-61" transform="translate(420.466797 0)"/>
      <use xlink:href="#DejaVuSans-6e" transform="translate(481.746094 0)"/>
      <use xlink:href="#DejaVuSans-20" transform="translate(545.125 0)"/>
      <use xlink:href="#DejaVuSans-28" transform="translate(576.912109 0)"/>
      <use xlink:href="#DejaVuSans-30" transform="translate(615.925781 0)"/>
      <use xlink:href="#DejaVuSans-2e" transform="translate(679.548828 0)"/>
      <use xlink:href="#DejaVuSans-31" transform="translate(711.335938 0)"/>
      <use xlink:href="#DejaVuSans-39" transform="translate(774.958984 0)"/>
      <use xlink:href="#DejaVuSans-29" transform="translate(838.582031 0)"/>
     </g>
    </g>
   </g>
  </g>
 </g>
 <defs>
  <clipPath id="pddb599ef63">
   <rect x="47.72" y="26.88" width="517.48" height="435.16"/>
  </clipPath>
 </defs>
</svg>
