<?xml version="1.0" encoding="utf-8" standalone="no"?>
<!DOCTYPE svg PUBLIC "-//W3C//DTD SVG 1.1//EN"
  "http://www.w3.org/Graphics/SVG/1.1/DTD/svg11.dtd">
<svg xmlns:xlink="http://www.w3.org/1999/xlink" width="720pt" height="504pt" viewBox="0 0 720 504" xmlns="http://www.w3.org/2000/svg" version="1.1">
 <metadata>
  <rdf:RDF xmlns:dc="http://purl.org/dc/elements/1.1/" xmlns:cc="http://creativecommons.org/ns#" xmlns:rdf="http://www.w3.org/1999/02/22-rdf-syntax-ns#">
   <cc:Work>
    <dc:type rdf:resource="http://purl.org/dc/dcmitype/StillImage"/>
    <dc:date>2026-04-15T14:25:32.261653</dc:date>
    <dc:format>image/svg+xml</dc:format>
    <dc:creator>
     <cc:Agent>
      <dc:title>Matplotlib v3.10.8, https://matplotlib.org/</dc:title>
     </cc:Agent>
    </dc:creator>
   </cc:Work>
  </rdf:RDF>
 </metadata>
 <defs>
  <style type="text/css">*{stroke-linejoin: round; stroke-linecap: butt}</style>
 </defs>
 <g id="figure_1">
  <g id="patch_1">
   <path d="M 0 504 
L 720 504 
L 720 0 
L 0 0 
z
" style="fill: #ffffff"/>
  </g>
  <g id="axes_1">
   <g id="patch_2">
    <path d="M 50.87 462.04 
L 651.003636 462.04 
L 651.003636 26.88 
L 50.87 26.88 
z
" style="fill: #ffffff"/>
   </g>
   <g id="PathCollection_1">
    <path d="M 144.581893 453.305361 
C 147.511157 453.305361 150.32084 452.141552 152.392142 450.07025 
C 154.463445 447.998947 155.627254 445.189264 155.627254 442.26 
C 155.627254 439.330736 154.463445 436.521053 152.392142 434.44975 
C 150.32084 432.378448 147.511157 431.214639 144.581893 431.214639 
C 141.652629 431.214639 138.842945 432.378448 136.771643 434.44975 
C 134.700341 436.521053 133.536532 439.330736 133.536532 442.26 
C 133.536532 445.189264 134.700341 447.998947 136.771643 450.07025 
C 138.842945 452.141552 141.652629 453.305361 144.581893 453.305361 
z
" clip-path="url(#p9fae92e42c)" style="fill: #1d3557; fill-opacity: 0.55; stroke: #333333; stroke-opacity: 0.55; stroke-width: 0.6"/>
    <path d="M 623.724835 446.895532 
C 625.618764 446.895532 627.435377 446.143066 628.774587 444.803856 
C 630.113797 443.464646 630.866263 441.648032 630.866263 439.754103 
C 630.866263 437.860174 630.113797 436.043561 628.774587 434.704351 
C 627.435377 433.365141 625.618764 432.612675 623.724835 432.612675 
C 621.830906 432.612675 620.014292 433.365141 618.675082 434.704351 
C 617.335872 436.043561 616.583406 437.860174 616.583406 439.754103 
C 616.583406 441.648032 617.335872 443.464646 618.675082 444.803856 
C 620.014292 446.143066 621.830906 446.895532 623.724835 446.895532 
z
" clip-path="url(#p9fae92e42c)" style="fill: #1d3557; fill-opacity: 0.55; stroke: #333333; stroke-opacity: 0.55; stroke-width: 0.6"/>
    <path d="M 155.983665 410.621088 
C 157.868287 410.621088 159.675974 409.87232 161.008603 408.539691 
C 162.341232 407.207062 163.09 405.399375 163.09 403.514753 
C 163.09 401.630131 162.341232 399.822444 161.008603 398.489815 
C 159.675974 397.157186 157.868287 396.408418 155.983665 396.408418 
C 154.099043 396.408418 152.291356 397.157186 150.958727 398.489815 
C 149.626098 399.822444 148.87733 401.630131 148.87733 403.514753 
C 148.87733 405.399375 149.626098 407.207062 150.958727 408.539691 
C 152.291356 409.87232 154.099043 410.621088 155.983665 410.621088 
z
" clip-path="url(#p9fae92e42c)" style="fill: #1d3557; fill-opacity: 0.55; stroke: #333333; stroke-opacity: 0.55; stroke-width: 0.6"/>
    <path d="M 166.225094 448.287604 
C 168.013987 448.287604 169.729852 447.576869 170.99479 446.311931 
C 172.259729 445.046993 172.970463 443.331128 172.970463 441.542235 
C 172.970463 439.753342 172.259729 438.037477 170.99479 436.772539 
C 169.729852 435.507601 168.013987 434.796866 166.225094 434.796866 
C 164.436202 434.796866 162.720337 435.507601 161.455398 436.772539 
C 160.19046 438.037477 159.479726 439.753342 159.479726 441.542235 
C 159.479726 443.331128 160.19046 445.046993 161.455398 446.311931 
C 162.720337 447.576869 164.436202 448.287604 166.225094 448.287604 
z
" clip-path="url(#p9fae92e42c)" style="fill: #1d3557; fill-opacity: 0.55; stroke: #333333; stroke-opacity: 0.55; stroke-width: 0.6"/>
    <path d="M 102.01261 425.437736 
C 103.536086 425.437736 104.997369 424.832452 106.074629 423.755192 
C 107.151889 422.677932 107.757173 421.216649 107.757173 419.693173 
C 107.757173 418.169697 107.151889 416.708414 106.074629 415.631154 
C 104.997369 414.553894 103.536086 413.948611 102.01261 413.948611 
C 100.489134 413.948611 99.027851 414.553894 97.950591 415.631154 
C 96.873331 416.708414 96.268047 418.169697 96.268047 419.693173 
C 96.268047 421.216649 96.873331 422.677932 97.950591 423.755192 
C 99.027851 424.832452 100.489134 425.437736 102.01261 425.437736 
z
" clip-path="url(#p9fae92e42c)" style="fill: #1d3557; fill-opacity: 0.55; stroke: #333333; stroke-opacity: 0.55; stroke-width: 0.6"/>
    <path d="M 78.148802 439.701769 
C 79.62539 439.701769 81.0417 439.115114 82.085806 438.071008 
C 83.129911 437.026903 83.716566 435.610593 83.716566 434.134004 
C 83.716566 432.657416 83.129911 431.241106 82.085806 430.197 
C 81.0417 429.152895 79.62539 428.56624 78.148802 428.56624 
C 76.672213 428.56624 75.255903 429.152895 74.211798 430.197 
C 73.167692 431.241106 72.581037 432.657416 72.581037 434.134004 
C 72.581037 435.610593 73.167692 437.026903 74.211798 438.071008 
C 75.255903 439.115114 76.672213 439.701769 78.148802 439.701769 
z
" clip-path="url(#p9fae92e42c)" style="fill: #1d3557; fill-opacity: 0.55; stroke: #333333; stroke-opacity: 0.55; stroke-width: 0.6"/>
    <path d="M 91.377652 439.932426 
C 92.842284 439.932426 94.247126 439.350522 95.282777 438.314871 
C 96.318428 437.279219 96.900332 435.874378 96.900332 434.409746 
C 96.900332 432.945114 96.318428 431.540272 95.282777 430.504621 
C 94.247126 429.46897 92.842284 428.887065 91.377652 428.887065 
C 89.91302 428.887065 88.508178 429.46897 87.472527 430.504621 
C 86.436876 431.540272 85.854971 432.945114 85.854971 434.409746 
C 85.854971 435.874378 86.436876 437.279219 87.472527 438.314871 
C 88.508178 439.350522 89.91302 439.932426 91.377652 439.932426 
z
" clip-path="url(#p9fae92e42c)" style="fill: #1d3557; fill-opacity: 0.55; stroke: #333333; stroke-opacity: 0.55; stroke-width: 0.6"/>
    <path d="M 173.231163 446.641432 
C 174.516783 446.641432 175.74992 446.13065 176.65899 445.221579 
C 177.568061 444.312509 178.078843 443.079372 178.078843 441.793752 
C 178.078843 440.508132 177.568061 439.274995 176.65899 438.365925 
C 175.74992 437.456854 174.516783 436.946072 173.231163 436.946072 
C 171.945543 436.946072 170.712406 437.456854 169.803336 438.365925 
C 168.894265 439.274995 168.383483 440.508132 168.383483 441.793752 
C 168.383483 443.079372 168.894265 444.312509 169.803336 445.221579 
C 170.712406 446.13065 171.945543 446.641432 173.231163 446.641432 
z
" clip-path="url(#p9fae92e42c)" style="fill: #1d3557; fill-opacity: 0.55; stroke: #333333; stroke-opacity: 0.55; stroke-width: 0.6"/>
    <path d="M 113.944514 375.1941 
C 115.005327 375.1941 116.022834 374.772634 116.772941 374.022527 
C 117.523049 373.272419 117.944514 372.254912 117.944514 371.1941 
C 117.944514 370.133287 117.523049 369.11578 116.772941 368.365672 
C 116.022834 367.615565 115.005327 367.1941 113.944514 367.1941 
C 112.883702 367.1941 111.866195 367.615565 111.116087 368.365672 
C 110.365979 369.11578 109.944514 370.133287 109.944514 371.1941 
C 109.944514 372.254912 110.365979 373.272419 111.116087 374.022527 
C 111.866195 374.772634 112.883702 375.1941 113.944514 375.1941 
z
" clip-path="url(#p9fae92e42c)" style="fill: #1d3557; fill-opacity: 0.55; stroke: #333333; stroke-opacity: 0.55; stroke-width: 0.6"/>
    <path d="M 78.148802 50.532983 
C 79.175929 50.532983 80.161126 50.124901 80.887414 49.398613 
C 81.613703 48.672324 82.021785 47.687127 82.021785 46.66 
C 82.021785 45.632873 81.613703 44.647676 80.887414 43.921387 
C 80.161126 43.195099 79.175929 42.787017 78.148802 42.787017 
C 77.121674 42.787017 76.136477 43.195099 75.410189 43.921387 
C 74.6839 44.647676 74.275818 45.632873 74.275818 46.66 
C 74.275818 47.687127 74.6839 48.672324 75.410189 49.398613 
C 76.136477 50.124901 77.121674 50.532983 78.148802 50.532983 
z
" clip-path="url(#p9fae92e42c)" style="fill: #1d3557; fill-opacity: 0.55; stroke: #333333; stroke-opacity: 0.55; stroke-width: 0.6"/>
   </g>
   <g id="matplotlib.axis_1">
    <g id="xtick_1">
     <g id="line2d_1">
      <path d="M 78.148802 462.04 
L 78.148802 26.88 
" clip-path="url(#p9fae92e42c)" style="fill: none; stroke-dasharray: 0.8,1.32; stroke-dashoffset: 0; stroke: #b0b0b0; stroke-opacity: 0.5; stroke-width: 0.8"/>
     </g>
     <g id="line2d_2">
      <defs>
       <path id="m1738000caa" d="M 0 0 
L 0 3.5 
" style="stroke: #000000; stroke-width: 0.8"/>
      </defs>
      <g>
       <use xlink:href="#m1738000caa" x="78.148802" y="462.04" style="stroke: #000000; stroke-width: 0.8"/>
      </g>
     </g>
     <g id="text_1">
      <!-- 0.0 -->
      <g transform="translate(70.197239 476.638438) scale(0.1 -0.1)">
       <defs>
        <path id="DejaVuSans-30" d="M 2034 4250 
Q 1547 4250 1301 3770 
Q 1056 3291 1056 2328 
Q 1056 1369 1301 889 
Q 1547 409 2034 409 
Q 2525 409 2770 889 
Q 3016 1369 3016 2328 
Q 3016 3291 2770 3770 
Q 2525 4250 2034 4250 
z
M 2034 4750 
Q 2819 4750 3233 4129 
Q 3647 3509 3647 2328 
Q 3647 1150 3233 529 
Q 2819 -91 2034 -91 
Q 1250 -91 836 529 
Q 422 1150 422 2328 
Q 422 3509 836 4129 
Q 1250 4750 2034 4750 
z
" transform="scale(0.015625)"/>
        <path id="DejaVuSans-2e" d="M 684 794 
L 1344 794 
L 1344 0 
L 684 0 
L 684 794 
z
" transform="scale(0.015625)"/>
       </defs>
       <use xlink:href="#DejaVuSans-30"/>
       <use xlink:href="#DejaVuSans-2e" transform="translate(63.623047 0)"/>
       <use xlink:href="#DejaVuSans-30" transform="translate(95.410156 0)"/>
      </g>
     </g>
    </g>
    <g id="xtick_2">
     <g id="line2d_3">
      <path d="M 199.854224 462.04 
L 199.854224 26.88 
" clip-path="url(#p9fae92e42c)" style="fill: none; stroke-dasharray: 0.8,1.32; stroke-dashoffset: 0; stroke: #b0b0b0; stroke-opacity: 0.5; stroke-width: 0.8"/>
     </g>
     <g id="line2d_4">
      <g>
       <use xlink:href="#m1738000caa" x="199.854224" y="462.04" style="stroke: #000000; stroke-width: 0.8"/>
      </g>
     </g>
     <g id="text_2">
      <!-- 0.2 -->
      <g transform="translate(191.902662 476.638438) scale(0.1 -0.1)">
       <defs>
        <path id="DejaVuSans-32" d="M 1228 531 
L 3431 531 
L 3431 0 
L 469 0 
L 469 531 
Q 828 903 1448 1529 
Q 2069 2156 2228 2338 
Q 2531 2678 2651 2914 
Q 2772 3150 2772 3378 
Q 2772 3750 2511 3984 
Q 2250 4219 1831 4219 
Q 1534 4219 1204 4116 
Q 875 4013 500 3803 
L 500 4441 
Q 881 4594 1212 4672 
Q 1544 4750 1819 4750 
Q 2544 4750 2975 4387 
Q 3406 4025 3406 3419 
Q 3406 3131 3298 2873 
Q 3191 2616 2906 2266 
Q 2828 2175 2409 1742 
Q 1991 1309 1228 531 
z
" transform="scale(0.015625)"/>
       </defs>
       <use xlink:href="#DejaVuSans-30"/>
       <use xlink:href="#DejaVuSans-2e" transform="translate(63.623047 0)"/>
       <use xlink:href="#DejaVuSans-32" transform="translate(95.410156 0)"/>
      </g>
     </g>
    </g>
    <g id="xtick_3">
     <g id="line2d_5">
      <path d="M 321.559647 462.04 
L 321.559647 26.88 
" clip-path="url(#p9fae92e42c)" style="fill: none; stroke-dasharray: 0.8,1.32; stroke-dashoffset: 0; stroke: #b0b0b0; stroke-opacity: 0.5; stroke-width: 0.8"/>
     </g>
     <g id="line2d_6">
      <g>
       <use xlink:href="#m1738000caa" x="321.559647" y="462.04" style="stroke: #000000; stroke-width: 0.8"/>
      </g>
     </g>
     <g id="text_3">
      <!-- 0.4 -->
      <g transform="translate(313.608085 476.638438) scale(0.1 -0.1)">
       <defs>
        <path id="DejaVuSans-34" d="M 2419 4116 
L 825 1625 
L 2419 1625 
L 2419 4116 
z
M 2253 4666 
L 3047 4666 
L 3047 1625 
L 3713 1625 
L 3713 1100 
L 3047 1100 
L 3047 0 
L 2419 0 
L 2419 1100 
L 313 1100 
L 313 1709 
L 2253 4666 
z
" transform="scale(0.015625)"/>
       </defs>
       <use xlink:href="#DejaVuSans-30"/>
       <use xlink:href="#DejaVuSans-2e" transform="translate(63.623047 0)"/>
       <use xlink:href="#DejaVuSans-34" transform="translate(95.410156 0)"/>
      </g>
     </g>
    </g>
    <g id="xtick_4">
     <g id="line2d_7">
      <path d="M 443.26507 462.04 
L 443.26507 26.88 
" clip-path="url(#p9fae92e42c)" style="fill: none; stroke-dasharray: 0.8,1.32; stroke-dashoffset: 0; stroke: #b0b0b0; stroke-opacity: 0.5; stroke-width: 0.8"/>
     </g>
     <g id="line2d_8">
      <g>
       <use xlink:href="#m1738000caa" x="443.26507" y="462.04" style="stroke: #000000; stroke-width: 0.8"/>
      </g>
     </g>
     <g id="text_4">
      <!-- 0.6 -->
      <g transform="translate(435.313507 476.638438) scale(0.1 -0.1)">
       <defs>
        <path id="DejaVuSans-36" d="M 2113 2584 
Q 1688 2584 1439 2293 
Q 1191 2003 1191 1497 
Q 1191 994 1439 701 
Q 1688 409 2113 409 
Q 2538 409 2786 701 
Q 3034 994 3034 1497 
Q 3034 2003 2786 2293 
Q 2538 2584 2113 2584 
z
M 3366 4563 
L 3366 3988 
Q 3128 4100 2886 4159 
Q 2644 4219 2406 4219 
Q 1781 4219 1451 3797 
Q 1122 3375 1075 2522 
Q 1259 2794 1537 2939 
Q 1816 3084 2150 3084 
Q 2853 3084 3261 2657 
Q 3669 2231 3669 1497 
Q 3669 778 3244 343 
Q 2819 -91 2113 -91 
Q 1303 -91 875 529 
Q 447 1150 447 2328 
Q 447 3434 972 4092 
Q 1497 4750 2381 4750 
Q 2619 4750 2861 4703 
Q 3103 4656 3366 4563 
z
" transform="scale(0.015625)"/>
       </defs>
       <use xlink:href="#DejaVuSans-30"/>
       <use xlink:href="#DejaVuSans-2e" transform="translate(63.623047 0)"/>
       <use xlink:href="#DejaVuSans-36" transform="translate(95.410156 0)"/>
      </g>
     </g>
    </g>
    <g id="xtick_5">
     <g id="line2d_9">
      <path d="M 564.970493 462.04 
L 564.970493 26.88 
" clip-path="url(#p9fae92e42c)" style="fill: none; stroke-dasharray: 0.8,1.32; stroke-dashoffset: 0; stroke: #b0b0b0; stroke-opacity: 0.5; stroke-width: 0.8"/>
     </g>
     <g id="line2d_10">
      <g>
       <use xlink:href="#m1738000caa" x="564.970493" y="462.04" style="stroke: #000000; stroke-width: 0.8"/>
      </g>
     </g>
     <g id="text_5">
      <!-- 0.8 -->
      <g transform="translate(557.01893 476.638438) scale(0.1 -0.1)">
       <defs>
        <path id="DejaVuSans-38" d="M 2034 2216 
Q 1584 2216 1326 1975 
Q 1069 1734 1069 1313 
Q 1069 891 1326 650 
Q 1584 409 2034 409 
Q 2484 409 2743 651 
Q 3003 894 3003 1313 
Q 3003 1734 2745 1975 
Q 2488 2216 2034 2216 
z
M 1403 2484 
Q 997 2584 770 2862 
Q 544 3141 544 3541 
Q 544 4100 942 4425 
Q 1341 4750 2034 4750 
Q 2731 4750 3128 4425 
Q 3525 4100 3525 3541 
Q 3525 3141 3298 2862 
Q 3072 2584 2669 2484 
Q 3125 2378 3379 2068 
Q 3634 1759 3634 1313 
Q 3634 634 3220 271 
Q 2806 -91 2034 -91 
Q 1263 -91 848 271 
Q 434 634 434 1313 
Q 434 1759 690 2068 
Q 947 2378 1403 2484 
z
M 1172 3481 
Q 1172 3119 1398 2916 
Q 1625 2713 2034 2713 
Q 2441 2713 2670 2916 
Q 2900 3119 2900 3481 
Q 2900 3844 2670 4047 
Q 2441 4250 2034 4250 
Q 1625 4250 1398 4047 
Q 1172 3844 1172 3481 
z
" transform="scale(0.015625)"/>
       </defs>
       <use xlink:href="#DejaVuSans-30"/>
       <use xlink:href="#DejaVuSans-2e" transform="translate(63.623047 0)"/>
       <use xlink:href="#DejaVuSans-38" transform="translate(95.410156 0)"/>
      </g>
     </g>
    </g>
    <g id="text_6">
     <!-- High watch-intent rate -->
     <g transform="translate(294.551662 490.316563) scale(0.1 -0.1)">
      <defs>
       <path id="DejaVuSans-48" d="M 628 4666 
L 1259 4666 
L 1259 2753 
L 3553 2753 
L 3553 4666 
L 4184 4666 
L 4184 0 
L 3553 0 
L 3553 2222 
L 1259 2222 
L 1259 0 
L 628 0 
L 628 4666 
z
" transform="scale(0.015625)"/>
       <path id="DejaVuSans-69" d="M 603 3500 
L 1178 3500 
L 1178 0 
L 603 0 
L 603 3500 
z
M 603 4863 
L 1178 4863 
L 1178 4134 
L 603 4134 
L 603 4863 
z
" transform="scale(0.015625)"/>
       <path id="DejaVuSans-67" d="M 2906 1791 
Q 2906 2416 2648 2759 
Q 2391 3103 1925 3103 
Q 1463 3103 1205 2759 
Q 947 2416 947 1791 
Q 947 1169 1205 825 
Q 1463 481 1925 481 
Q 2391 481 2648 825 
Q 2906 1169 2906 1791 
z
M 3481 434 
Q 3481 -459 3084 -895 
Q 2688 -1331 1869 -1331 
Q 1566 -1331 1297 -1286 
Q 1028 -1241 775 -1147 
L 775 -588 
Q 1028 -725 1275 -790 
Q 1522 -856 1778 -856 
Q 2344 -856 2625 -561 
Q 2906 -266 2906 331 
L 2906 616 
Q 2728 306 2450 153 
Q 2172 0 1784 0 
Q 1141 0 747 490 
Q 353 981 353 1791 
Q 353 2603 747 3093 
Q 1141 3584 1784 3584 
Q 2172 3584 2450 3431 
Q 2728 3278 2906 2969 
L 2906 3500 
L 3481 3500 
L 3481 434 
z
" transform="scale(0.015625)"/>
       <path id="DejaVuSans-68" d="M 3513 2113 
L 3513 0 
L 2938 0 
L 2938 2094 
Q 2938 2591 2744 2837 
Q 2550 3084 2163 3084 
Q 1697 3084 1428 2787 
Q 1159 2491 1159 1978 
L 1159 0 
L 581 0 
L 581 4863 
L 1159 4863 
L 1159 2956 
Q 1366 3272 1645 3428 
Q 1925 3584 2291 3584 
Q 2894 3584 3203 3211 
Q 3513 2838 3513 2113 
z
" transform="scale(0.015625)"/>
       <path id="DejaVuSans-20" transform="scale(0.015625)"/>
       <path id="DejaVuSans-77" d="M 269 3500 
L 844 3500 
L 1563 769 
L 2278 3500 
L 2956 3500 
L 3675 769 
L 4391 3500 
L 4966 3500 
L 4050 0 
L 3372 0 
L 2619 2869 
L 1863 0 
L 1184 0 
L 269 3500 
z
" transform="scale(0.015625)"/>
       <path id="DejaVuSans-61" d="M 2194 1759 
Q 1497 1759 1228 1600 
Q 959 1441 959 1056 
Q 959 750 1161 570 
Q 1363 391 1709 391 
Q 2188 391 2477 730 
Q 2766 1069 2766 1631 
L 2766 1759 
L 2194 1759 
z
M 3341 1997 
L 3341 0 
L 2766 0 
L 2766 531 
Q 2569 213 2275 61 
Q 1981 -91 1556 -91 
Q 1019 -91 701 211 
Q 384 513 384 1019 
Q 384 1609 779 1909 
Q 1175 2209 1959 2209 
L 2766 2209 
L 2766 2266 
Q 2766 2663 2505 2880 
Q 2244 3097 1772 3097 
Q 1472 3097 1187 3025 
Q 903 2953 641 2809 
L 641 3341 
Q 956 3463 1253 3523 
Q 1550 3584 1831 3584 
Q 2591 3584 2966 3190 
Q 3341 2797 3341 1997 
z
" transform="scale(0.015625)"/>
       <path id="DejaVuSans-74" d="M 1172 4494 
L 1172 3500 
L 2356 3500 
L 2356 3053 
L 1172 3053 
L 1172 1153 
Q 1172 725 1289 603 
Q 1406 481 1766 481 
L 2356 481 
L 2356 0 
L 1766 0 
Q 1100 0 847 248 
Q 594 497 594 1153 
L 594 3053 
L 172 3053 
L 172 3500 
L 594 3500 
L 594 4494 
L 1172 4494 
z
" transform="scale(0.015625)"/>
       <path id="DejaVuSans-63" d="M 3122 3366 
L 3122 2828 
Q 2878 2963 2633 3030 
Q 2388 3097 2138 3097 
Q 1578 3097 1268 2742 
Q 959 2388 959 1747 
Q 959 1106 1268 751 
Q 1578 397 2138 397 
Q 2388 397 2633 464 
Q 2878 531 3122 666 
L 3122 134 
Q 2881 22 2623 -34 
Q 2366 -91 2075 -91 
Q 1284 -91 818 406 
Q 353 903 353 1747 
Q 353 2603 823 3093 
Q 1294 3584 2113 3584 
Q 2378 3584 2631 3529 
Q 2884 3475 3122 3366 
z
" transform="scale(0.015625)"/>
       <path id="DejaVuSans-2d" d="M 313 2009 
L 1997 2009 
L 1997 1497 
L 313 1497 
L 313 2009 
z
" transform="scale(0.015625)"/>
       <path id="DejaVuSans-6e" d="M 3513 2113 
L 3513 0 
L 2938 0 
L 2938 2094 
Q 2938 2591 2744 2837 
Q 2550 3084 2163 3084 
Q 1697 3084 1428 2787 
Q 1159 2491 1159 1978 
L 1159 0 
L 581 0 
L 581 3500 
L 1159 3500 
L 1159 2956 
Q 1366 3272 1645 3428 
Q 1925 3584 2291 3584 
Q 2894 3584 3203 3211 
Q 3513 2838 3513 2113 
z
" transform="scale(0.015625)"/>
       <path id="DejaVuSans-65" d="M 3597 1894 
L 3597 1613 
L 953 1613 
Q 991 1019 1311 708 
Q 1631 397 2203 397 
Q 2534 397 2845 478 
Q 3156 559 3463 722 
L 3463 178 
Q 3153 47 2828 -22 
Q 2503 -91 2169 -91 
Q 1331 -91 842 396 
Q 353 884 353 1716 
Q 353 2575 817 3079 
Q 1281 3584 2069 3584 
Q 2775 3584 3186 3129 
Q 3597 2675 3597 1894 
z
M 3022 2063 
Q 3016 2534 2758 2815 
Q 2500 3097 2075 3097 
Q 1594 3097 1305 2825 
Q 1016 2553 972 2059 
L 3022 2063 
z
" transform="scale(0.015625)"/>
       <path id="DejaVuSans-72" d="M 2631 2963 
Q 2534 3019 2420 3045 
Q 2306 3072 2169 3072 
Q 1681 3072 1420 2755 
Q 1159 2438 1159 1844 
L 1159 0 
L 581 0 
L 581 3500 
L 1159 3500 
L 1159 2956 
Q 1341 3275 1631 3429 
Q 1922 3584 2338 3584 
Q 2397 3584 2469 3576 
Q 2541 3569 2628 3553 
L 2631 2963 
z
" transform="scale(0.015625)"/>
      </defs>
      <use xlink:href="#DejaVuSans-48"/>
      <use xlink:href="#DejaVuSans-69" transform="translate(75.195312 0)"/>
      <use xlink:href="#DejaVuSans-67" transform="translate(102.978516 0)"/>
      <use xlink:href="#DejaVuSans-68" transform="translate(166.455078 0)"/>
      <use xlink:href="#DejaVuSans-20" transform="translate(229.833984 0)"/>
      <use xlink:href="#DejaVuSans-77" transform="translate(261.621094 0)"/>
      <use xlink:href="#DejaVuSans-61" transform="translate(343.408203 0)"/>
      <use xlink:href="#DejaVuSans-74" transform="translate(404.6875 0)"/>
      <use xlink:href="#DejaVuSans-63" transform="translate(443.896484 0)"/>
      <use xlink:href="#DejaVuSans-68" transform="translate(498.876953 0)"/>
      <use xlink:href="#DejaVuSans-2d" transform="translate(562.255859 0)"/>
      <use xlink:href="#DejaVuSans-69" transform="translate(598.339844 0)"/>
      <use xlink:href="#DejaVuSans-6e" transform="translate(626.123047 0)"/>
      <use xlink:href="#DejaVuSans-74" transform="translate(689.501953 0)"/>
      <use xlink:href="#DejaVuSans-65" transform="translate(728.710938 0)"/>
      <use xlink:href="#DejaVuSans-6e" transform="translate(790.234375 0)"/>
      <use xlink:href="#DejaVuSans-74" transform="translate(853.613281 0)"/>
      <use xlink:href="#DejaVuSans-20" transform="translate(892.822266 0)"/>
      <use xlink:href="#DejaVuSans-72" transform="translate(924.609375 0)"/>
      <use xlink:href="#DejaVuSans-61" transform="translate(965.722656 0)"/>
      <use xlink:href="#DejaVuSans-74" transform="translate(1027.001953 0)"/>
      <use xlink:href="#DejaVuSans-65" transform="translate(1066.210938 0)"/>
     </g>
    </g>
   </g>
   <g id="matplotlib.axis_2">
    <g id="ytick_1">
     <g id="line2d_11">
      <path d="M 50.87 444.98003 
L 651.003636 444.98003 
" clip-path="url(#p9fae92e42c)" style="fill: none; stroke-dasharray: 0.8,1.32; stroke-dashoffset: 0; stroke: #b0b0b0; stroke-opacity: 0.5; stroke-width: 0.8"/>
     </g>
     <g id="line2d_12">
      <defs>
       <path id="mbb7956edcb" d="M 0 0 
L -3.5 0 
" style="stroke: #000000; stroke-width: 0.8"/>
      </defs>
      <g>
       <use xlink:href="#mbb7956edcb" x="50.87" y="444.98003" style="stroke: #000000; stroke-width: 0.8"/>
      </g>
     </g>
     <g id="text_7">
      <!-- 0 -->
      <g transform="translate(37.5075 448.779249) scale(0.1 -0.1)">
       <use xlink:href="#DejaVuSans-30"/>
      </g>
     </g>
    </g>
    <g id="ytick_2">
     <g id="line2d_13">
      <path d="M 50.87 395.080417 
L 651.003636 395.080417 
" clip-path="url(#p9fae92e42c)" style="fill: none; stroke-dasharray: 0.8,1.32; stroke-dashoffset: 0; stroke: #b0b0b0; stroke-opacity: 0.5; stroke-width: 0.8"/>
     </g>
     <g id="line2d_14">
      <g>
       <use xlink:href="#mbb7956edcb" x="50.87" y="395.080417" style="stroke: #000000; stroke-width: 0.8"/>
      </g>
     </g>
     <g id="text_8">
      <!-- 25 -->
      <g transform="translate(31.145 398.879636) scale(0.1 -0.1)">
       <defs>
        <path id="DejaVuSans-35" d="M 691 4666 
L 3169 4666 
L 3169 4134 
L 1269 4134 
L 1269 2991 
Q 1406 3038 1543 3061 
Q 1681 3084 1819 3084 
Q 2600 3084 3056 2656 
Q 3513 2228 3513 1497 
Q 3513 744 3044 326 
Q 2575 -91 1722 -91 
Q 1428 -91 1123 -41 
Q 819 9 494 109 
L 494 744 
Q 775 591 1075 516 
Q 1375 441 1709 441 
Q 2250 441 2565 725 
Q 2881 1009 2881 1497 
Q 2881 1984 2565 2268 
Q 2250 2553 1709 2553 
Q 1456 2553 1204 2497 
Q 953 2441 691 2322 
L 691 4666 
z
" transform="scale(0.015625)"/>
       </defs>
       <use xlink:href="#DejaVuSans-32"/>
       <use xlink:href="#DejaVuSans-35" transform="translate(63.623047 0)"/>
      </g>
     </g>
    </g>
    <g id="ytick_3">
     <g id="line2d_15">
      <path d="M 50.87 345.180805 
L 651.003636 345.180805 
" clip-path="url(#p9fae92e42c)" style="fill: none; stroke-dasharray: 0.8,1.32; stroke-dashoffset: 0; stroke: #b0b0b0; stroke-opacity: 0.5; stroke-width: 0.8"/>
     </g>
     <g id="line2d_16">
      <g>
       <use xlink:href="#mbb7956edcb" x="50.87" y="345.180805" style="stroke: #000000; stroke-width: 0.8"/>
      </g>
     </g>
     <g id="text_9">
      <!-- 50 -->
      <g transform="translate(31.145 348.980024) scale(0.1 -0.1)">
       <use xlink:href="#DejaVuSans-35"/>
       <use xlink:href="#DejaVuSans-30" transform="translate(63.623047 0)"/>
      </g>
     </g>
    </g>
    <g id="ytick_4">
     <g id="line2d_17">
      <path d="M 50.87 295.281193 
L 651.003636 295.281193 
" clip-path="url(#p9fae92e42c)" style="fill: none; stroke-dasharray: 0.8,1.32; stroke-dashoffset: 0; stroke: #b0b0b0; stroke-opacity: 0.5; stroke-width: 0.8"/>
     </g>
     <g id="line2d_18">
      <g>
       <use xlink:href="#mbb7956edcb" x="50.87" y="295.281193" style="stroke: #000000; stroke-width: 0.8"/>
      </g>
     </g>
     <g id="text_10">
      <!-- 75 -->
      <g transform="translate(31.145 299.080411) scale(0.1 -0.1)">
       <defs>
        <path id="DejaVuSans-37" d="M 525 4666 
L 3525 4666 
L 3525 4397 
L 1831 0 
L 1172 0 
L 2766 4134 
L 525 4134 
L 525 4666 
z
" transform="scale(0.015625)"/>
       </defs>
       <use xlink:href="#DejaVuSans-37"/>
       <use xlink:href="#DejaVuSans-35" transform="translate(63.623047 0)"/>
      </g>
     </g>
    </g>
    <g id="ytick_5">
     <g id="line2d_19">
      <path d="M 50.87 245.38158 
L 651.003636 245.38158 
" clip-path="url(#p9fae92e42c)" style="fill: none; stroke-dasharray: 0.8,1.32; stroke-dashoffset: 0; stroke: #b0b0b0; stroke-opacity: 0.5; stroke-width: 0.8"/>
     </g>
     <g id="line2d_20">
      <g>
       <use xlink:href="#mbb7956edcb" x="50.87" y="245.38158" style="stroke: #000000; stroke-width: 0.8"/>
      </g>
     </g>
     <g id="text_11">
      <!-- 100 -->
      <g transform="translate(24.7825 249.180799) scale(0.1 -0.1)">
       <defs>
        <path id="DejaVuSans-31" d="M 794 531 
L 1825 531 
L 1825 4091 
L 703 3866 
L 703 4441 
L 1819 4666 
L 2450 4666 
L 2450 531 
L 3481 531 
L 3481 0 
L 794 0 
L 794 531 
z
" transform="scale(0.015625)"/>
       </defs>
       <use xlink:href="#DejaVuSans-31"/>
       <use xlink:href="#DejaVuSans-30" transform="translate(63.623047 0)"/>
       <use xlink:href="#DejaVuSans-30" transform="translate(127.246094 0)"/>
      </g>
     </g>
    </g>
    <g id="ytick_6">
     <g id="line2d_21">
      <path d="M 50.87 195.481968 
L 651.003636 195.481968 
" clip-path="url(#p9fae92e42c)" style="fill: none; stroke-dasharray: 0.8,1.32; stroke-dashoffset: 0; stroke: #b0b0b0; stroke-opacity: 0.5; stroke-width: 0.8"/>
     </g>
     <g id="line2d_22">
      <g>
       <use xlink:href="#mbb7956edcb" x="50.87" y="195.481968" style="stroke: #000000; stroke-width: 0.8"/>
      </g>
     </g>
     <g id="text_12">
      <!-- 125 -->
      <g transform="translate(24.7825 199.281187) scale(0.1 -0.1)">
       <use xlink:href="#DejaVuSans-31"/>
       <use xlink:href="#DejaVuSans-32" transform="translate(63.623047 0)"/>
       <use xlink:href="#DejaVuSans-35" transform="translate(127.246094 0)"/>
      </g>
     </g>
    </g>
    <g id="ytick_7">
     <g id="line2d_23">
      <path d="M 50.87 145.582355 
L 651.003636 145.582355 
" clip-path="url(#p9fae92e42c)" style="fill: none; stroke-dasharray: 0.8,1.32; stroke-dashoffset: 0; stroke: #b0b0b0; stroke-opacity: 0.5; stroke-width: 0.8"/>
     </g>
     <g id="line2d_24">
      <g>
       <use xlink:href="#mbb7956edcb" x="50.87" y="145.582355" style="stroke: #000000; stroke-width: 0.8"/>
      </g>
     </g>
     <g id="text_13">
      <!-- 150 -->
      <g transform="translate(24.7825 149.381574) scale(0.1 -0.1)">
       <use xlink:href="#DejaVuSans-31"/>
       <use xlink:href="#DejaVuSans-35" transform="translate(63.623047 0)"/>
       <use xlink:href="#DejaVuSans-30" transform="translate(127.246094 0)"/>
      </g>
     </g>
    </g>
    <g id="ytick_8">
     <g id="line2d_25">
      <path d="M 50.87 95.682743 
L 651.003636 95.682743 
" clip-path="url(#p9fae92e42c)" style="fill: none; stroke-dasharray: 0.8,1.32; stroke-dashoffset: 0; stroke: #b0b0b0; stroke-opacity: 0.5; stroke-width: 0.8"/>
     </g>
     <g id="line2d_26">
      <g>
       <use xlink:href="#mbb7956edcb" x="50.87" y="95.682743" style="stroke: #000000; stroke-width: 0.8"/>
      </g>
     </g>
     <g id="text_14">
      <!-- 175 -->
      <g transform="translate(24.7825 99.481962) scale(0.1 -0.1)">
       <use xlink:href="#DejaVuSans-31"/>
       <use xlink:href="#DejaVuSans-37" transform="translate(63.623047 0)"/>
       <use xlink:href="#DejaVuSans-35" transform="translate(127.246094 0)"/>
      </g>
     </g>
    </g>
    <g id="ytick_9">
     <g id="line2d_27">
      <path d="M 50.87 45.783131 
L 651.003636 45.783131 
" clip-path="url(#p9fae92e42c)" style="fill: none; stroke-dasharray: 0.8,1.32; stroke-dashoffset: 0; stroke: #b0b0b0; stroke-opacity: 0.5; stroke-width: 0.8"/>
     </g>
     <g id="line2d_28">
      <g>
       <use xlink:href="#mbb7956edcb" x="50.87" y="45.783131" style="stroke: #000000; stroke-width: 0.8"/>
      </g>
     </g>
     <g id="text_15">
      <!-- 200 -->
      <g transform="translate(24.7825 49.582349) scale(0.1 -0.1)">
       <use xlink:href="#DejaVuSans-32"/>
       <use xlink:href="#DejaVuSans-30" transform="translate(63.623047 0)"/>
       <use xlink:href="#DejaVuSans-30" transform="translate(127.246094 0)"/>
      </g>
     </g>
    </g>
    <g id="text_16">
     <!-- View lift vs median video (1.0 = baseline) -->
     <g transform="translate(18.702813 348.808437) rotate(-90) scale(0.1 -0.1)">
      <defs>
       <path id="DejaVuSans-56" d="M 1831 0 
L 50 4666 
L 709 4666 
L 2188 738 
L 3669 4666 
L 4325 4666 
L 2547 0 
L 1831 0 
z
" transform="scale(0.015625)"/>
       <path id="DejaVuSans-6c" d="M 603 4863 
L 1178 4863 
L 1178 0 
L 603 0 
L 603 4863 
z
" transform="scale(0.015625)"/>
       <path id="DejaVuSans-66" d="M 2375 4863 
L 2375 4384 
L 1825 4384 
Q 1516 4384 1395 4259 
Q 1275 4134 1275 3809 
L 1275 3500 
L 2222 3500 
L 2222 3053 
L 1275 3053 
L 1275 0 
L 697 0 
L 697 3053 
L 147 3053 
L 147 3500 
L 697 3500 
L 697 3744 
Q 697 4328 969 4595 
Q 1241 4863 1831 4863 
L 2375 4863 
z
" transform="scale(0.015625)"/>
       <path id="DejaVuSans-76" d="M 191 3500 
L 800 3500 
L 1894 563 
L 2988 3500 
L 3597 3500 
L 2284 0 
L 1503 0 
L 191 3500 
z
" transform="scale(0.015625)"/>
       <path id="DejaVuSans-73" d="M 2834 3397 
L 2834 2853 
Q 2591 2978 2328 3040 
Q 2066 3103 1784 3103 
Q 1356 3103 1142 2972 
Q 928 2841 928 2578 
Q 928 2378 1081 2264 
Q 1234 2150 1697 2047 
L 1894 2003 
Q 2506 1872 2764 1633 
Q 3022 1394 3022 966 
Q 3022 478 2636 193 
Q 2250 -91 1575 -91 
Q 1294 -91 989 -36 
Q 684 19 347 128 
L 347 722 
Q 666 556 975 473 
Q 1284 391 1588 391 
Q 1994 391 2212 530 
Q 2431 669 2431 922 
Q 2431 1156 2273 1281 
Q 2116 1406 1581 1522 
L 1381 1569 
Q 847 1681 609 1914 
Q 372 2147 372 2553 
Q 372 3047 722 3315 
Q 1072 3584 1716 3584 
Q 2034 3584 2315 3537 
Q 2597 3491 2834 3397 
z
" transform="scale(0.015625)"/>
       <path id="DejaVuSans-6d" d="M 3328 2828 
Q 3544 3216 3844 3400 
Q 4144 3584 4550 3584 
Q 5097 3584 5394 3201 
Q 5691 2819 5691 2113 
L 5691 0 
L 5113 0 
L 5113 2094 
Q 5113 2597 4934 2840 
Q 4756 3084 4391 3084 
Q 3944 3084 3684 2787 
Q 3425 2491 3425 1978 
L 3425 0 
L 2847 0 
L 2847 2094 
Q 2847 2600 2669 2842 
Q 2491 3084 2119 3084 
Q 1678 3084 1418 2786 
Q 1159 2488 1159 1978 
L 1159 0 
L 581 0 
L 581 3500 
L 1159 3500 
L 1159 2956 
Q 1356 3278 1631 3431 
Q 1906 3584 2284 3584 
Q 2666 3584 2933 3390 
Q 3200 3197 3328 2828 
z
" transform="scale(0.015625)"/>
       <path id="DejaVuSans-64" d="M 2906 2969 
L 2906 4863 
L 3481 4863 
L 3481 0 
L 2906 0 
L 2906 525 
Q 2725 213 2448 61 
Q 2172 -91 1784 -91 
Q 1150 -91 751 415 
Q 353 922 353 1747 
Q 353 2572 751 3078 
Q 1150 3584 1784 3584 
Q 2172 3584 2448 3432 
Q 2725 3281 2906 2969 
z
M 947 1747 
Q 947 1113 1208 752 
Q 1469 391 1925 391 
Q 2381 391 2643 752 
Q 2906 1113 2906 1747 
Q 2906 2381 2643 2742 
Q 2381 3103 1925 3103 
Q 1469 3103 1208 2742 
Q 947 2381 947 1747 
z
" transform="scale(0.015625)"/>
       <path id="DejaVuSans-6f" d="M 1959 3097 
Q 1497 3097 1228 2736 
Q 959 2375 959 1747 
Q 959 1119 1226 758 
Q 1494 397 1959 397 
Q 2419 397 2687 759 
Q 2956 1122 2956 1747 
Q 2956 2369 2687 2733 
Q 2419 3097 1959 3097 
z
M 1959 3584 
Q 2709 3584 3137 3096 
Q 3566 2609 3566 1747 
Q 3566 888 3137 398 
Q 2709 -91 1959 -91 
Q 1206 -91 779 398 
Q 353 888 353 1747 
Q 353 2609 779 3096 
Q 1206 3584 1959 3584 
z
" transform="scale(0.015625)"/>
       <path id="DejaVuSans-28" d="M 1984 4856 
Q 1566 4138 1362 3434 
Q 1159 2731 1159 2009 
Q 1159 1288 1364 580 
Q 1569 -128 1984 -844 
L 1484 -844 
Q 1016 -109 783 600 
Q 550 1309 550 2009 
Q 550 2706 781 3412 
Q 1013 4119 1484 4856 
L 1984 4856 
z
" transform="scale(0.015625)"/>
       <path id="DejaVuSans-3d" d="M 678 2906 
L 4684 2906 
L 4684 2381 
L 678 2381 
L 678 2906 
z
M 678 1631 
L 4684 1631 
L 4684 1100 
L 678 1100 
L 678 1631 
z
" transform="scale(0.015625)"/>
       <path id="DejaVuSans-62" d="M 3116 1747 
Q 3116 2381 2855 2742 
Q 2594 3103 2138 3103 
Q 1681 3103 1420 2742 
Q 1159 2381 1159 1747 
Q 1159 1113 1420 752 
Q 1681 391 2138 391 
Q 2594 391 2855 752 
Q 3116 1113 3116 1747 
z
M 1159 2969 
Q 1341 3281 1617 3432 
Q 1894 3584 2278 3584 
Q 2916 3584 3314 3078 
Q 3713 2572 3713 1747 
Q 3713 922 3314 415 
Q 2916 -91 2278 -91 
Q 1894 -91 1617 61 
Q 1341 213 1159 525 
L 1159 0 
L 581 0 
L 581 4863 
L 1159 4863 
L 1159 2969 
z
" transform="scale(0.015625)"/>
       <path id="DejaVuSans-29" d="M 513 4856 
L 1013 4856 
Q 1481 4119 1714 3412 
Q 1947 2706 1947 2009 
Q 1947 1309 1714 600 
Q 1481 -109 1013 -844 
L 513 -844 
Q 928 -128 1133 580 
Q 1338 1288 1338 2009 
Q 1338 2731 1133 3434 
Q 928 4138 513 4856 
z
" transform="scale(0.015625)"/>
      </defs>
      <use xlink:href="#DejaVuSans-56"/>
      <use xlink:href="#DejaVuSans-69" transform="translate(66.158203 0)"/>
      <use xlink:href="#DejaVuSans-65" transform="translate(93.941406 0)"/>
      <use xlink:href="#DejaVuSans-77" transform="translate(155.464844 0)"/>
      <use xlink:href="#DejaVuSans-20" transform="translate(237.251953 0)"/>
      <use xlink:href="#DejaVuSans-6c" transform="translate(269.039062 0)"/>
      <use xlink:href="#DejaVuSans-69" transform="translate(296.822266 0)"/>
      <use xlink:href="#DejaVuSans-66" transform="translate(324.605469 0)"/>
      <use xlink:href="#DejaVuSans-74" transform="translate(358.060547 0)"/>
      <use xlink:href="#DejaVuSans-20" transform="translate(397.269531 0)"/>
      <use xlink:href="#DejaVuSans-76" transform="translate(429.056641 0)"/>
      <use xlink:href="#DejaVuSans-73" transform="translate(488.236328 0)"/>
      <use xlink:href="#DejaVuSans-20" transform="translate(540.335938 0)"/>
      <use xlink:href="#DejaVuSans-6d" transform="translate(572.123047 0)"/>
      <use xlink:href="#DejaVuSans-65" transform="translate(669.535156 0)"/>
      <use xlink:href="#DejaVuSans-64" transform="translate(731.058594 0)"/>
      <use xlink:href="#DejaVuSans-69" transform="translate(794.535156 0)"/>
      <use xlink:href="#DejaVuSans-61" transform="translate(822.318359 0)"/>
      <use xlink:href="#DejaVuSans-6e" transform="translate(883.597656 0)"/>
      <use xlink:href="#DejaVuSans-20" transform="translate(946.976562 0)"/>
      <use xlink:href="#DejaVuSans-76" transform="translate(978.763672 0)"/>
      <use xlink:href="#DejaVuSans-69" transform="translate(1037.943359 0)"/>
      <use xlink:href="#DejaVuSans-64" transform="translate(1065.726562 0)"/>
      <use xlink:href="#DejaVuSans-65" transform="translate(1129.203125 0)"/>
      <use xlink:href="#DejaVuSans-6f" transform="translate(1190.726562 0)"/>
      <use xlink:href="#DejaVuSans-20" transform="translate(1251.908203 0)"/>
      <use xlink:href="#DejaVuSans-28" transform="translate(1283.695312 0)"/>
      <use xlink:href="#DejaVuSans-31" transform="translate(1322.708984 0)"/>
      <use xlink:href="#DejaVuSans-2e" transform="translate(1386.332031 0)"/>
      <use xlink:href="#DejaVuSans-30" transform="translate(1418.119141 0)"/>
      <use xlink:href="#DejaVuSans-20" transform="translate(1481.742188 0)"/>
      <use xlink:href="#DejaVuSans-3d" transform="translate(1513.529297 0)"/>
      <use xlink:href="#DejaVuSans-20" transform="translate(1597.318359 0)"/>
      <use xlink:href="#DejaVuSans-62" transform="translate(1629.105469 0)"/>
      <use xlink:href="#DejaVuSans-61" transform="translate(1692.582031 0)"/>
      <use xlink:href="#DejaVuSans-73" transform="translate(1753.861328 0)"/>
      <use xlink:href="#DejaVuSans-65" transform="translate(1805.960938 0)"/>
      <use xlink:href="#DejaVuSans-6c" transform="translate(1867.484375 0)"/>
      <use xlink:href="#DejaVuSans-69" transform="translate(1895.267578 0)"/>
      <use xlink:href="#DejaVuSans-6e" transform="translate(1923.050781 0)"/>
      <use xlink:href="#DejaVuSans-65" transform="translate(1986.429688 0)"/>
      <use xlink:href="#DejaVuSans-29" transform="translate(2047.953125 0)"/>
     </g>
    </g>
   </g>
   <g id="line2d_29">
    <path d="M 50.87 442.984045 
L 651.003636 442.984045 
" clip-path="url(#p9fae92e42c)" style="fill: none; stroke-dasharray: 2.96,1.28; stroke-dashoffset: 0; stroke: #888888; stroke-width: 0.8"/>
   </g>
   <g id="patch_3">
    <path d="M 50.87 462.04 
L 50.87 26.88 
" style="fill: none; stroke: #000000; stroke-width: 0.8; stroke-linejoin: miter; stroke-linecap: square"/>
   </g>
   <g id="patch_4">
    <path d="M 651.003636 462.04 
L 651.003636 26.88 
" style="fill: none; stroke: #000000; stroke-width: 0.8; stroke-linejoin: miter; stroke-linecap: square"/>
   </g>
   <g id="patch_5">
    <path d="M 50.87 462.04 
L 651.003636 462.04 
" style="fill: none; stroke: #000000; stroke-width: 0.8; stroke-linejoin: miter; stroke-linecap: square"/>
   </g>
   <g id="patch_6">
    <path d="M 50.87 26.88 
L 651.003636 26.88 
" style="fill: none; stroke: #000000; stroke-width: 0.8; stroke-linejoin: miter; stroke-linecap: square"/>
   </g>
   <g id="text_17">
    <!-- Exclamations and Questions -->
    <g style="opacity: 0.8" transform="translate(148.581893 440.26) scale(0.08 -0.08)">
     <defs>
      <path id="DejaVuSans-45" d="M 628 4666 
L 3578 4666 
L 3578 4134 
L 1259 4134 
L 1259 2753 
L 3481 2753 
L 3481 2222 
L 1259 2222 
L 1259 531 
L 3634 531 
L 3634 0 
L 628 0 
L 628 4666 
z
" transform="scale(0.015625)"/>
      <path id="DejaVuSans-78" d="M 3513 3500 
L 2247 1797 
L 3578 0 
L 2900 0 
L 1881 1375 
L 863 0 
L 184 0 
L 1544 1831 
L 300 3500 
L 978 3500 
L 1906 2253 
L 2834 3500 
L 3513 3500 
z
" transform="scale(0.015625)"/>
      <path id="DejaVuSans-51" d="M 2522 4238 
Q 1834 4238 1429 3725 
Q 1025 3213 1025 2328 
Q 1025 1447 1429 934 
Q 1834 422 2522 422 
Q 3209 422 3611 934 
Q 4013 1447 4013 2328 
Q 4013 3213 3611 3725 
Q 3209 4238 2522 4238 
z
M 3406 84 
L 4238 -825 
L 3475 -825 
L 2784 -78 
Q 2681 -84 2626 -87 
Q 2572 -91 2522 -91 
Q 1538 -91 948 567 
Q 359 1225 359 2328 
Q 359 3434 948 4092 
Q 1538 4750 2522 4750 
Q 3503 4750 4090 4092 
Q 4678 3434 4678 2328 
Q 4678 1516 4351 937 
Q 4025 359 3406 84 
z
" transform="scale(0.015625)"/>
      <path id="DejaVuSans-75" d="M 544 1381 
L 544 3500 
L 1119 3500 
L 1119 1403 
Q 1119 906 1312 657 
Q 1506 409 1894 409 
Q 2359 409 2629 706 
Q 2900 1003 2900 1516 
L 2900 3500 
L 3475 3500 
L 3475 0 
L 2900 0 
L 2900 538 
Q 2691 219 2414 64 
Q 2138 -91 1772 -91 
Q 1169 -91 856 284 
Q 544 659 544 1381 
z
M 1991 3584 
L 1991 3584 
z
" transform="scale(0.015625)"/>
     </defs>
     <use xlink:href="#DejaVuSans-45"/>
     <use xlink:href="#DejaVuSans-78" transform="translate(63.183594 0)"/>
     <use xlink:href="#DejaVuSans-63" transform="translate(120.613281 0)"/>
     <use xlink:href="#DejaVuSans-6c" transform="translate(175.59375 0)"/>
     <use xlink:href="#DejaVuSans-61" transform="translate(203.376953 0)"/>
     <use xlink:href="#DejaVuSans-6d" transform="translate(264.65625 0)"/>
     <use xlink:href="#DejaVuSans-61" transform="translate(362.068359 0)"/>
     <use xlink:href="#DejaVuSans-74" transform="translate(423.347656 0)"/>
     <use xlink:href="#DejaVuSans-69" transform="translate(462.556641 0)"/>
     <use xlink:href="#DejaVuSans-6f" transform="translate(490.339844 0)"/>
     <use xlink:href="#DejaVuSans-6e" transform="translate(551.521484 0)"/>
     <use xlink:href="#DejaVuSans-73" transform="translate(614.900391 0)"/>
     <use xlink:href="#DejaVuSans-20" transform="translate(667 0)"/>
     <use xlink:href="#DejaVuSans-61" transform="translate(698.787109 0)"/>
     <use xlink:href="#DejaVuSans-6e" transform="translate(760.066406 0)"/>
     <use xlink:href="#DejaVuSans-64" transform="translate(823.445312 0)"/>
     <use xlink:href="#DejaVuSans-20" transform="translate(886.921875 0)"/>
     <use xlink:href="#DejaVuSans-51" transform="translate(918.708984 0)"/>
     <use xlink:href="#DejaVuSans-75" transform="translate(997.419922 0)"/>
     <use xlink:href="#DejaVuSans-65" transform="translate(1060.798828 0)"/>
     <use xlink:href="#DejaVuSans-73" transform="translate(1122.322266 0)"/>
     <use xlink:href="#DejaVuSans-74" transform="translate(1174.421875 0)"/>
     <use xlink:href="#DejaVuSans-69" transform="translate(1213.630859 0)"/>
     <use xlink:href="#DejaVuSans-6f" transform="translate(1241.414062 0)"/>
     <use xlink:href="#DejaVuSans-6e" transform="translate(1302.595703 0)"/>
     <use xlink:href="#DejaVuSans-73" transform="translate(1365.974609 0)"/>
    </g>
   </g>
   <g id="text_18">
    <!-- Media Identification -->
    <g style="opacity: 0.8" transform="translate(627.724835 437.754103) scale(0.08 -0.08)">
     <defs>
      <path id="DejaVuSans-4d" d="M 628 4666 
L 1569 4666 
L 2759 1491 
L 3956 4666 
L 4897 4666 
L 4897 0 
L 4281 0 
L 4281 4097 
L 3078 897 
L 2444 897 
L 1241 4097 
L 1241 0 
L 628 0 
L 628 4666 
z
" transform="scale(0.015625)"/>
      <path id="DejaVuSans-49" d="M 628 4666 
L 1259 4666 
L 1259 0 
L 628 0 
L 628 4666 
z
" transform="scale(0.015625)"/>
     </defs>
     <use xlink:href="#DejaVuSans-4d"/>
     <use xlink:href="#DejaVuSans-65" transform="translate(86.279297 0)"/>
     <use xlink:href="#DejaVuSans-64" transform="translate(147.802734 0)"/>
     <use xlink:href="#DejaVuSans-69" transform="translate(211.279297 0)"/>
     <use xlink:href="#DejaVuSans-61" transform="translate(239.0625 0)"/>
     <use xlink:href="#DejaVuSans-20" transform="translate(300.341797 0)"/>
     <use xlink:href="#DejaVuSans-49" transform="translate(332.128906 0)"/>
     <use xlink:href="#DejaVuSans-64" transform="translate(361.621094 0)"/>
     <use xlink:href="#DejaVuSans-65" transform="translate(425.097656 0)"/>
     <use xlink:href="#DejaVuSans-6e" transform="translate(486.621094 0)"/>
     <use xlink:href="#DejaVuSans-74" transform="translate(550 0)"/>
     <use xlink:href="#DejaVuSans-69" transform="translate(589.208984 0)"/>
     <use xlink:href="#DejaVuSans-66" transform="translate(616.992188 0)"/>
     <use xlink:href="#DejaVuSans-69" transform="translate(652.197266 0)"/>
     <use xlink:href="#DejaVuSans-63" transform="translate(679.980469 0)"/>
     <use xlink:href="#DejaVuSans-61" transform="translate(734.960938 0)"/>
     <use xlink:href="#DejaVuSans-74" transform="translate(796.240234 0)"/>
     <use xlink:href="#DejaVuSans-69" transform="translate(835.449219 0)"/>
     <use xlink:href="#DejaVuSans-6f" transform="translate(863.232422 0)"/>
     <use xlink:href="#DejaVuSans-6e" transform="translate(924.414062 0)"/>
    </g>
   </g>
   <g id="text_19">
    <!-- Smooth and Youthful -->
    <g style="opacity: 0.8" transform="translate(159.983665 401.514753) scale(0.08 -0.08)">
     <defs>
      <path id="DejaVuSans-53" d="M 3425 4513 
L 3425 3897 
Q 3066 4069 2747 4153 
Q 2428 4238 2131 4238 
Q 1616 4238 1336 4038 
Q 1056 3838 1056 3469 
Q 1056 3159 1242 3001 
Q 1428 2844 1947 2747 
L 2328 2669 
Q 3034 2534 3370 2195 
Q 3706 1856 3706 1288 
Q 3706 609 3251 259 
Q 2797 -91 1919 -91 
Q 1588 -91 1214 -16 
Q 841 59 441 206 
L 441 856 
Q 825 641 1194 531 
Q 1563 422 1919 422 
Q 2459 422 2753 634 
Q 3047 847 3047 1241 
Q 3047 1584 2836 1778 
Q 2625 1972 2144 2069 
L 1759 2144 
Q 1053 2284 737 2584 
Q 422 2884 422 3419 
Q 422 4038 858 4394 
Q 1294 4750 2059 4750 
Q 2388 4750 2728 4690 
Q 3069 4631 3425 4513 
z
" transform="scale(0.015625)"/>
      <path id="DejaVuSans-59" d="M -13 4666 
L 666 4666 
L 1959 2747 
L 3244 4666 
L 3922 4666 
L 2272 2222 
L 2272 0 
L 1638 0 
L 1638 2222 
L -13 4666 
z
" transform="scale(0.015625)"/>
     </defs>
     <use xlink:href="#DejaVuSans-53"/>
     <use xlink:href="#DejaVuSans-6d" transform="translate(63.476562 0)"/>
     <use xlink:href="#DejaVuSans-6f" transform="translate(160.888672 0)"/>
     <use xlink:href="#DejaVuSans-6f" transform="translate(222.070312 0)"/>
     <use xlink:href="#DejaVuSans-74" transform="translate(283.251953 0)"/>
     <use xlink:href="#DejaVuSans-68" transform="translate(322.460938 0)"/>
     <use xlink:href="#DejaVuSans-20" transform="translate(385.839844 0)"/>
     <use xlink:href="#DejaVuSans-61" transform="translate(417.626953 0)"/>
     <use xlink:href="#DejaVuSans-6e" transform="translate(478.90625 0)"/>
     <use xlink:href="#DejaVuSans-64" transform="translate(542.285156 0)"/>
     <use xlink:href="#DejaVuSans-20" transform="translate(605.761719 0)"/>
     <use xlink:href="#DejaVuSans-59" transform="translate(637.548828 0)"/>
     <use xlink:href="#DejaVuSans-6f" transform="translate(685.382812 0)"/>
     <use xlink:href="#DejaVuSans-75" transform="translate(746.564453 0)"/>
     <use xlink:href="#DejaVuSans-74" transform="translate(809.943359 0)"/>
     <use xlink:href="#DejaVuSans-68" transform="translate(849.152344 0)"/>
     <use xlink:href="#DejaVuSans-66" transform="translate(912.53125 0)"/>
     <use xlink:href="#DejaVuSans-75" transform="translate(947.736328 0)"/>
     <use xlink:href="#DejaVuSans-6c" transform="translate(1011.115234 0)"/>
    </g>
   </g>
   <g id="text_20">
    <!-- Step-by-Step Instructions -->
    <g style="opacity: 0.8" transform="translate(170.225094 439.542235) scale(0.08 -0.08)">
     <defs>
      <path id="DejaVuSans-70" d="M 1159 525 
L 1159 -1331 
L 581 -1331 
L 581 3500 
L 1159 3500 
L 1159 2969 
Q 1341 3281 1617 3432 
Q 1894 3584 2278 3584 
Q 2916 3584 3314 3078 
Q 3713 2572 3713 1747 
Q 3713 922 3314 415 
Q 2916 -91 2278 -91 
Q 1894 -91 1617 61 
Q 1341 213 1159 525 
z
M 3116 1747 
Q 3116 2381 2855 2742 
Q 2594 3103 2138 3103 
Q 1681 3103 1420 2742 
Q 1159 2381 1159 1747 
Q 1159 1113 1420 752 
Q 1681 391 2138 391 
Q 2594 391 2855 752 
Q 3116 1113 3116 1747 
z
" transform="scale(0.015625)"/>
      <path id="DejaVuSans-79" d="M 2059 -325 
Q 1816 -950 1584 -1140 
Q 1353 -1331 966 -1331 
L 506 -1331 
L 506 -850 
L 844 -850 
Q 1081 -850 1212 -737 
Q 1344 -625 1503 -206 
L 1606 56 
L 191 3500 
L 800 3500 
L 1894 763 
L 2988 3500 
L 3597 3500 
L 2059 -325 
z
" transform="scale(0.015625)"/>
     </defs>
     <use xlink:href="#DejaVuSans-53"/>
     <use xlink:href="#DejaVuSans-74" transform="translate(63.476562 0)"/>
     <use xlink:href="#DejaVuSans-65" transform="translate(102.685547 0)"/>
     <use xlink:href="#DejaVuSans-70" transform="translate(164.208984 0)"/>
     <use xlink:href="#DejaVuSans-2d" transform="translate(227.685547 0)"/>
     <use xlink:href="#DejaVuSans-62" transform="translate(263.769531 0)"/>
     <use xlink:href="#DejaVuSans-79" transform="translate(327.246094 0)"/>
     <use xlink:href="#DejaVuSans-2d" transform="translate(384.675781 0)"/>
     <use xlink:href="#DejaVuSans-53" transform="translate(420.759766 0)"/>
     <use xlink:href="#DejaVuSans-74" transform="translate(484.236328 0)"/>
     <use xlink:href="#DejaVuSans-65" transform="translate(523.445312 0)"/>
     <use xlink:href="#DejaVuSans-70" transform="translate(584.96875 0)"/>
     <use xlink:href="#DejaVuSans-20" transform="translate(648.445312 0)"/>
     <use xlink:href="#DejaVuSans-49" transform="translate(680.232422 0)"/>
     <use xlink:href="#DejaVuSans-6e" transform="translate(709.724609 0)"/>
     <use xlink:href="#DejaVuSans-73" transform="translate(773.103516 0)"/>
     <use xlink:href="#DejaVuSans-74" transform="translate(825.203125 0)"/>
     <use xlink:href="#DejaVuSans-72" transform="translate(864.412109 0)"/>
     <use xlink:href="#DejaVuSans-75" transform="translate(905.525391 0)"/>
     <use xlink:href="#DejaVuSans-63" transform="translate(968.904297 0)"/>
     <use xlink:href="#DejaVuSans-74" transform="translate(1023.884766 0)"/>
     <use xlink:href="#DejaVuSans-69" transform="translate(1063.09375 0)"/>
     <use xlink:href="#DejaVuSans-6f" transform="translate(1090.876953 0)"/>
     <use xlink:href="#DejaVuSans-6e" transform="translate(1152.058594 0)"/>
     <use xlink:href="#DejaVuSans-73" transform="translate(1215.4375 0)"/>
    </g>
   </g>
   <g id="text_21">
    <!-- Personal Statements -->
    <g style="opacity: 0.8" transform="translate(106.01261 417.693173) scale(0.08 -0.08)">
     <defs>
      <path id="DejaVuSans-50" d="M 1259 4147 
L 1259 2394 
L 2053 2394 
Q 2494 2394 2734 2622 
Q 2975 2850 2975 3272 
Q 2975 3691 2734 3919 
Q 2494 4147 2053 4147 
L 1259 4147 
z
M 628 4666 
L 2053 4666 
Q 2838 4666 3239 4311 
Q 3641 3956 3641 3272 
Q 3641 2581 3239 2228 
Q 2838 1875 2053 1875 
L 1259 1875 
L 1259 0 
L 628 0 
L 628 4666 
z
" transform="scale(0.015625)"/>
     </defs>
     <use xlink:href="#DejaVuSans-50"/>
     <use xlink:href="#DejaVuSans-65" transform="translate(56.677734 0)"/>
     <use xlink:href="#DejaVuSans-72" transform="translate(118.201172 0)"/>
     <use xlink:href="#DejaVuSans-73" transform="translate(159.314453 0)"/>
     <use xlink:href="#DejaVuSans-6f" transform="translate(211.414062 0)"/>
     <use xlink:href="#DejaVuSans-6e" transform="translate(272.595703 0)"/>
     <use xlink:href="#DejaVuSans-61" transform="translate(335.974609 0)"/>
     <use xlink:href="#DejaVuSans-6c" transform="translate(397.253906 0)"/>
     <use xlink:href="#DejaVuSans-20" transform="translate(425.037109 0)"/>
     <use xlink:href="#DejaVuSans-53" transform="translate(456.824219 0)"/>
     <use xlink:href="#DejaVuSans-74" transform="translate(520.300781 0)"/>
     <use xlink:href="#DejaVuSans-61" transform="translate(559.509766 0)"/>
     <use xlink:href="#DejaVuSans-74" transform="translate(620.789062 0)"/>
     <use xlink:href="#DejaVuSans-65" transform="translate(659.998047 0)"/>
     <use xlink:href="#DejaVuSans-6d" transform="translate(721.521484 0)"/>
     <use xlink:href="#DejaVuSans-65" transform="translate(818.933594 0)"/>
     <use xlink:href="#DejaVuSans-6e" transform="translate(880.457031 0)"/>
     <use xlink:href="#DejaVuSans-74" transform="translate(943.835938 0)"/>
     <use xlink:href="#DejaVuSans-73" transform="translate(983.044922 0)"/>
    </g>
   </g>
   <g id="text_22">
    <!-- Positive Affirmations -->
    <g style="opacity: 0.8" transform="translate(82.148802 432.134004) scale(0.08 -0.08)">
     <defs>
      <path id="DejaVuSans-41" d="M 2188 4044 
L 1331 1722 
L 3047 1722 
L 2188 4044 
z
M 1831 4666 
L 2547 4666 
L 4325 0 
L 3669 0 
L 3244 1197 
L 1141 1197 
L 716 0 
L 50 0 
L 1831 4666 
z
" transform="scale(0.015625)"/>
     </defs>
     <use xlink:href="#DejaVuSans-50"/>
     <use xlink:href="#DejaVuSans-6f" transform="translate(56.677734 0)"/>
     <use xlink:href="#DejaVuSans-73" transform="translate(117.859375 0)"/>
     <use xlink:href="#DejaVuSans-69" transform="translate(169.958984 0)"/>
     <use xlink:href="#DejaVuSans-74" transform="translate(197.742188 0)"/>
     <use xlink:href="#DejaVuSans-69" transform="translate(236.951172 0)"/>
     <use xlink:href="#DejaVuSans-76" transform="translate(264.734375 0)"/>
     <use xlink:href="#DejaVuSans-65" transform="translate(323.914062 0)"/>
     <use xlink:href="#DejaVuSans-20" transform="translate(385.4375 0)"/>
     <use xlink:href="#DejaVuSans-41" transform="translate(417.224609 0)"/>
     <use xlink:href="#DejaVuSans-66" transform="translate(482.007812 0)"/>
     <use xlink:href="#DejaVuSans-66" transform="translate(517.212891 0)"/>
     <use xlink:href="#DejaVuSans-69" transform="translate(552.417969 0)"/>
     <use xlink:href="#DejaVuSans-72" transform="translate(580.201172 0)"/>
     <use xlink:href="#DejaVuSans-6d" transform="translate(619.564453 0)"/>
     <use xlink:href="#DejaVuSans-61" transform="translate(716.976562 0)"/>
     <use xlink:href="#DejaVuSans-74" transform="translate(778.255859 0)"/>
     <use xlink:href="#DejaVuSans-69" transform="translate(817.464844 0)"/>
     <use xlink:href="#DejaVuSans-6f" transform="translate(845.248047 0)"/>
     <use xlink:href="#DejaVuSans-6e" transform="translate(906.429688 0)"/>
     <use xlink:href="#DejaVuSans-73" transform="translate(969.808594 0)"/>
    </g>
   </g>
   <g id="text_23">
    <!-- Observations on Women -->
    <g style="opacity: 0.8" transform="translate(95.377652 432.409746) scale(0.08 -0.08)">
     <defs>
      <path id="DejaVuSans-4f" d="M 2522 4238 
Q 1834 4238 1429 3725 
Q 1025 3213 1025 2328 
Q 1025 1447 1429 934 
Q 1834 422 2522 422 
Q 3209 422 3611 934 
Q 4013 1447 4013 2328 
Q 4013 3213 3611 3725 
Q 3209 4238 2522 4238 
z
M 2522 4750 
Q 3503 4750 4090 4092 
Q 4678 3434 4678 2328 
Q 4678 1225 4090 567 
Q 3503 -91 2522 -91 
Q 1538 -91 948 565 
Q 359 1222 359 2328 
Q 359 3434 948 4092 
Q 1538 4750 2522 4750 
z
" transform="scale(0.015625)"/>
      <path id="DejaVuSans-57" d="M 213 4666 
L 850 4666 
L 1831 722 
L 2809 4666 
L 3519 4666 
L 4500 722 
L 5478 4666 
L 6119 4666 
L 4947 0 
L 4153 0 
L 3169 4050 
L 2175 0 
L 1381 0 
L 213 4666 
z
" transform="scale(0.015625)"/>
     </defs>
     <use xlink:href="#DejaVuSans-4f"/>
     <use xlink:href="#DejaVuSans-62" transform="translate(78.710938 0)"/>
     <use xlink:href="#DejaVuSans-73" transform="translate(142.1875 0)"/>
     <use xlink:href="#DejaVuSans-65" transform="translate(194.287109 0)"/>
     <use xlink:href="#DejaVuSans-72" transform="translate(255.810547 0)"/>
     <use xlink:href="#DejaVuSans-76" transform="translate(296.923828 0)"/>
     <use xlink:href="#DejaVuSans-61" transform="translate(356.103516 0)"/>
     <use xlink:href="#DejaVuSans-74" transform="translate(417.382812 0)"/>
     <use xlink:href="#DejaVuSans-69" transform="translate(456.591797 0)"/>
     <use xlink:href="#DejaVuSans-6f" transform="translate(484.375 0)"/>
     <use xlink:href="#DejaVuSans-6e" transform="translate(545.556641 0)"/>
     <use xlink:href="#DejaVuSans-73" transform="translate(608.935547 0)"/>
     <use xlink:href="#DejaVuSans-20" transform="translate(661.035156 0)"/>
     <use xlink:href="#DejaVuSans-6f" transform="translate(692.822266 0)"/>
     <use xlink:href="#DejaVuSans-6e" transform="translate(754.003906 0)"/>
     <use xlink:href="#DejaVuSans-20" transform="translate(817.382812 0)"/>
     <use xlink:href="#DejaVuSans-57" transform="translate(849.169922 0)"/>
     <use xlink:href="#DejaVuSans-6f" transform="translate(942.171875 0)"/>
     <use xlink:href="#DejaVuSans-6d" transform="translate(1003.353516 0)"/>
     <use xlink:href="#DejaVuSans-65" transform="translate(1100.765625 0)"/>
     <use xlink:href="#DejaVuSans-6e" transform="translate(1162.289062 0)"/>
    </g>
   </g>
   <g id="text_24">
    <!-- Wordplay on 'Knee' -->
    <g style="opacity: 0.8" transform="translate(177.231163 439.793752) scale(0.08 -0.08)">
     <defs>
      <path id="DejaVuSans-27" d="M 1147 4666 
L 1147 2931 
L 616 2931 
L 616 4666 
L 1147 4666 
z
" transform="scale(0.015625)"/>
      <path id="DejaVuSans-4b" d="M 628 4666 
L 1259 4666 
L 1259 2694 
L 3353 4666 
L 4166 4666 
L 1850 2491 
L 4331 0 
L 3500 0 
L 1259 2247 
L 1259 0 
L 628 0 
L 628 4666 
z
" transform="scale(0.015625)"/>
     </defs>
     <use xlink:href="#DejaVuSans-57"/>
     <use xlink:href="#DejaVuSans-6f" transform="translate(93.001953 0)"/>
     <use xlink:href="#DejaVuSans-72" transform="translate(154.183594 0)"/>
     <use xlink:href="#DejaVuSans-64" transform="translate(193.546875 0)"/>
     <use xlink:href="#DejaVuSans-70" transform="translate(257.023438 0)"/>
     <use xlink:href="#DejaVuSans-6c" transform="translate(320.5 0)"/>
     <use xlink:href="#DejaVuSans-61" transform="translate(348.283203 0)"/>
     <use xlink:href="#DejaVuSans-79" transform="translate(409.5625 0)"/>
     <use xlink:href="#DejaVuSans-20" transform="translate(468.742188 0)"/>
     <use xlink:href="#DejaVuSans-6f" transform="translate(500.529297 0)"/>
     <use xlink:href="#DejaVuSans-6e" transform="translate(561.710938 0)"/>
     <use xlink:href="#DejaVuSans-20" transform="translate(625.089844 0)"/>
     <use xlink:href="#DejaVuSans-27" transform="translate(656.876953 0)"/>
     <use xlink:href="#DejaVuSans-4b" transform="translate(684.367188 0)"/>
     <use xlink:href="#DejaVuSans-6e" transform="translate(749.943359 0)"/>
     <use xlink:href="#DejaVuSans-65" transform="translate(813.322266 0)"/>
     <use xlink:href="#DejaVuSans-65" transform="translate(874.845703 0)"/>
     <use xlink:href="#DejaVuSans-27" transform="translate(936.369141 0)"/>
    </g>
   </g>
   <g id="text_25">
    <!-- AI or Fake Content -->
    <g style="opacity: 0.8" transform="translate(117.944514 369.1941) scale(0.08 -0.08)">
     <defs>
      <path id="DejaVuSans-46" d="M 628 4666 
L 3309 4666 
L 3309 4134 
L 1259 4134 
L 1259 2759 
L 3109 2759 
L 3109 2228 
L 1259 2228 
L 1259 0 
L 628 0 
L 628 4666 
z
" transform="scale(0.015625)"/>
      <path id="DejaVuSans-6b" d="M 581 4863 
L 1159 4863 
L 1159 1991 
L 2875 3500 
L 3609 3500 
L 1753 1863 
L 3688 0 
L 2938 0 
L 1159 1709 
L 1159 0 
L 581 0 
L 581 4863 
z
" transform="scale(0.015625)"/>
      <path id="DejaVuSans-43" d="M 4122 4306 
L 4122 3641 
Q 3803 3938 3442 4084 
Q 3081 4231 2675 4231 
Q 1875 4231 1450 3742 
Q 1025 3253 1025 2328 
Q 1025 1406 1450 917 
Q 1875 428 2675 428 
Q 3081 428 3442 575 
Q 3803 722 4122 1019 
L 4122 359 
Q 3791 134 3420 21 
Q 3050 -91 2638 -91 
Q 1578 -91 968 557 
Q 359 1206 359 2328 
Q 359 3453 968 4101 
Q 1578 4750 2638 4750 
Q 3056 4750 3426 4639 
Q 3797 4528 4122 4306 
z
" transform="scale(0.015625)"/>
     </defs>
     <use xlink:href="#DejaVuSans-41"/>
     <use xlink:href="#DejaVuSans-49" transform="translate(68.408203 0)"/>
     <use xlink:href="#DejaVuSans-20" transform="translate(97.900391 0)"/>
     <use xlink:href="#DejaVuSans-6f" transform="translate(129.6875 0)"/>
     <use xlink:href="#DejaVuSans-72" transform="translate(190.869141 0)"/>
     <use xlink:href="#DejaVuSans-20" transform="translate(231.982422 0)"/>
     <use xlink:href="#DejaVuSans-46" transform="translate(263.769531 0)"/>
     <use xlink:href="#DejaVuSans-61" transform="translate(312.164062 0)"/>
     <use xlink:href="#DejaVuSans-6b" transform="translate(373.443359 0)"/>
     <use xlink:href="#DejaVuSans-65" transform="translate(427.728516 0)"/>
     <use xlink:href="#DejaVuSans-20" transform="translate(489.251953 0)"/>
     <use xlink:href="#DejaVuSans-43" transform="translate(521.039062 0)"/>
     <use xlink:href="#DejaVuSans-6f" transform="translate(590.863281 0)"/>
     <use xlink:href="#DejaVuSans-6e" transform="translate(652.044922 0)"/>
     <use xlink:href="#DejaVuSans-74" transform="translate(715.423828 0)"/>
     <use xlink:href="#DejaVuSans-65" transform="translate(754.632812 0)"/>
     <use xlink:href="#DejaVuSans-6e" transform="translate(816.15625 0)"/>
     <use xlink:href="#DejaVuSans-74" transform="translate(879.535156 0)"/>
    </g>
   </g>
   <g id="text_26">
    <!-- Speeding and Traffic Stops -->
    <g style="opacity: 0.8" transform="translate(82.148802 44.66) scale(0.08 -0.08)">
     <defs>
      <path id="DejaVuSans-54" d="M -19 4666 
L 3928 4666 
L 3928 4134 
L 2272 4134 
L 2272 0 
L 1638 0 
L 1638 4134 
L -19 4134 
L -19 4666 
z
" transform="scale(0.015625)"/>
     </defs>
     <use xlink:href="#DejaVuSans-53"/>
     <use xlink:href="#DejaVuSans-70" transform="translate(63.476562 0)"/>
     <use xlink:href="#DejaVuSans-65" transform="translate(126.953125 0)"/>
     <use xlink:href="#DejaVuSans-65" transform="translate(188.476562 0)"/>
     <use xlink:href="#DejaVuSans-64" transform="translate(250 0)"/>
     <use xlink:href="#DejaVuSans-69" transform="translate(313.476562 0)"/>
     <use xlink:href="#DejaVuSans-6e" transform="translate(341.259766 0)"/>
     <use xlink:href="#DejaVuSans-67" transform="translate(404.638672 0)"/>
     <use xlink:href="#DejaVuSans-20" transform="translate(468.115234 0)"/>
     <use xlink:href="#DejaVuSans-61" transform="translate(499.902344 0)"/>
     <use xlink:href="#DejaVuSans-6e" transform="translate(561.181641 0)"/>
     <use xlink:href="#DejaVuSans-64" transform="translate(624.560547 0)"/>
     <use xlink:href="#DejaVuSans-20" transform="translate(688.037109 0)"/>
     <use xlink:href="#DejaVuSans-54" transform="translate(719.824219 0)"/>
     <use xlink:href="#DejaVuSans-72" transform="translate(766.158203 0)"/>
     <use xlink:href="#DejaVuSans-61" transform="translate(807.271484 0)"/>
     <use xlink:href="#DejaVuSans-66" transform="translate(868.550781 0)"/>
     <use xlink:href="#DejaVuSans-66" transform="translate(903.755859 0)"/>
     <use xlink:href="#DejaVuSans-69" transform="translate(938.960938 0)"/>
     <use xlink:href="#DejaVuSans-63" transform="translate(966.744141 0)"/>
     <use xlink:href="#DejaVuSans-20" transform="translate(1021.724609 0)"/>
     <use xlink:href="#DejaVuSans-53" transform="translate(1053.511719 0)"/>
     <use xlink:href="#DejaVuSans-74" transform="translate(1116.988281 0)"/>
     <use xlink:href="#DejaVuSans-6f" transform="translate(1156.197266 0)"/>
     <use xlink:href="#DejaVuSans-70" transform="translate(1217.378906 0)"/>
     <use xlink:href="#DejaVuSans-73" transform="translate(1280.855469 0)"/>
    </g>
   </g>
   <g id="text_27">
    <!-- Themes: intent-to-watch vs view-lift (bubble = n_comments) -->
    <g transform="translate(168.399006 20.88) scale(0.12 -0.12)">
     <defs>
      <path id="DejaVuSans-3a" d="M 750 794 
L 1409 794 
L 1409 0 
L 750 0 
L 750 794 
z
M 750 3309 
L 1409 3309 
L 1409 2516 
L 750 2516 
L 750 3309 
z
" transform="scale(0.015625)"/>
      <path id="DejaVuSans-5f" d="M 3263 -1063 
L 3263 -1509 
L -63 -1509 
L -63 -1063 
L 3263 -1063 
z
" transform="scale(0.015625)"/>
     </defs>
     <use xlink:href="#DejaVuSans-54"/>
     <use xlink:href="#DejaVuSans-68" transform="translate(61.083984 0)"/>
     <use xlink:href="#DejaVuSans-65" transform="translate(124.462891 0)"/>
     <use xlink:href="#DejaVuSans-6d" transform="translate(185.986328 0)"/>
     <use xlink:href="#DejaVuSans-65" transform="translate(283.398438 0)"/>
     <use xlink:href="#DejaVuSans-73" transform="translate(344.921875 0)"/>
     <use xlink:href="#DejaVuSans-3a" transform="translate(397.021484 0)"/>
     <use xlink:href="#DejaVuSans-20" transform="translate(430.712891 0)"/>
     <use xlink:href="#DejaVuSans-69" transform="translate(462.5 0)"/>
     <use xlink:href="#DejaVuSans-6e" transform="translate(490.283203 0)"/>
     <use xlink:href="#DejaVuSans-74" transform="translate(553.662109 0)"/>
     <use xlink:href="#DejaVuSans-65" transform="translate(592.871094 0)"/>
     <use xlink:href="#DejaVuSans-6e" transform="translate(654.394531 0)"/>
     <use xlink:href="#DejaVuSans-74" transform="translate(717.773438 0)"/>
     <use xlink:href="#DejaVuSans-2d" transform="translate(756.982422 0)"/>
     <use xlink:href="#DejaVuSans-74" transform="translate(793.066406 0)"/>
     <use xlink:href="#DejaVuSans-6f" transform="translate(832.275391 0)"/>
     <use xlink:href="#DejaVuSans-2d" transform="translate(895.332031 0)"/>
     <use xlink:href="#DejaVuSans-77" transform="translate(931.416016 0)"/>
     <use xlink:href="#DejaVuSans-61" transform="translate(1013.203125 0)"/>
     <use xlink:href="#DejaVuSans-74" transform="translate(1074.482422 0)"/>
     <use xlink:href="#DejaVuSans-63" transform="translate(1113.691406 0)"/>
     <use xlink:href="#DejaVuSans-68" transform="translate(1168.671875 0)"/>
     <use xlink:href="#DejaVuSans-20" transform="translate(1232.050781 0)"/>
     <use xlink:href="#DejaVuSans-76" transform="translate(1263.837891 0)"/>
     <use xlink:href="#DejaVuSans-73" transform="translate(1323.017578 0)"/>
     <use xlink:href="#DejaVuSans-20" transform="translate(1375.117188 0)"/>
     <use xlink:href="#DejaVuSans-76" transform="translate(1406.904297 0)"/>
     <use xlink:href="#DejaVuSans-69" transform="translate(1466.083984 0)"/>
     <use xlink:href="#DejaVuSans-65" transform="translate(1493.867188 0)"/>
     <use xlink:href="#DejaVuSans-77" transform="translate(1555.390625 0)"/>
     <use xlink:href="#DejaVuSans-2d" transform="translate(1637.177734 0)"/>
     <use xlink:href="#DejaVuSans-6c" transform="translate(1673.261719 0)"/>
     <use xlink:href="#DejaVuSans-69" transform="translate(1701.044922 0)"/>
     <use xlink:href="#DejaVuSans-66" transform="translate(1728.828125 0)"/>
     <use xlink:href="#DejaVuSans-74" transform="translate(1762.283203 0)"/>
     <use xlink:href="#DejaVuSans-20" transform="translate(1801.492188 0)"/>
     <use xlink:href="#DejaVuSans-28" transform="translate(1833.279297 0)"/>
     <use xlink:href="#DejaVuSans-62" transform="translate(1872.292969 0)"/>
     <use xlink:href="#DejaVuSans-75" transform="translate(1935.769531 0)"/>
     <use xlink:href="#DejaVuSans-62" transform="translate(1999.148438 0)"/>
     <use xlink:href="#DejaVuSans-62" transform="translate(2062.625 0)"/>
     <use xlink:href="#DejaVuSans-6c" transform="translate(2126.101562 0)"/>
     <use xlink:href="#DejaVuSans-65" transform="translate(2153.884766 0)"/>
     <use xlink:href="#DejaVuSans-20" transform="translate(2215.408203 0)"/>
     <use xlink:href="#DejaVuSans-3d" transform="translate(2247.195312 0)"/>
     <use xlink:href="#DejaVuSans-20" transform="translate(2330.984375 0)"/>
     <use xlink:href="#DejaVuSans-6e" transform="translate(2362.771484 0)"/>
     <use xlink:href="#DejaVuSans-5f" transform="translate(2426.150391 0)"/>
     <use xlink:href="#DejaVuSans-63" transform="translate(2476.150391 0)"/>
     <use xlink:href="#DejaVuSans-6f" transform="translate(2531.130859 0)"/>
     <use xlink:href="#DejaVuSans-6d" transform="translate(2592.3125 0)"/>
     <use xlink:href="#DejaVuSans-6d" transform="translate(2689.724609 0)"/>
     <use xlink:href="#DejaVuSans-65" transform="translate(2787.136719 0)"/>
     <use xlink:href="#DejaVuSans-6e" transform="translate(2848.660156 0)"/>
     <use xlink:href="#DejaVuSans-74" transform="translate(2912.039062 0)"/>
     <use xlink:href="#DejaVuSans-73" transform="translate(2951.248047 0)"/>
     <use xlink:href="#DejaVuSans-29" transform="translate(3003.347656 0)"/>
    </g>
   </g>
  </g>
 </g>
 <defs>
  <clipPath id="p9fae92e42c">
   <rect x="50.87" y="26.88" width="600.133636" height="435.16"/>
  </clipPath>
 </defs>
</svg>
